%TF.GenerationSoftware,KiCad,Pcbnew,8.0.6*%
%TF.CreationDate,2025-01-28T20:51:37+01:00*%
%TF.ProjectId,Flight controller goated,466c6967-6874-4206-936f-6e74726f6c6c,rev?*%
%TF.SameCoordinates,Original*%
%TF.FileFunction,Paste,Bot*%
%TF.FilePolarity,Positive*%
%FSLAX46Y46*%
G04 Gerber Fmt 4.6, Leading zero omitted, Abs format (unit mm)*
G04 Created by KiCad (PCBNEW 8.0.6) date 2025-01-28 20:51:37*
%MOMM*%
%LPD*%
G01*
G04 APERTURE LIST*
G04 Aperture macros list*
%AMRoundRect*
0 Rectangle with rounded corners*
0 $1 Rounding radius*
0 $2 $3 $4 $5 $6 $7 $8 $9 X,Y pos of 4 corners*
0 Add a 4 corners polygon primitive as box body*
4,1,4,$2,$3,$4,$5,$6,$7,$8,$9,$2,$3,0*
0 Add four circle primitives for the rounded corners*
1,1,$1+$1,$2,$3*
1,1,$1+$1,$4,$5*
1,1,$1+$1,$6,$7*
1,1,$1+$1,$8,$9*
0 Add four rect primitives between the rounded corners*
20,1,$1+$1,$2,$3,$4,$5,0*
20,1,$1+$1,$4,$5,$6,$7,0*
20,1,$1+$1,$6,$7,$8,$9,0*
20,1,$1+$1,$8,$9,$2,$3,0*%
G04 Aperture macros list end*
%ADD10RoundRect,0.135000X-0.185000X0.135000X-0.185000X-0.135000X0.185000X-0.135000X0.185000X0.135000X0*%
%ADD11RoundRect,0.225000X0.225000X0.250000X-0.225000X0.250000X-0.225000X-0.250000X0.225000X-0.250000X0*%
%ADD12RoundRect,0.140000X-0.170000X0.140000X-0.170000X-0.140000X0.170000X-0.140000X0.170000X0.140000X0*%
%ADD13RoundRect,0.140000X-0.140000X-0.170000X0.140000X-0.170000X0.140000X0.170000X-0.140000X0.170000X0*%
%ADD14RoundRect,0.250000X-0.325000X-0.650000X0.325000X-0.650000X0.325000X0.650000X-0.325000X0.650000X0*%
%ADD15RoundRect,0.250000X0.650000X-0.325000X0.650000X0.325000X-0.650000X0.325000X-0.650000X-0.325000X0*%
%ADD16RoundRect,0.150000X0.150000X-0.512500X0.150000X0.512500X-0.150000X0.512500X-0.150000X-0.512500X0*%
%ADD17RoundRect,0.200000X0.200000X0.275000X-0.200000X0.275000X-0.200000X-0.275000X0.200000X-0.275000X0*%
%ADD18RoundRect,0.225000X-0.250000X0.225000X-0.250000X-0.225000X0.250000X-0.225000X0.250000X0.225000X0*%
%ADD19RoundRect,0.140000X0.140000X0.170000X-0.140000X0.170000X-0.140000X-0.170000X0.140000X-0.170000X0*%
%ADD20RoundRect,0.135000X-0.135000X-0.185000X0.135000X-0.185000X0.135000X0.185000X-0.135000X0.185000X0*%
%ADD21R,1.900000X0.400000*%
%ADD22RoundRect,0.140000X0.170000X-0.140000X0.170000X0.140000X-0.170000X0.140000X-0.170000X-0.140000X0*%
%ADD23RoundRect,0.135000X0.135000X0.185000X-0.135000X0.185000X-0.135000X-0.185000X0.135000X-0.185000X0*%
%ADD24RoundRect,0.350000X-0.350000X-0.800000X0.350000X-0.800000X0.350000X0.800000X-0.350000X0.800000X0*%
%ADD25RoundRect,0.200000X-0.200000X-0.275000X0.200000X-0.275000X0.200000X0.275000X-0.200000X0.275000X0*%
%ADD26RoundRect,0.350000X0.350000X0.800000X-0.350000X0.800000X-0.350000X-0.800000X0.350000X-0.800000X0*%
%ADD27O,1.040200X0.444600*%
%ADD28R,3.400000X4.300000*%
%ADD29RoundRect,0.075000X0.700000X0.075000X-0.700000X0.075000X-0.700000X-0.075000X0.700000X-0.075000X0*%
%ADD30RoundRect,0.075000X0.075000X0.700000X-0.075000X0.700000X-0.075000X-0.700000X0.075000X-0.700000X0*%
G04 APERTURE END LIST*
D10*
%TO.C,R2*%
X72450000Y-104990000D03*
X72450000Y-106010000D03*
%TD*%
D11*
%TO.C,C5*%
X74075000Y-102200000D03*
X72525000Y-102200000D03*
%TD*%
%TO.C,C3*%
X74075000Y-103750000D03*
X72525000Y-103750000D03*
%TD*%
D12*
%TO.C,C24*%
X90200000Y-101070000D03*
X90200000Y-102030000D03*
%TD*%
D13*
%TO.C,C6*%
X73770000Y-106700000D03*
X74730000Y-106700000D03*
%TD*%
D14*
%TO.C,C1*%
X69250000Y-108050000D03*
X72200000Y-108050000D03*
%TD*%
D15*
%TO.C,C11*%
X92337500Y-109587500D03*
X92337500Y-106637500D03*
%TD*%
D16*
%TO.C,U6*%
X70925000Y-105687500D03*
X69975000Y-105687500D03*
X69025000Y-105687500D03*
X69025000Y-103412500D03*
X69975000Y-103412500D03*
X70925000Y-103412500D03*
%TD*%
D17*
%TO.C,R13*%
X96012500Y-109712500D03*
X94362500Y-109712500D03*
%TD*%
D13*
%TO.C,C19*%
X86970000Y-92550000D03*
X87930000Y-92550000D03*
%TD*%
D18*
%TO.C,C26*%
X92737500Y-103337500D03*
X92737500Y-104887500D03*
%TD*%
D19*
%TO.C,C16*%
X95167500Y-108462500D03*
X94207500Y-108462500D03*
%TD*%
D12*
%TO.C,C23*%
X89040000Y-101070000D03*
X89040000Y-102030000D03*
%TD*%
D20*
%TO.C,R14*%
X86940000Y-91450000D03*
X87960000Y-91450000D03*
%TD*%
D21*
%TO.C,Y1*%
X89800000Y-99350000D03*
X89800000Y-98150000D03*
X89800000Y-96950000D03*
%TD*%
D18*
%TO.C,C27*%
X91100000Y-103325000D03*
X91100000Y-104875000D03*
%TD*%
D22*
%TO.C,C21*%
X76600000Y-93630000D03*
X76600000Y-92670000D03*
%TD*%
D19*
%TO.C,C4*%
X79380000Y-107900000D03*
X78420000Y-107900000D03*
%TD*%
D23*
%TO.C,R7*%
X97197500Y-108462500D03*
X96177500Y-108462500D03*
%TD*%
D13*
%TO.C,C17*%
X86970000Y-93600000D03*
X87930000Y-93600000D03*
%TD*%
D16*
%TO.C,U7*%
X96250000Y-106950000D03*
X95300000Y-106950000D03*
X94350000Y-106950000D03*
X94350000Y-104675000D03*
X95300000Y-104675000D03*
X96250000Y-104675000D03*
%TD*%
D13*
%TO.C,C13*%
X95607500Y-103112500D03*
X96567500Y-103112500D03*
%TD*%
D24*
%TO.C,L1*%
X69475000Y-99000000D03*
X73025000Y-99000000D03*
%TD*%
D25*
%TO.C,R1*%
X73775000Y-105400000D03*
X75425000Y-105400000D03*
%TD*%
D26*
%TO.C,L2*%
X96525000Y-99550000D03*
X92975000Y-99550000D03*
%TD*%
D19*
%TO.C,C22*%
X85480000Y-106800000D03*
X84520000Y-106800000D03*
%TD*%
%TO.C,C20*%
X78430000Y-106750000D03*
X77470000Y-106750000D03*
%TD*%
D27*
%TO.C,U1*%
X79854300Y-114955000D03*
X79854300Y-113685000D03*
X79854300Y-112415000D03*
X79854300Y-111145000D03*
X85545700Y-111145000D03*
X85545700Y-112415000D03*
X85545700Y-113685000D03*
X85545700Y-114955000D03*
D28*
X82700000Y-113050000D03*
%TD*%
D29*
%TO.C,U2*%
X87425000Y-95800000D03*
X87425000Y-96300000D03*
X87425000Y-96800000D03*
X87425000Y-97300000D03*
X87425000Y-97800000D03*
X87425000Y-98300000D03*
X87425000Y-98800000D03*
X87425000Y-99300000D03*
X87425000Y-99800000D03*
X87425000Y-100300000D03*
X87425000Y-100800000D03*
X87425000Y-101300000D03*
X87425000Y-101800000D03*
X87425000Y-102300000D03*
X87425000Y-102800000D03*
X87425000Y-103300000D03*
D30*
X85500000Y-105225000D03*
X85000000Y-105225000D03*
X84500000Y-105225000D03*
X84000000Y-105225000D03*
X83500000Y-105225000D03*
X83000000Y-105225000D03*
X82500000Y-105225000D03*
X82000000Y-105225000D03*
X81500000Y-105225000D03*
X81000000Y-105225000D03*
X80500000Y-105225000D03*
X80000000Y-105225000D03*
X79500000Y-105225000D03*
X79000000Y-105225000D03*
X78500000Y-105225000D03*
X78000000Y-105225000D03*
D29*
X76075000Y-103300000D03*
X76075000Y-102800000D03*
X76075000Y-102300000D03*
X76075000Y-101800000D03*
X76075000Y-101300000D03*
X76075000Y-100800000D03*
X76075000Y-100300000D03*
X76075000Y-99800000D03*
X76075000Y-99300000D03*
X76075000Y-98800000D03*
X76075000Y-98300000D03*
X76075000Y-97800000D03*
X76075000Y-97300000D03*
X76075000Y-96800000D03*
X76075000Y-96300000D03*
X76075000Y-95800000D03*
D30*
X78000000Y-93875000D03*
X78500000Y-93875000D03*
X79000000Y-93875000D03*
X79500000Y-93875000D03*
X80000000Y-93875000D03*
X80500000Y-93875000D03*
X81000000Y-93875000D03*
X81500000Y-93875000D03*
X82000000Y-93875000D03*
X82500000Y-93875000D03*
X83000000Y-93875000D03*
X83500000Y-93875000D03*
X84000000Y-93875000D03*
X84500000Y-93875000D03*
X85000000Y-93875000D03*
X85500000Y-93875000D03*
%TD*%
D13*
%TO.C,C2*%
X70000000Y-101850000D03*
X70960000Y-101850000D03*
%TD*%
M02*
