%TF.GenerationSoftware,KiCad,Pcbnew,8.0.6*%
%TF.CreationDate,2025-01-28T20:51:37+01:00*%
%TF.ProjectId,Flight controller goated,466c6967-6874-4206-936f-6e74726f6c6c,rev?*%
%TF.SameCoordinates,Original*%
%TF.FileFunction,Legend,Bot*%
%TF.FilePolarity,Positive*%
%FSLAX46Y46*%
G04 Gerber Fmt 4.6, Leading zero omitted, Abs format (unit mm)*
G04 Created by KiCad (PCBNEW 8.0.6) date 2025-01-28 20:51:37*
%MOMM*%
%LPD*%
G01*
G04 APERTURE LIST*
%ADD10C,0.125000*%
%ADD11C,0.120000*%
%ADD12C,0.127000*%
%ADD13C,0.200000*%
%ADD14C,0.000000*%
%ADD15C,0.250000*%
%ADD16O,0.500000X1.150000*%
%ADD17O,0.850000X0.550000*%
G04 APERTURE END LIST*
D10*
X86379668Y-96911175D02*
X86379668Y-95911175D01*
X86379668Y-95911175D02*
X86046335Y-96625460D01*
X86046335Y-96625460D02*
X85713002Y-95911175D01*
X85713002Y-95911175D02*
X85713002Y-96911175D01*
X85046335Y-95911175D02*
X84855859Y-95911175D01*
X84855859Y-95911175D02*
X84760621Y-95958794D01*
X84760621Y-95958794D02*
X84665383Y-96054032D01*
X84665383Y-96054032D02*
X84617764Y-96244508D01*
X84617764Y-96244508D02*
X84617764Y-96577841D01*
X84617764Y-96577841D02*
X84665383Y-96768317D01*
X84665383Y-96768317D02*
X84760621Y-96863556D01*
X84760621Y-96863556D02*
X84855859Y-96911175D01*
X84855859Y-96911175D02*
X85046335Y-96911175D01*
X85046335Y-96911175D02*
X85141573Y-96863556D01*
X85141573Y-96863556D02*
X85236811Y-96768317D01*
X85236811Y-96768317D02*
X85284430Y-96577841D01*
X85284430Y-96577841D02*
X85284430Y-96244508D01*
X85284430Y-96244508D02*
X85236811Y-96054032D01*
X85236811Y-96054032D02*
X85141573Y-95958794D01*
X85141573Y-95958794D02*
X85046335Y-95911175D01*
X84189192Y-96911175D02*
X84189192Y-95911175D01*
X84189192Y-95911175D02*
X83808240Y-95911175D01*
X83808240Y-95911175D02*
X83713002Y-95958794D01*
X83713002Y-95958794D02*
X83665383Y-96006413D01*
X83665383Y-96006413D02*
X83617764Y-96101651D01*
X83617764Y-96101651D02*
X83617764Y-96244508D01*
X83617764Y-96244508D02*
X83665383Y-96339746D01*
X83665383Y-96339746D02*
X83713002Y-96387365D01*
X83713002Y-96387365D02*
X83808240Y-96434984D01*
X83808240Y-96434984D02*
X84189192Y-96434984D01*
X82427287Y-96911175D02*
X82427287Y-95911175D01*
X82427287Y-95911175D02*
X82093954Y-96625460D01*
X82093954Y-96625460D02*
X81760621Y-95911175D01*
X81760621Y-95911175D02*
X81760621Y-96911175D01*
X81093954Y-95911175D02*
X80903478Y-95911175D01*
X80903478Y-95911175D02*
X80808240Y-95958794D01*
X80808240Y-95958794D02*
X80713002Y-96054032D01*
X80713002Y-96054032D02*
X80665383Y-96244508D01*
X80665383Y-96244508D02*
X80665383Y-96577841D01*
X80665383Y-96577841D02*
X80713002Y-96768317D01*
X80713002Y-96768317D02*
X80808240Y-96863556D01*
X80808240Y-96863556D02*
X80903478Y-96911175D01*
X80903478Y-96911175D02*
X81093954Y-96911175D01*
X81093954Y-96911175D02*
X81189192Y-96863556D01*
X81189192Y-96863556D02*
X81284430Y-96768317D01*
X81284430Y-96768317D02*
X81332049Y-96577841D01*
X81332049Y-96577841D02*
X81332049Y-96244508D01*
X81332049Y-96244508D02*
X81284430Y-96054032D01*
X81284430Y-96054032D02*
X81189192Y-95958794D01*
X81189192Y-95958794D02*
X81093954Y-95911175D01*
X80236811Y-96911175D02*
X80236811Y-95911175D01*
X80236811Y-95911175D02*
X79855859Y-95911175D01*
X79855859Y-95911175D02*
X79760621Y-95958794D01*
X79760621Y-95958794D02*
X79713002Y-96006413D01*
X79713002Y-96006413D02*
X79665383Y-96101651D01*
X79665383Y-96101651D02*
X79665383Y-96244508D01*
X79665383Y-96244508D02*
X79713002Y-96339746D01*
X79713002Y-96339746D02*
X79760621Y-96387365D01*
X79760621Y-96387365D02*
X79855859Y-96434984D01*
X79855859Y-96434984D02*
X80236811Y-96434984D01*
X85855859Y-97568738D02*
X85951097Y-97521119D01*
X85951097Y-97521119D02*
X86093954Y-97521119D01*
X86093954Y-97521119D02*
X86236811Y-97568738D01*
X86236811Y-97568738D02*
X86332049Y-97663976D01*
X86332049Y-97663976D02*
X86379668Y-97759214D01*
X86379668Y-97759214D02*
X86427287Y-97949690D01*
X86427287Y-97949690D02*
X86427287Y-98092547D01*
X86427287Y-98092547D02*
X86379668Y-98283023D01*
X86379668Y-98283023D02*
X86332049Y-98378261D01*
X86332049Y-98378261D02*
X86236811Y-98473500D01*
X86236811Y-98473500D02*
X86093954Y-98521119D01*
X86093954Y-98521119D02*
X85998716Y-98521119D01*
X85998716Y-98521119D02*
X85855859Y-98473500D01*
X85855859Y-98473500D02*
X85808240Y-98425880D01*
X85808240Y-98425880D02*
X85808240Y-98092547D01*
X85808240Y-98092547D02*
X85998716Y-98092547D01*
X85427287Y-98235404D02*
X84951097Y-98235404D01*
X85522525Y-98521119D02*
X85189192Y-97521119D01*
X85189192Y-97521119D02*
X84855859Y-98521119D01*
X84570144Y-98473500D02*
X84427287Y-98521119D01*
X84427287Y-98521119D02*
X84189192Y-98521119D01*
X84189192Y-98521119D02*
X84093954Y-98473500D01*
X84093954Y-98473500D02*
X84046335Y-98425880D01*
X84046335Y-98425880D02*
X83998716Y-98330642D01*
X83998716Y-98330642D02*
X83998716Y-98235404D01*
X83998716Y-98235404D02*
X84046335Y-98140166D01*
X84046335Y-98140166D02*
X84093954Y-98092547D01*
X84093954Y-98092547D02*
X84189192Y-98044928D01*
X84189192Y-98044928D02*
X84379668Y-97997309D01*
X84379668Y-97997309D02*
X84474906Y-97949690D01*
X84474906Y-97949690D02*
X84522525Y-97902071D01*
X84522525Y-97902071D02*
X84570144Y-97806833D01*
X84570144Y-97806833D02*
X84570144Y-97711595D01*
X84570144Y-97711595D02*
X84522525Y-97616357D01*
X84522525Y-97616357D02*
X84474906Y-97568738D01*
X84474906Y-97568738D02*
X84379668Y-97521119D01*
X84379668Y-97521119D02*
X84141573Y-97521119D01*
X84141573Y-97521119D02*
X83998716Y-97568738D01*
X82808239Y-97997309D02*
X82474906Y-97997309D01*
X82332049Y-98521119D02*
X82808239Y-98521119D01*
X82808239Y-98521119D02*
X82808239Y-97521119D01*
X82808239Y-97521119D02*
X82332049Y-97521119D01*
X81332049Y-98521119D02*
X81665382Y-98044928D01*
X81903477Y-98521119D02*
X81903477Y-97521119D01*
X81903477Y-97521119D02*
X81522525Y-97521119D01*
X81522525Y-97521119D02*
X81427287Y-97568738D01*
X81427287Y-97568738D02*
X81379668Y-97616357D01*
X81379668Y-97616357D02*
X81332049Y-97711595D01*
X81332049Y-97711595D02*
X81332049Y-97854452D01*
X81332049Y-97854452D02*
X81379668Y-97949690D01*
X81379668Y-97949690D02*
X81427287Y-97997309D01*
X81427287Y-97997309D02*
X81522525Y-98044928D01*
X81522525Y-98044928D02*
X81903477Y-98044928D01*
X80713001Y-97521119D02*
X80522525Y-97521119D01*
X80522525Y-97521119D02*
X80427287Y-97568738D01*
X80427287Y-97568738D02*
X80332049Y-97663976D01*
X80332049Y-97663976D02*
X80284430Y-97854452D01*
X80284430Y-97854452D02*
X80284430Y-98187785D01*
X80284430Y-98187785D02*
X80332049Y-98378261D01*
X80332049Y-98378261D02*
X80427287Y-98473500D01*
X80427287Y-98473500D02*
X80522525Y-98521119D01*
X80522525Y-98521119D02*
X80713001Y-98521119D01*
X80713001Y-98521119D02*
X80808239Y-98473500D01*
X80808239Y-98473500D02*
X80903477Y-98378261D01*
X80903477Y-98378261D02*
X80951096Y-98187785D01*
X80951096Y-98187785D02*
X80951096Y-97854452D01*
X80951096Y-97854452D02*
X80903477Y-97663976D01*
X80903477Y-97663976D02*
X80808239Y-97568738D01*
X80808239Y-97568738D02*
X80713001Y-97521119D01*
X79665382Y-97521119D02*
X79474906Y-97521119D01*
X79474906Y-97521119D02*
X79379668Y-97568738D01*
X79379668Y-97568738D02*
X79284430Y-97663976D01*
X79284430Y-97663976D02*
X79236811Y-97854452D01*
X79236811Y-97854452D02*
X79236811Y-98187785D01*
X79236811Y-98187785D02*
X79284430Y-98378261D01*
X79284430Y-98378261D02*
X79379668Y-98473500D01*
X79379668Y-98473500D02*
X79474906Y-98521119D01*
X79474906Y-98521119D02*
X79665382Y-98521119D01*
X79665382Y-98521119D02*
X79760620Y-98473500D01*
X79760620Y-98473500D02*
X79855858Y-98378261D01*
X79855858Y-98378261D02*
X79903477Y-98187785D01*
X79903477Y-98187785D02*
X79903477Y-97854452D01*
X79903477Y-97854452D02*
X79855858Y-97663976D01*
X79855858Y-97663976D02*
X79760620Y-97568738D01*
X79760620Y-97568738D02*
X79665382Y-97521119D01*
X78617763Y-97521119D02*
X78427287Y-97521119D01*
X78427287Y-97521119D02*
X78332049Y-97568738D01*
X78332049Y-97568738D02*
X78236811Y-97663976D01*
X78236811Y-97663976D02*
X78189192Y-97854452D01*
X78189192Y-97854452D02*
X78189192Y-98187785D01*
X78189192Y-98187785D02*
X78236811Y-98378261D01*
X78236811Y-98378261D02*
X78332049Y-98473500D01*
X78332049Y-98473500D02*
X78427287Y-98521119D01*
X78427287Y-98521119D02*
X78617763Y-98521119D01*
X78617763Y-98521119D02*
X78713001Y-98473500D01*
X78713001Y-98473500D02*
X78808239Y-98378261D01*
X78808239Y-98378261D02*
X78855858Y-98187785D01*
X78855858Y-98187785D02*
X78855858Y-97854452D01*
X78855858Y-97854452D02*
X78808239Y-97663976D01*
X78808239Y-97663976D02*
X78713001Y-97568738D01*
X78713001Y-97568738D02*
X78617763Y-97521119D01*
X77760620Y-98521119D02*
X77760620Y-97521119D01*
X77760620Y-97521119D02*
X77379668Y-97521119D01*
X77379668Y-97521119D02*
X77284430Y-97568738D01*
X77284430Y-97568738D02*
X77236811Y-97616357D01*
X77236811Y-97616357D02*
X77189192Y-97711595D01*
X77189192Y-97711595D02*
X77189192Y-97854452D01*
X77189192Y-97854452D02*
X77236811Y-97949690D01*
X77236811Y-97949690D02*
X77284430Y-97997309D01*
X77284430Y-97997309D02*
X77379668Y-98044928D01*
X77379668Y-98044928D02*
X77760620Y-98044928D01*
X85572525Y-99351231D02*
X85001097Y-99351231D01*
X85286811Y-100351231D02*
X85286811Y-99351231D01*
X84667763Y-100351231D02*
X84667763Y-99351231D01*
X84239192Y-100351231D02*
X84239192Y-99827421D01*
X84239192Y-99827421D02*
X84286811Y-99732183D01*
X84286811Y-99732183D02*
X84382049Y-99684564D01*
X84382049Y-99684564D02*
X84524906Y-99684564D01*
X84524906Y-99684564D02*
X84620144Y-99732183D01*
X84620144Y-99732183D02*
X84667763Y-99779802D01*
X83620144Y-100351231D02*
X83715382Y-100303612D01*
X83715382Y-100303612D02*
X83763001Y-100255992D01*
X83763001Y-100255992D02*
X83810620Y-100160754D01*
X83810620Y-100160754D02*
X83810620Y-99875040D01*
X83810620Y-99875040D02*
X83763001Y-99779802D01*
X83763001Y-99779802D02*
X83715382Y-99732183D01*
X83715382Y-99732183D02*
X83620144Y-99684564D01*
X83620144Y-99684564D02*
X83477287Y-99684564D01*
X83477287Y-99684564D02*
X83382049Y-99732183D01*
X83382049Y-99732183D02*
X83334430Y-99779802D01*
X83334430Y-99779802D02*
X83286811Y-99875040D01*
X83286811Y-99875040D02*
X83286811Y-100160754D01*
X83286811Y-100160754D02*
X83334430Y-100255992D01*
X83334430Y-100255992D02*
X83382049Y-100303612D01*
X83382049Y-100303612D02*
X83477287Y-100351231D01*
X83477287Y-100351231D02*
X83620144Y-100351231D01*
X82858239Y-100351231D02*
X82858239Y-99684564D01*
X82858239Y-99875040D02*
X82810620Y-99779802D01*
X82810620Y-99779802D02*
X82763001Y-99732183D01*
X82763001Y-99732183D02*
X82667763Y-99684564D01*
X82667763Y-99684564D02*
X82572525Y-99684564D01*
X82239191Y-100351231D02*
X82239191Y-99684564D01*
X82239191Y-99875040D02*
X82191572Y-99779802D01*
X82191572Y-99779802D02*
X82143953Y-99732183D01*
X82143953Y-99732183D02*
X82048715Y-99684564D01*
X82048715Y-99684564D02*
X81953477Y-99684564D01*
X81286810Y-99827421D02*
X81620143Y-99827421D01*
X81620143Y-100351231D02*
X81620143Y-99351231D01*
X81620143Y-99351231D02*
X81143953Y-99351231D01*
X80763000Y-100351231D02*
X80763000Y-99351231D01*
X80763000Y-99351231D02*
X80382048Y-99351231D01*
X80382048Y-99351231D02*
X80286810Y-99398850D01*
X80286810Y-99398850D02*
X80239191Y-99446469D01*
X80239191Y-99446469D02*
X80191572Y-99541707D01*
X80191572Y-99541707D02*
X80191572Y-99684564D01*
X80191572Y-99684564D02*
X80239191Y-99779802D01*
X80239191Y-99779802D02*
X80286810Y-99827421D01*
X80286810Y-99827421D02*
X80382048Y-99875040D01*
X80382048Y-99875040D02*
X80763000Y-99875040D01*
X79905857Y-99351231D02*
X79572524Y-100351231D01*
X79572524Y-100351231D02*
X79239191Y-99351231D01*
X78143952Y-100351231D02*
X78143952Y-99684564D01*
X78143952Y-99351231D02*
X78191571Y-99398850D01*
X78191571Y-99398850D02*
X78143952Y-99446469D01*
X78143952Y-99446469D02*
X78096333Y-99398850D01*
X78096333Y-99398850D02*
X78143952Y-99351231D01*
X78143952Y-99351231D02*
X78143952Y-99446469D01*
X77715381Y-100303612D02*
X77620143Y-100351231D01*
X77620143Y-100351231D02*
X77429667Y-100351231D01*
X77429667Y-100351231D02*
X77334429Y-100303612D01*
X77334429Y-100303612D02*
X77286810Y-100208373D01*
X77286810Y-100208373D02*
X77286810Y-100160754D01*
X77286810Y-100160754D02*
X77334429Y-100065516D01*
X77334429Y-100065516D02*
X77429667Y-100017897D01*
X77429667Y-100017897D02*
X77572524Y-100017897D01*
X77572524Y-100017897D02*
X77667762Y-99970278D01*
X77667762Y-99970278D02*
X77715381Y-99875040D01*
X77715381Y-99875040D02*
X77715381Y-99827421D01*
X77715381Y-99827421D02*
X77667762Y-99732183D01*
X77667762Y-99732183D02*
X77572524Y-99684564D01*
X77572524Y-99684564D02*
X77429667Y-99684564D01*
X77429667Y-99684564D02*
X77334429Y-99732183D01*
X85572525Y-101294508D02*
X85191573Y-101294508D01*
X85429668Y-101961175D02*
X85429668Y-101104032D01*
X85429668Y-101104032D02*
X85382049Y-101008794D01*
X85382049Y-101008794D02*
X85286811Y-100961175D01*
X85286811Y-100961175D02*
X85191573Y-100961175D01*
X84429668Y-101961175D02*
X84429668Y-101437365D01*
X84429668Y-101437365D02*
X84477287Y-101342127D01*
X84477287Y-101342127D02*
X84572525Y-101294508D01*
X84572525Y-101294508D02*
X84763001Y-101294508D01*
X84763001Y-101294508D02*
X84858239Y-101342127D01*
X84429668Y-101913556D02*
X84524906Y-101961175D01*
X84524906Y-101961175D02*
X84763001Y-101961175D01*
X84763001Y-101961175D02*
X84858239Y-101913556D01*
X84858239Y-101913556D02*
X84905858Y-101818317D01*
X84905858Y-101818317D02*
X84905858Y-101723079D01*
X84905858Y-101723079D02*
X84858239Y-101627841D01*
X84858239Y-101627841D02*
X84763001Y-101580222D01*
X84763001Y-101580222D02*
X84524906Y-101580222D01*
X84524906Y-101580222D02*
X84429668Y-101532603D01*
X84001096Y-101913556D02*
X83905858Y-101961175D01*
X83905858Y-101961175D02*
X83715382Y-101961175D01*
X83715382Y-101961175D02*
X83620144Y-101913556D01*
X83620144Y-101913556D02*
X83572525Y-101818317D01*
X83572525Y-101818317D02*
X83572525Y-101770698D01*
X83572525Y-101770698D02*
X83620144Y-101675460D01*
X83620144Y-101675460D02*
X83715382Y-101627841D01*
X83715382Y-101627841D02*
X83858239Y-101627841D01*
X83858239Y-101627841D02*
X83953477Y-101580222D01*
X83953477Y-101580222D02*
X84001096Y-101484984D01*
X84001096Y-101484984D02*
X84001096Y-101437365D01*
X84001096Y-101437365D02*
X83953477Y-101342127D01*
X83953477Y-101342127D02*
X83858239Y-101294508D01*
X83858239Y-101294508D02*
X83715382Y-101294508D01*
X83715382Y-101294508D02*
X83620144Y-101342127D01*
X83286810Y-101294508D02*
X82905858Y-101294508D01*
X83143953Y-100961175D02*
X83143953Y-101818317D01*
X83143953Y-101818317D02*
X83096334Y-101913556D01*
X83096334Y-101913556D02*
X83001096Y-101961175D01*
X83001096Y-101961175D02*
X82905858Y-101961175D01*
X82191572Y-101913556D02*
X82286810Y-101961175D01*
X82286810Y-101961175D02*
X82477286Y-101961175D01*
X82477286Y-101961175D02*
X82572524Y-101913556D01*
X82572524Y-101913556D02*
X82620143Y-101818317D01*
X82620143Y-101818317D02*
X82620143Y-101437365D01*
X82620143Y-101437365D02*
X82572524Y-101342127D01*
X82572524Y-101342127D02*
X82477286Y-101294508D01*
X82477286Y-101294508D02*
X82286810Y-101294508D01*
X82286810Y-101294508D02*
X82191572Y-101342127D01*
X82191572Y-101342127D02*
X82143953Y-101437365D01*
X82143953Y-101437365D02*
X82143953Y-101532603D01*
X82143953Y-101532603D02*
X82620143Y-101627841D01*
X81715381Y-101961175D02*
X81715381Y-101294508D01*
X81715381Y-101484984D02*
X81667762Y-101389746D01*
X81667762Y-101389746D02*
X81620143Y-101342127D01*
X81620143Y-101342127D02*
X81524905Y-101294508D01*
X81524905Y-101294508D02*
X81429667Y-101294508D01*
X80477285Y-101294508D02*
X80096333Y-101294508D01*
X80334428Y-100961175D02*
X80334428Y-101818317D01*
X80334428Y-101818317D02*
X80286809Y-101913556D01*
X80286809Y-101913556D02*
X80191571Y-101961175D01*
X80191571Y-101961175D02*
X80096333Y-101961175D01*
X79762999Y-101961175D02*
X79762999Y-100961175D01*
X79334428Y-101961175D02*
X79334428Y-101437365D01*
X79334428Y-101437365D02*
X79382047Y-101342127D01*
X79382047Y-101342127D02*
X79477285Y-101294508D01*
X79477285Y-101294508D02*
X79620142Y-101294508D01*
X79620142Y-101294508D02*
X79715380Y-101342127D01*
X79715380Y-101342127D02*
X79762999Y-101389746D01*
X78429666Y-101961175D02*
X78429666Y-101437365D01*
X78429666Y-101437365D02*
X78477285Y-101342127D01*
X78477285Y-101342127D02*
X78572523Y-101294508D01*
X78572523Y-101294508D02*
X78762999Y-101294508D01*
X78762999Y-101294508D02*
X78858237Y-101342127D01*
X78429666Y-101913556D02*
X78524904Y-101961175D01*
X78524904Y-101961175D02*
X78762999Y-101961175D01*
X78762999Y-101961175D02*
X78858237Y-101913556D01*
X78858237Y-101913556D02*
X78905856Y-101818317D01*
X78905856Y-101818317D02*
X78905856Y-101723079D01*
X78905856Y-101723079D02*
X78858237Y-101627841D01*
X78858237Y-101627841D02*
X78762999Y-101580222D01*
X78762999Y-101580222D02*
X78524904Y-101580222D01*
X78524904Y-101580222D02*
X78429666Y-101532603D01*
X77953475Y-101294508D02*
X77953475Y-101961175D01*
X77953475Y-101389746D02*
X77905856Y-101342127D01*
X77905856Y-101342127D02*
X77810618Y-101294508D01*
X77810618Y-101294508D02*
X77667761Y-101294508D01*
X77667761Y-101294508D02*
X77572523Y-101342127D01*
X77572523Y-101342127D02*
X77524904Y-101437365D01*
X77524904Y-101437365D02*
X77524904Y-101961175D01*
X85429668Y-103571119D02*
X85429668Y-102571119D01*
X85429668Y-102571119D02*
X85191573Y-102571119D01*
X85191573Y-102571119D02*
X85048716Y-102618738D01*
X85048716Y-102618738D02*
X84953478Y-102713976D01*
X84953478Y-102713976D02*
X84905859Y-102809214D01*
X84905859Y-102809214D02*
X84858240Y-102999690D01*
X84858240Y-102999690D02*
X84858240Y-103142547D01*
X84858240Y-103142547D02*
X84905859Y-103333023D01*
X84905859Y-103333023D02*
X84953478Y-103428261D01*
X84953478Y-103428261D02*
X85048716Y-103523500D01*
X85048716Y-103523500D02*
X85191573Y-103571119D01*
X85191573Y-103571119D02*
X85429668Y-103571119D01*
X84429668Y-103571119D02*
X84429668Y-102904452D01*
X84429668Y-103094928D02*
X84382049Y-102999690D01*
X84382049Y-102999690D02*
X84334430Y-102952071D01*
X84334430Y-102952071D02*
X84239192Y-102904452D01*
X84239192Y-102904452D02*
X84143954Y-102904452D01*
X83667763Y-103571119D02*
X83763001Y-103523500D01*
X83763001Y-103523500D02*
X83810620Y-103475880D01*
X83810620Y-103475880D02*
X83858239Y-103380642D01*
X83858239Y-103380642D02*
X83858239Y-103094928D01*
X83858239Y-103094928D02*
X83810620Y-102999690D01*
X83810620Y-102999690D02*
X83763001Y-102952071D01*
X83763001Y-102952071D02*
X83667763Y-102904452D01*
X83667763Y-102904452D02*
X83524906Y-102904452D01*
X83524906Y-102904452D02*
X83429668Y-102952071D01*
X83429668Y-102952071D02*
X83382049Y-102999690D01*
X83382049Y-102999690D02*
X83334430Y-103094928D01*
X83334430Y-103094928D02*
X83334430Y-103380642D01*
X83334430Y-103380642D02*
X83382049Y-103475880D01*
X83382049Y-103475880D02*
X83429668Y-103523500D01*
X83429668Y-103523500D02*
X83524906Y-103571119D01*
X83524906Y-103571119D02*
X83667763Y-103571119D01*
X82905858Y-102904452D02*
X82905858Y-103571119D01*
X82905858Y-102999690D02*
X82858239Y-102952071D01*
X82858239Y-102952071D02*
X82763001Y-102904452D01*
X82763001Y-102904452D02*
X82620144Y-102904452D01*
X82620144Y-102904452D02*
X82524906Y-102952071D01*
X82524906Y-102952071D02*
X82477287Y-103047309D01*
X82477287Y-103047309D02*
X82477287Y-103571119D01*
X82001096Y-103571119D02*
X82001096Y-102904452D01*
X82001096Y-102571119D02*
X82048715Y-102618738D01*
X82048715Y-102618738D02*
X82001096Y-102666357D01*
X82001096Y-102666357D02*
X81953477Y-102618738D01*
X81953477Y-102618738D02*
X82001096Y-102571119D01*
X82001096Y-102571119D02*
X82001096Y-102666357D01*
X81096335Y-103523500D02*
X81191573Y-103571119D01*
X81191573Y-103571119D02*
X81382049Y-103571119D01*
X81382049Y-103571119D02*
X81477287Y-103523500D01*
X81477287Y-103523500D02*
X81524906Y-103475880D01*
X81524906Y-103475880D02*
X81572525Y-103380642D01*
X81572525Y-103380642D02*
X81572525Y-103094928D01*
X81572525Y-103094928D02*
X81524906Y-102999690D01*
X81524906Y-102999690D02*
X81477287Y-102952071D01*
X81477287Y-102952071D02*
X81382049Y-102904452D01*
X81382049Y-102904452D02*
X81191573Y-102904452D01*
X81191573Y-102904452D02*
X81096335Y-102952071D01*
X88805859Y-107618738D02*
X88901097Y-107571119D01*
X88901097Y-107571119D02*
X89043954Y-107571119D01*
X89043954Y-107571119D02*
X89186811Y-107618738D01*
X89186811Y-107618738D02*
X89282049Y-107713976D01*
X89282049Y-107713976D02*
X89329668Y-107809214D01*
X89329668Y-107809214D02*
X89377287Y-107999690D01*
X89377287Y-107999690D02*
X89377287Y-108142547D01*
X89377287Y-108142547D02*
X89329668Y-108333023D01*
X89329668Y-108333023D02*
X89282049Y-108428261D01*
X89282049Y-108428261D02*
X89186811Y-108523500D01*
X89186811Y-108523500D02*
X89043954Y-108571119D01*
X89043954Y-108571119D02*
X88948716Y-108571119D01*
X88948716Y-108571119D02*
X88805859Y-108523500D01*
X88805859Y-108523500D02*
X88758240Y-108475880D01*
X88758240Y-108475880D02*
X88758240Y-108142547D01*
X88758240Y-108142547D02*
X88948716Y-108142547D01*
X88186811Y-108571119D02*
X88282049Y-108523500D01*
X88282049Y-108523500D02*
X88329668Y-108475880D01*
X88329668Y-108475880D02*
X88377287Y-108380642D01*
X88377287Y-108380642D02*
X88377287Y-108094928D01*
X88377287Y-108094928D02*
X88329668Y-107999690D01*
X88329668Y-107999690D02*
X88282049Y-107952071D01*
X88282049Y-107952071D02*
X88186811Y-107904452D01*
X88186811Y-107904452D02*
X88043954Y-107904452D01*
X88043954Y-107904452D02*
X87948716Y-107952071D01*
X87948716Y-107952071D02*
X87901097Y-107999690D01*
X87901097Y-107999690D02*
X87853478Y-108094928D01*
X87853478Y-108094928D02*
X87853478Y-108380642D01*
X87853478Y-108380642D02*
X87901097Y-108475880D01*
X87901097Y-108475880D02*
X87948716Y-108523500D01*
X87948716Y-108523500D02*
X88043954Y-108571119D01*
X88043954Y-108571119D02*
X88186811Y-108571119D01*
X86996335Y-108571119D02*
X86996335Y-108047309D01*
X86996335Y-108047309D02*
X87043954Y-107952071D01*
X87043954Y-107952071D02*
X87139192Y-107904452D01*
X87139192Y-107904452D02*
X87329668Y-107904452D01*
X87329668Y-107904452D02*
X87424906Y-107952071D01*
X86996335Y-108523500D02*
X87091573Y-108571119D01*
X87091573Y-108571119D02*
X87329668Y-108571119D01*
X87329668Y-108571119D02*
X87424906Y-108523500D01*
X87424906Y-108523500D02*
X87472525Y-108428261D01*
X87472525Y-108428261D02*
X87472525Y-108333023D01*
X87472525Y-108333023D02*
X87424906Y-108237785D01*
X87424906Y-108237785D02*
X87329668Y-108190166D01*
X87329668Y-108190166D02*
X87091573Y-108190166D01*
X87091573Y-108190166D02*
X86996335Y-108142547D01*
X86663001Y-107904452D02*
X86282049Y-107904452D01*
X86520144Y-107571119D02*
X86520144Y-108428261D01*
X86520144Y-108428261D02*
X86472525Y-108523500D01*
X86472525Y-108523500D02*
X86377287Y-108571119D01*
X86377287Y-108571119D02*
X86282049Y-108571119D01*
X85615382Y-108047309D02*
X85948715Y-108047309D01*
X85948715Y-108571119D02*
X85948715Y-107571119D01*
X85948715Y-107571119D02*
X85472525Y-107571119D01*
X84520144Y-108475880D02*
X84567763Y-108523500D01*
X84567763Y-108523500D02*
X84710620Y-108571119D01*
X84710620Y-108571119D02*
X84805858Y-108571119D01*
X84805858Y-108571119D02*
X84948715Y-108523500D01*
X84948715Y-108523500D02*
X85043953Y-108428261D01*
X85043953Y-108428261D02*
X85091572Y-108333023D01*
X85091572Y-108333023D02*
X85139191Y-108142547D01*
X85139191Y-108142547D02*
X85139191Y-107999690D01*
X85139191Y-107999690D02*
X85091572Y-107809214D01*
X85091572Y-107809214D02*
X85043953Y-107713976D01*
X85043953Y-107713976D02*
X84948715Y-107618738D01*
X84948715Y-107618738D02*
X84805858Y-107571119D01*
X84805858Y-107571119D02*
X84710620Y-107571119D01*
X84710620Y-107571119D02*
X84567763Y-107618738D01*
X84567763Y-107618738D02*
X84520144Y-107666357D01*
X89422525Y-109021119D02*
X88851097Y-109021119D01*
X89136811Y-110021119D02*
X89136811Y-109021119D01*
X88517763Y-110021119D02*
X88517763Y-109021119D01*
X88089192Y-110021119D02*
X88089192Y-109497309D01*
X88089192Y-109497309D02*
X88136811Y-109402071D01*
X88136811Y-109402071D02*
X88232049Y-109354452D01*
X88232049Y-109354452D02*
X88374906Y-109354452D01*
X88374906Y-109354452D02*
X88470144Y-109402071D01*
X88470144Y-109402071D02*
X88517763Y-109449690D01*
X87470144Y-110021119D02*
X87565382Y-109973500D01*
X87565382Y-109973500D02*
X87613001Y-109925880D01*
X87613001Y-109925880D02*
X87660620Y-109830642D01*
X87660620Y-109830642D02*
X87660620Y-109544928D01*
X87660620Y-109544928D02*
X87613001Y-109449690D01*
X87613001Y-109449690D02*
X87565382Y-109402071D01*
X87565382Y-109402071D02*
X87470144Y-109354452D01*
X87470144Y-109354452D02*
X87327287Y-109354452D01*
X87327287Y-109354452D02*
X87232049Y-109402071D01*
X87232049Y-109402071D02*
X87184430Y-109449690D01*
X87184430Y-109449690D02*
X87136811Y-109544928D01*
X87136811Y-109544928D02*
X87136811Y-109830642D01*
X87136811Y-109830642D02*
X87184430Y-109925880D01*
X87184430Y-109925880D02*
X87232049Y-109973500D01*
X87232049Y-109973500D02*
X87327287Y-110021119D01*
X87327287Y-110021119D02*
X87470144Y-110021119D01*
X86708239Y-110021119D02*
X86708239Y-109354452D01*
X86708239Y-109544928D02*
X86660620Y-109449690D01*
X86660620Y-109449690D02*
X86613001Y-109402071D01*
X86613001Y-109402071D02*
X86517763Y-109354452D01*
X86517763Y-109354452D02*
X86422525Y-109354452D01*
X86089191Y-110021119D02*
X86089191Y-109354452D01*
X86089191Y-109544928D02*
X86041572Y-109449690D01*
X86041572Y-109449690D02*
X85993953Y-109402071D01*
X85993953Y-109402071D02*
X85898715Y-109354452D01*
X85898715Y-109354452D02*
X85803477Y-109354452D01*
X85136810Y-109497309D02*
X85470143Y-109497309D01*
X85470143Y-110021119D02*
X85470143Y-109021119D01*
X85470143Y-109021119D02*
X84993953Y-109021119D01*
X84613000Y-110021119D02*
X84613000Y-109021119D01*
X84613000Y-109021119D02*
X84232048Y-109021119D01*
X84232048Y-109021119D02*
X84136810Y-109068738D01*
X84136810Y-109068738D02*
X84089191Y-109116357D01*
X84089191Y-109116357D02*
X84041572Y-109211595D01*
X84041572Y-109211595D02*
X84041572Y-109354452D01*
X84041572Y-109354452D02*
X84089191Y-109449690D01*
X84089191Y-109449690D02*
X84136810Y-109497309D01*
X84136810Y-109497309D02*
X84232048Y-109544928D01*
X84232048Y-109544928D02*
X84613000Y-109544928D01*
X83755857Y-109021119D02*
X83422524Y-110021119D01*
X83422524Y-110021119D02*
X83089191Y-109021119D01*
X81184428Y-110021119D02*
X81232048Y-110021119D01*
X81232048Y-110021119D02*
X81327286Y-109973500D01*
X81327286Y-109973500D02*
X81470143Y-109830642D01*
X81470143Y-109830642D02*
X81708238Y-109544928D01*
X81708238Y-109544928D02*
X81803476Y-109402071D01*
X81803476Y-109402071D02*
X81851095Y-109259214D01*
X81851095Y-109259214D02*
X81851095Y-109163976D01*
X81851095Y-109163976D02*
X81803476Y-109068738D01*
X81803476Y-109068738D02*
X81708238Y-109021119D01*
X81708238Y-109021119D02*
X81660619Y-109021119D01*
X81660619Y-109021119D02*
X81565381Y-109068738D01*
X81565381Y-109068738D02*
X81517762Y-109163976D01*
X81517762Y-109163976D02*
X81517762Y-109211595D01*
X81517762Y-109211595D02*
X81565381Y-109306833D01*
X81565381Y-109306833D02*
X81613000Y-109354452D01*
X81613000Y-109354452D02*
X81898714Y-109544928D01*
X81898714Y-109544928D02*
X81946333Y-109592547D01*
X81946333Y-109592547D02*
X81993952Y-109687785D01*
X81993952Y-109687785D02*
X81993952Y-109830642D01*
X81993952Y-109830642D02*
X81946333Y-109925880D01*
X81946333Y-109925880D02*
X81898714Y-109973500D01*
X81898714Y-109973500D02*
X81803476Y-110021119D01*
X81803476Y-110021119D02*
X81660619Y-110021119D01*
X81660619Y-110021119D02*
X81565381Y-109973500D01*
X81565381Y-109973500D02*
X81517762Y-109925880D01*
X81517762Y-109925880D02*
X81374905Y-109735404D01*
X81374905Y-109735404D02*
X81327286Y-109592547D01*
X81327286Y-109592547D02*
X81327286Y-109497309D01*
X79993952Y-110021119D02*
X79993952Y-109021119D01*
X79993952Y-109021119D02*
X79755857Y-109021119D01*
X79755857Y-109021119D02*
X79613000Y-109068738D01*
X79613000Y-109068738D02*
X79517762Y-109163976D01*
X79517762Y-109163976D02*
X79470143Y-109259214D01*
X79470143Y-109259214D02*
X79422524Y-109449690D01*
X79422524Y-109449690D02*
X79422524Y-109592547D01*
X79422524Y-109592547D02*
X79470143Y-109783023D01*
X79470143Y-109783023D02*
X79517762Y-109878261D01*
X79517762Y-109878261D02*
X79613000Y-109973500D01*
X79613000Y-109973500D02*
X79755857Y-110021119D01*
X79755857Y-110021119D02*
X79993952Y-110021119D01*
X78993952Y-110021119D02*
X78993952Y-109354452D01*
X78993952Y-109544928D02*
X78946333Y-109449690D01*
X78946333Y-109449690D02*
X78898714Y-109402071D01*
X78898714Y-109402071D02*
X78803476Y-109354452D01*
X78803476Y-109354452D02*
X78708238Y-109354452D01*
X78232047Y-110021119D02*
X78327285Y-109973500D01*
X78327285Y-109973500D02*
X78374904Y-109925880D01*
X78374904Y-109925880D02*
X78422523Y-109830642D01*
X78422523Y-109830642D02*
X78422523Y-109544928D01*
X78422523Y-109544928D02*
X78374904Y-109449690D01*
X78374904Y-109449690D02*
X78327285Y-109402071D01*
X78327285Y-109402071D02*
X78232047Y-109354452D01*
X78232047Y-109354452D02*
X78089190Y-109354452D01*
X78089190Y-109354452D02*
X77993952Y-109402071D01*
X77993952Y-109402071D02*
X77946333Y-109449690D01*
X77946333Y-109449690D02*
X77898714Y-109544928D01*
X77898714Y-109544928D02*
X77898714Y-109830642D01*
X77898714Y-109830642D02*
X77946333Y-109925880D01*
X77946333Y-109925880D02*
X77993952Y-109973500D01*
X77993952Y-109973500D02*
X78089190Y-110021119D01*
X78089190Y-110021119D02*
X78232047Y-110021119D01*
X77470142Y-109354452D02*
X77470142Y-110021119D01*
X77470142Y-109449690D02*
X77422523Y-109402071D01*
X77422523Y-109402071D02*
X77327285Y-109354452D01*
X77327285Y-109354452D02*
X77184428Y-109354452D01*
X77184428Y-109354452D02*
X77089190Y-109402071D01*
X77089190Y-109402071D02*
X77041571Y-109497309D01*
X77041571Y-109497309D02*
X77041571Y-110021119D01*
X76565380Y-110021119D02*
X76565380Y-109354452D01*
X76565380Y-109021119D02*
X76612999Y-109068738D01*
X76612999Y-109068738D02*
X76565380Y-109116357D01*
X76565380Y-109116357D02*
X76517761Y-109068738D01*
X76517761Y-109068738D02*
X76565380Y-109021119D01*
X76565380Y-109021119D02*
X76565380Y-109116357D01*
X75660619Y-109973500D02*
X75755857Y-110021119D01*
X75755857Y-110021119D02*
X75946333Y-110021119D01*
X75946333Y-110021119D02*
X76041571Y-109973500D01*
X76041571Y-109973500D02*
X76089190Y-109925880D01*
X76089190Y-109925880D02*
X76136809Y-109830642D01*
X76136809Y-109830642D02*
X76136809Y-109544928D01*
X76136809Y-109544928D02*
X76089190Y-109449690D01*
X76089190Y-109449690D02*
X76041571Y-109402071D01*
X76041571Y-109402071D02*
X75946333Y-109354452D01*
X75946333Y-109354452D02*
X75755857Y-109354452D01*
X75755857Y-109354452D02*
X75660619Y-109402071D01*
D11*
%TO.C,R2*%
X72070000Y-105653641D02*
X72070000Y-105346359D01*
X72830000Y-105653641D02*
X72830000Y-105346359D01*
%TO.C,C5*%
X73159420Y-101690000D02*
X73440580Y-101690000D01*
X73159420Y-102710000D02*
X73440580Y-102710000D01*
%TO.C,C3*%
X73159420Y-103240000D02*
X73440580Y-103240000D01*
X73159420Y-104260000D02*
X73440580Y-104260000D01*
%TO.C,C24*%
X89840000Y-101657836D02*
X89840000Y-101442164D01*
X90560000Y-101657836D02*
X90560000Y-101442164D01*
%TO.C,C6*%
X74357836Y-106340000D02*
X74142164Y-106340000D01*
X74357836Y-107060000D02*
X74142164Y-107060000D01*
%TO.C,C1*%
X71436252Y-107140000D02*
X70013748Y-107140000D01*
X71436252Y-108960000D02*
X70013748Y-108960000D01*
%TO.C,C11*%
X91427500Y-107401248D02*
X91427500Y-108823752D01*
X93247500Y-107401248D02*
X93247500Y-108823752D01*
%TO.C,U6*%
X68415000Y-103750000D02*
X68415000Y-104550000D01*
X68415000Y-105350000D02*
X68415000Y-104550000D01*
X71535000Y-103750000D02*
X71535000Y-104550000D01*
X71535000Y-105350000D02*
X71535000Y-104550000D01*
X71815000Y-106090000D02*
X71485000Y-105850000D01*
X71815000Y-105610000D01*
X71815000Y-106090000D01*
G36*
X71815000Y-106090000D02*
G01*
X71485000Y-105850000D01*
X71815000Y-105610000D01*
X71815000Y-106090000D01*
G37*
%TO.C,TP3*%
X78700000Y-91650000D02*
G75*
G02*
X77300000Y-91650000I-700000J0D01*
G01*
X77300000Y-91650000D02*
G75*
G02*
X78700000Y-91650000I700000J0D01*
G01*
%TO.C,R13*%
X94950242Y-109190000D02*
X95424758Y-109190000D01*
X94950242Y-110235000D02*
X95424758Y-110235000D01*
%TO.C,C19*%
X87557836Y-92190000D02*
X87342164Y-92190000D01*
X87557836Y-92910000D02*
X87342164Y-92910000D01*
%TO.C,C26*%
X92227500Y-104253080D02*
X92227500Y-103971920D01*
X93247500Y-104253080D02*
X93247500Y-103971920D01*
%TO.C,C16*%
X94579664Y-108102500D02*
X94795336Y-108102500D01*
X94579664Y-108822500D02*
X94795336Y-108822500D01*
%TO.C,C23*%
X88680000Y-101657836D02*
X88680000Y-101442164D01*
X89400000Y-101657836D02*
X89400000Y-101442164D01*
%TO.C,R14*%
X87603641Y-91070000D02*
X87296359Y-91070000D01*
X87603641Y-91830000D02*
X87296359Y-91830000D01*
%TO.C,TP2*%
X89750000Y-114450000D02*
G75*
G02*
X88350000Y-114450000I-700000J0D01*
G01*
X88350000Y-114450000D02*
G75*
G02*
X89750000Y-114450000I700000J0D01*
G01*
D12*
%TO.C,Y1*%
X89150000Y-96430000D02*
X90450000Y-96430000D01*
X89150000Y-99870000D02*
X90450000Y-99870000D01*
D13*
X89900000Y-100370000D02*
G75*
G02*
X89700000Y-100370000I-100000J0D01*
G01*
X89700000Y-100370000D02*
G75*
G02*
X89900000Y-100370000I100000J0D01*
G01*
D14*
%TO.C,G\u002A\u002A\u002A*%
G36*
X88114225Y-110785464D02*
G01*
X88146903Y-110798967D01*
X88188519Y-110821971D01*
X88235149Y-110852362D01*
X88282871Y-110888022D01*
X88287522Y-110891716D01*
X88326387Y-110920701D01*
X88362476Y-110944756D01*
X88388511Y-110958992D01*
X88423696Y-110973566D01*
X88357832Y-111038783D01*
X88349019Y-111047369D01*
X88316807Y-111076451D01*
X88290187Y-111097128D01*
X88274206Y-111105378D01*
X88272585Y-111105430D01*
X88249441Y-111095740D01*
X88223080Y-111070731D01*
X88198190Y-111035798D01*
X88179461Y-110996338D01*
X88165500Y-110961819D01*
X88145035Y-110917059D01*
X88122499Y-110871753D01*
X88118576Y-110864095D01*
X88101782Y-110827241D01*
X88092274Y-110799049D01*
X88092009Y-110785078D01*
X88094405Y-110783578D01*
X88114225Y-110785464D01*
G37*
G36*
X89179035Y-111097216D02*
G01*
X89231268Y-111116166D01*
X89280611Y-111153355D01*
X89324175Y-111205604D01*
X89359071Y-111269736D01*
X89382410Y-111342573D01*
X89384849Y-111356174D01*
X89383946Y-111376067D01*
X89374707Y-111377099D01*
X89359018Y-111360006D01*
X89338767Y-111325526D01*
X89316732Y-111287855D01*
X89266096Y-111230433D01*
X89204347Y-111192594D01*
X89159367Y-111178648D01*
X89108067Y-111178317D01*
X89052507Y-111196495D01*
X89013089Y-111219804D01*
X88971890Y-111262641D01*
X88937899Y-111323795D01*
X88936273Y-111327423D01*
X88919878Y-111357073D01*
X88907999Y-111366779D01*
X88902533Y-111356419D01*
X88905378Y-111325872D01*
X88910472Y-111304129D01*
X88938342Y-111238847D01*
X88980998Y-111181696D01*
X89034450Y-111136320D01*
X89094708Y-111106359D01*
X89157783Y-111095455D01*
X89179035Y-111097216D01*
G37*
G36*
X90277795Y-111093211D02*
G01*
X90274034Y-111107473D01*
X90251282Y-111133966D01*
X90248285Y-111137166D01*
X90225633Y-111167324D01*
X90199924Y-111209109D01*
X90176160Y-111254497D01*
X90158360Y-111289698D01*
X90114079Y-111357929D01*
X90062913Y-111408864D01*
X90001239Y-111444894D01*
X89925435Y-111468409D01*
X89831879Y-111481802D01*
X89816612Y-111483104D01*
X89738998Y-111487975D01*
X89681689Y-111488192D01*
X89645337Y-111483778D01*
X89630594Y-111474756D01*
X89631453Y-111470534D01*
X89648275Y-111462326D01*
X89682837Y-111456617D01*
X89735540Y-111446658D01*
X89789682Y-111425422D01*
X89847495Y-111391138D01*
X89912101Y-111341948D01*
X89986622Y-111275997D01*
X90046299Y-111221823D01*
X90105706Y-111172062D01*
X90155738Y-111135858D01*
X90199274Y-111111159D01*
X90239193Y-111095912D01*
X90262409Y-111090685D01*
X90277795Y-111093211D01*
G37*
G36*
X88049253Y-112047164D02*
G01*
X88082174Y-112064117D01*
X88100567Y-112077924D01*
X88118389Y-112101716D01*
X88125186Y-112135479D01*
X88126673Y-112151234D01*
X88132259Y-112179671D01*
X88143313Y-112193661D01*
X88163253Y-112193754D01*
X88195498Y-112180496D01*
X88243467Y-112154437D01*
X88304372Y-112124075D01*
X88383773Y-112099132D01*
X88455079Y-112095373D01*
X88518237Y-112112804D01*
X88533392Y-112120479D01*
X88553460Y-112134848D01*
X88553547Y-112145459D01*
X88532999Y-112152636D01*
X88491163Y-112156703D01*
X88427384Y-112157987D01*
X88399063Y-112158036D01*
X88352225Y-112158908D01*
X88319116Y-112161830D01*
X88293602Y-112168021D01*
X88269550Y-112178700D01*
X88240827Y-112195088D01*
X88209794Y-112212319D01*
X88170303Y-112227577D01*
X88141925Y-112226268D01*
X88121319Y-112207814D01*
X88105146Y-112171639D01*
X88095262Y-112146064D01*
X88074697Y-112115325D01*
X88042833Y-112092086D01*
X88030451Y-112084577D01*
X88008204Y-112067663D01*
X87999981Y-112055705D01*
X88003244Y-112047929D01*
X88021068Y-112041576D01*
X88049253Y-112047164D01*
G37*
G36*
X88556805Y-111578866D02*
G01*
X88546080Y-111675204D01*
X88540439Y-111712926D01*
X88538556Y-111743149D01*
X88542288Y-111764020D01*
X88552024Y-111782516D01*
X88556558Y-111789767D01*
X88563959Y-111807755D01*
X88556378Y-111809230D01*
X88535193Y-111793308D01*
X88528961Y-111788147D01*
X88484963Y-111767786D01*
X88429278Y-111762423D01*
X88367006Y-111772685D01*
X88330038Y-111781905D01*
X88307890Y-111783254D01*
X88297215Y-111776567D01*
X88295244Y-111771275D01*
X88290407Y-111745969D01*
X88285487Y-111706652D01*
X88281291Y-111659275D01*
X88279312Y-111595484D01*
X88332230Y-111595484D01*
X88338972Y-111679085D01*
X88341642Y-111694532D01*
X88350202Y-111721476D01*
X88360183Y-111731812D01*
X88361500Y-111731688D01*
X88368262Y-111722793D01*
X88370500Y-111697658D01*
X88368544Y-111653203D01*
X88367940Y-111644580D01*
X88366184Y-111605267D01*
X88368621Y-111580307D01*
X88376801Y-111562648D01*
X88392274Y-111545238D01*
X88396029Y-111541628D01*
X88432520Y-111519845D01*
X88469300Y-111519751D01*
X88503193Y-111541454D01*
X88527786Y-111567025D01*
X88520159Y-111506369D01*
X88514984Y-111473519D01*
X88502350Y-111432837D01*
X88482399Y-111406960D01*
X88452258Y-111391008D01*
X88430490Y-111386195D01*
X88397038Y-111393682D01*
X88370166Y-111422269D01*
X88349242Y-111472455D01*
X88337499Y-111523154D01*
X88332230Y-111595484D01*
X88279312Y-111595484D01*
X88278723Y-111576482D01*
X88285935Y-111490540D01*
X88304397Y-111422826D01*
X88333888Y-111373839D01*
X88374185Y-111344080D01*
X88425069Y-111334049D01*
X88434127Y-111334349D01*
X88480776Y-111347698D01*
X88516787Y-111380004D01*
X88541741Y-111430086D01*
X88555219Y-111496767D01*
X88556576Y-111567025D01*
X88556805Y-111578866D01*
G37*
G36*
X89268553Y-111617859D02*
G01*
X89258965Y-111672829D01*
X89242243Y-111744763D01*
X89229668Y-111798799D01*
X89218855Y-111854028D01*
X89213228Y-111895424D01*
X89213441Y-111919014D01*
X89214138Y-111921926D01*
X89214857Y-111942120D01*
X89203521Y-111945932D01*
X89179127Y-111933149D01*
X89140674Y-111903556D01*
X89090547Y-111865374D01*
X89040679Y-111837420D01*
X88985778Y-111818774D01*
X88917024Y-111805573D01*
X88884293Y-111800575D01*
X88854803Y-111795333D01*
X88843915Y-111791422D01*
X88849324Y-111787783D01*
X88868724Y-111783353D01*
X88876621Y-111781533D01*
X88901381Y-111772111D01*
X88911374Y-111761800D01*
X88911418Y-111761037D01*
X88948934Y-111761037D01*
X88949876Y-111774135D01*
X88950091Y-111774306D01*
X88963254Y-111778490D01*
X88988882Y-111784255D01*
X89013299Y-111787513D01*
X89023233Y-111780018D01*
X89024988Y-111756192D01*
X89027661Y-111728193D01*
X89041339Y-111681430D01*
X89063171Y-111639910D01*
X89089252Y-111612376D01*
X89102877Y-111604969D01*
X89138953Y-111594681D01*
X89173829Y-111594504D01*
X89198260Y-111605057D01*
X89206603Y-111612504D01*
X89222274Y-111618530D01*
X89228633Y-111607479D01*
X89225058Y-111582262D01*
X89210927Y-111545786D01*
X89186384Y-111510715D01*
X89148171Y-111488721D01*
X89094768Y-111481790D01*
X89055388Y-111490448D01*
X89015005Y-111519840D01*
X88981454Y-111568118D01*
X88977052Y-111581281D01*
X88970265Y-111611505D01*
X88963095Y-111650881D01*
X88956508Y-111693121D01*
X88951466Y-111731936D01*
X88948934Y-111761037D01*
X88911418Y-111761037D01*
X88911658Y-111756828D01*
X88914057Y-111732127D01*
X88918368Y-111693419D01*
X88923947Y-111646597D01*
X88924932Y-111638826D01*
X88940546Y-111556675D01*
X88964030Y-111494306D01*
X88996720Y-111449850D01*
X89039948Y-111421442D01*
X89095050Y-111407215D01*
X89099069Y-111406761D01*
X89153782Y-111411955D01*
X89201788Y-111438248D01*
X89240988Y-111484527D01*
X89254293Y-111508499D01*
X89266239Y-111540318D01*
X89270985Y-111575230D01*
X89269145Y-111607479D01*
X89268553Y-111617859D01*
G37*
G36*
X88966946Y-112152315D02*
G01*
X89015243Y-112163772D01*
X89056276Y-112196582D01*
X89089659Y-112250440D01*
X89102874Y-112281432D01*
X89111450Y-112308018D01*
X89110766Y-112318055D01*
X89101148Y-112310004D01*
X89082921Y-112282326D01*
X89082120Y-112280972D01*
X89064689Y-112255579D01*
X89048942Y-112246266D01*
X89027530Y-112248552D01*
X89022947Y-112249805D01*
X88982859Y-112267176D01*
X88936341Y-112295368D01*
X88891231Y-112329158D01*
X88855365Y-112363322D01*
X88852647Y-112366477D01*
X88828539Y-112397172D01*
X88798993Y-112438033D01*
X88769782Y-112481116D01*
X88738309Y-112525838D01*
X88690919Y-112578110D01*
X88639254Y-112615561D01*
X88577989Y-112642677D01*
X88518857Y-112658050D01*
X88442644Y-112660983D01*
X88373635Y-112642817D01*
X88312790Y-112603691D01*
X88303679Y-112594930D01*
X88275613Y-112562805D01*
X88243381Y-112520741D01*
X88212298Y-112475514D01*
X88210777Y-112473159D01*
X88183117Y-112431210D01*
X88163228Y-112404765D01*
X88147121Y-112390158D01*
X88130806Y-112383722D01*
X88110293Y-112381791D01*
X88073730Y-112376007D01*
X88046617Y-112362876D01*
X88036264Y-112345360D01*
X88036326Y-112345014D01*
X88048188Y-112340599D01*
X88076601Y-112337163D01*
X88115816Y-112335425D01*
X88155987Y-112336220D01*
X88186499Y-112341107D01*
X88196024Y-112350021D01*
X88183820Y-112362664D01*
X88183747Y-112362710D01*
X88185135Y-112372645D01*
X88202138Y-112390287D01*
X88230378Y-112412635D01*
X88265475Y-112436687D01*
X88303051Y-112459440D01*
X88338729Y-112477892D01*
X88368129Y-112489042D01*
X88398746Y-112495122D01*
X88478863Y-112494929D01*
X88565653Y-112473306D01*
X88658783Y-112430358D01*
X88757919Y-112366191D01*
X88778447Y-112351268D01*
X88835261Y-112311851D01*
X88882359Y-112283032D01*
X88925429Y-112261539D01*
X88970162Y-112244101D01*
X89030671Y-112223060D01*
X88997020Y-112209781D01*
X88966703Y-112202449D01*
X88937356Y-112203032D01*
X88920120Y-112204696D01*
X88911342Y-112194570D01*
X88914627Y-112180178D01*
X88934172Y-112160181D01*
X88965320Y-112152304D01*
X88966946Y-112152315D01*
G37*
G36*
X89061302Y-110228953D02*
G01*
X89030174Y-110260603D01*
X89028373Y-110262434D01*
X89010592Y-110280302D01*
X88985044Y-110311014D01*
X88946743Y-110357056D01*
X88936562Y-110369294D01*
X88927424Y-110385388D01*
X88884440Y-110461088D01*
X88883552Y-110463850D01*
X88861287Y-110533093D01*
X88853569Y-110557094D01*
X88848919Y-110603070D01*
X88843289Y-110658725D01*
X88843271Y-110667830D01*
X88843154Y-110727786D01*
X88877534Y-110722740D01*
X88887175Y-110721088D01*
X88903111Y-110714407D01*
X88900123Y-110703487D01*
X88894682Y-110691836D01*
X88904074Y-110677163D01*
X88934556Y-110664600D01*
X88986934Y-110653688D01*
X88999871Y-110651839D01*
X89087971Y-110649112D01*
X89186618Y-110660854D01*
X89290315Y-110686469D01*
X89294650Y-110687806D01*
X89332212Y-110698771D01*
X89359398Y-110705631D01*
X89370581Y-110706948D01*
X89372887Y-110703282D01*
X89384828Y-110683983D01*
X89386328Y-110681549D01*
X89480280Y-110681549D01*
X89489020Y-110695009D01*
X89516510Y-110713789D01*
X89527596Y-110720660D01*
X89561809Y-110745748D01*
X89594989Y-110774321D01*
X89614989Y-110792918D01*
X89631109Y-110804647D01*
X89640589Y-110803366D01*
X89648874Y-110790733D01*
X89654153Y-110774287D01*
X89647179Y-110758269D01*
X89624377Y-110736611D01*
X89612331Y-110727054D01*
X89571165Y-110700755D01*
X89529955Y-110682032D01*
X89496986Y-110674899D01*
X89491178Y-110675178D01*
X89480280Y-110681549D01*
X89386328Y-110681549D01*
X89404409Y-110652200D01*
X89424979Y-110618743D01*
X89527609Y-110618743D01*
X89543502Y-110636630D01*
X89579015Y-110663878D01*
X89601500Y-110680456D01*
X89632427Y-110705296D01*
X89652670Y-110724118D01*
X89662816Y-110734837D01*
X89672754Y-110739151D01*
X89679751Y-110726764D01*
X89681581Y-110719663D01*
X89676054Y-110690834D01*
X89655092Y-110660687D01*
X89623557Y-110633659D01*
X89586310Y-110614188D01*
X89548215Y-110606712D01*
X89530760Y-110609147D01*
X89527609Y-110618743D01*
X89424979Y-110618743D01*
X89428882Y-110612394D01*
X89431143Y-110608727D01*
X89460765Y-110567115D01*
X89562325Y-110567115D01*
X89583511Y-110578825D01*
X89597329Y-110585675D01*
X89625561Y-110605325D01*
X89656595Y-110631454D01*
X89683845Y-110655834D01*
X89699998Y-110666659D01*
X89709553Y-110665328D01*
X89717446Y-110653640D01*
X89726371Y-110635420D01*
X89727098Y-110621821D01*
X89717385Y-110605611D01*
X89695027Y-110579494D01*
X89674206Y-110559430D01*
X89637772Y-110537341D01*
X89603021Y-110529849D01*
X89575709Y-110538910D01*
X89563451Y-110551559D01*
X89562325Y-110567115D01*
X89460765Y-110567115D01*
X89508993Y-110499367D01*
X89538511Y-110468750D01*
X89635790Y-110468750D01*
X89637670Y-110482276D01*
X89661333Y-110500341D01*
X89668705Y-110505186D01*
X89698533Y-110532451D01*
X89723732Y-110565462D01*
X89734787Y-110583627D01*
X89746613Y-110599137D01*
X89754593Y-110598644D01*
X89763465Y-110584405D01*
X89766893Y-110577477D01*
X89769816Y-110556934D01*
X89756073Y-110535167D01*
X89724639Y-110502106D01*
X89687972Y-110473458D01*
X89657758Y-110461605D01*
X89636511Y-110467959D01*
X89635790Y-110468750D01*
X89538511Y-110468750D01*
X89574288Y-110431641D01*
X89698418Y-110431641D01*
X89718015Y-110447490D01*
X89722576Y-110450354D01*
X89744850Y-110470851D01*
X89767377Y-110499051D01*
X89776546Y-110512363D01*
X89790346Y-110528654D01*
X89800686Y-110529409D01*
X89813726Y-110517016D01*
X89822449Y-110506273D01*
X89824962Y-110494256D01*
X89815229Y-110479033D01*
X89791033Y-110454490D01*
X89777515Y-110442409D01*
X89746718Y-110421537D01*
X89722171Y-110413512D01*
X89720732Y-110413524D01*
X89699487Y-110418980D01*
X89698418Y-110431641D01*
X89574288Y-110431641D01*
X89593752Y-110411453D01*
X89632276Y-110383520D01*
X89767029Y-110383520D01*
X89778879Y-110392697D01*
X89783034Y-110395486D01*
X89803067Y-110415098D01*
X89824542Y-110442731D01*
X89825112Y-110443568D01*
X89842875Y-110467007D01*
X89854633Y-110473392D01*
X89865300Y-110465464D01*
X89870624Y-110456612D01*
X89871873Y-110429890D01*
X89858923Y-110402163D01*
X89836625Y-110379103D01*
X89809829Y-110366383D01*
X89783388Y-110369676D01*
X89774144Y-110374899D01*
X89767029Y-110383520D01*
X89632276Y-110383520D01*
X89680325Y-110348680D01*
X89856880Y-110348680D01*
X89868215Y-110363786D01*
X89881459Y-110381779D01*
X89897597Y-110412848D01*
X89898090Y-110414164D01*
X89907237Y-110429890D01*
X89907628Y-110430563D01*
X89916614Y-110425686D01*
X89916738Y-110408662D01*
X89904883Y-110384165D01*
X89885954Y-110360969D01*
X89866813Y-110348241D01*
X89928845Y-110348241D01*
X89937121Y-110371634D01*
X89948439Y-110392089D01*
X89961780Y-110401187D01*
X89974645Y-110389637D01*
X89975609Y-110386342D01*
X89970135Y-110369996D01*
X89956279Y-110351024D01*
X89940415Y-110336981D01*
X89928913Y-110335419D01*
X89928845Y-110348241D01*
X89866813Y-110348241D01*
X89865281Y-110347222D01*
X89862049Y-110346303D01*
X89856880Y-110348680D01*
X89680325Y-110348680D01*
X89685297Y-110345075D01*
X89717051Y-110330605D01*
X89994234Y-110330605D01*
X89997615Y-110349380D01*
X89999705Y-110353580D01*
X90013643Y-110365499D01*
X90029125Y-110367724D01*
X90036442Y-110358081D01*
X90035335Y-110353319D01*
X90029295Y-110345325D01*
X90059172Y-110345325D01*
X90060816Y-110352549D01*
X90072394Y-110354769D01*
X90098948Y-110345325D01*
X90109925Y-110340169D01*
X90110639Y-110336140D01*
X90090425Y-110334759D01*
X90068956Y-110337334D01*
X90059172Y-110345325D01*
X90029295Y-110345325D01*
X90024023Y-110338348D01*
X90007871Y-110326393D01*
X89996124Y-110325031D01*
X89994234Y-110330605D01*
X89717051Y-110330605D01*
X89783506Y-110300322D01*
X89888255Y-110277284D01*
X89949076Y-110273848D01*
X90023577Y-110277743D01*
X90093526Y-110289466D01*
X90153027Y-110307965D01*
X90196182Y-110332188D01*
X90200895Y-110336140D01*
X90205173Y-110339727D01*
X90211059Y-110348290D01*
X90204768Y-110355771D01*
X90199302Y-110358081D01*
X90183164Y-110364901D01*
X90143109Y-110378414D01*
X90121689Y-110386342D01*
X90103338Y-110393134D01*
X90073826Y-110408662D01*
X90000305Y-110447346D01*
X89940693Y-110494256D01*
X89907453Y-110520413D01*
X89874800Y-110556934D01*
X89827066Y-110610322D01*
X89819859Y-110621821D01*
X89761423Y-110715061D01*
X89759124Y-110719663D01*
X89748429Y-110741077D01*
X89733222Y-110774287D01*
X89726396Y-110789195D01*
X89709569Y-110831153D01*
X89700823Y-110860074D01*
X89697919Y-110881079D01*
X89700461Y-110902581D01*
X89712745Y-110925215D01*
X89737709Y-110956673D01*
X89756137Y-110979327D01*
X89788328Y-111021443D01*
X89814604Y-111058693D01*
X89821143Y-111068244D01*
X89845726Y-111095788D01*
X89864798Y-111102054D01*
X89886264Y-111095966D01*
X90016770Y-111059400D01*
X90134573Y-111027180D01*
X90238378Y-110999630D01*
X90326895Y-110977070D01*
X90398831Y-110959823D01*
X90452894Y-110948212D01*
X90487791Y-110942557D01*
X90502232Y-110943181D01*
X90503049Y-110947758D01*
X90495615Y-110968784D01*
X90487469Y-110983923D01*
X90477608Y-111002251D01*
X90451008Y-111044251D01*
X90417694Y-111098780D01*
X90386413Y-111160266D01*
X90364892Y-111214721D01*
X90351016Y-111256539D01*
X90303248Y-111370868D01*
X90246063Y-111466482D01*
X90177687Y-111545560D01*
X90096351Y-111610277D01*
X90000282Y-111662811D01*
X89926441Y-111696292D01*
X89938268Y-111754027D01*
X89944236Y-111800295D01*
X89940355Y-111887991D01*
X89919609Y-111981355D01*
X89883416Y-112076168D01*
X89833197Y-112168209D01*
X89770369Y-112253257D01*
X89713645Y-112313284D01*
X89626943Y-112382691D01*
X89532791Y-112432409D01*
X89428434Y-112464137D01*
X89360246Y-112478532D01*
X89362136Y-112591011D01*
X89362203Y-112594702D01*
X89366046Y-112667824D01*
X89375505Y-112729860D01*
X89392202Y-112791629D01*
X89396337Y-112804914D01*
X89407077Y-112844028D01*
X89412716Y-112872491D01*
X89412098Y-112884885D01*
X89409151Y-112885361D01*
X89391037Y-112879067D01*
X89364985Y-112863918D01*
X89360906Y-112861183D01*
X89325712Y-112837812D01*
X89293937Y-112817025D01*
X89261722Y-112796215D01*
X89279731Y-112837929D01*
X89280745Y-112840276D01*
X89298479Y-112881359D01*
X89316020Y-112922004D01*
X89321937Y-112934778D01*
X89355576Y-112991981D01*
X89402192Y-113055985D01*
X89457338Y-113121730D01*
X89516567Y-113184155D01*
X89575434Y-113238200D01*
X89629493Y-113278803D01*
X89633229Y-113281210D01*
X89666356Y-113304418D01*
X89680969Y-113320745D01*
X89678604Y-113333481D01*
X89660795Y-113345921D01*
X89655860Y-113348474D01*
X89596262Y-113370099D01*
X89523475Y-113383935D01*
X89443287Y-113390062D01*
X89361481Y-113388559D01*
X89283842Y-113379506D01*
X89216155Y-113362983D01*
X89164205Y-113339071D01*
X89149064Y-113331225D01*
X89138929Y-113334309D01*
X89142811Y-113353442D01*
X89160789Y-113387469D01*
X89165441Y-113395386D01*
X89174868Y-113418521D01*
X89169270Y-113428907D01*
X89168191Y-113429298D01*
X89150126Y-113431039D01*
X89121605Y-113426231D01*
X89079156Y-113414059D01*
X89019306Y-113393707D01*
X88963189Y-113372167D01*
X88833264Y-113309564D01*
X88710739Y-113233017D01*
X88599410Y-113145376D01*
X88503074Y-113049488D01*
X88425527Y-112948202D01*
X88421420Y-112941884D01*
X88392360Y-112898338D01*
X88370641Y-112869762D01*
X88352226Y-112852201D01*
X88333073Y-112841703D01*
X88309143Y-112834313D01*
X88301927Y-112832275D01*
X88251418Y-112810110D01*
X88201365Y-112776836D01*
X88158976Y-112737947D01*
X88131464Y-112698936D01*
X88122261Y-112672455D01*
X88112743Y-112628781D01*
X88106942Y-112582105D01*
X88105749Y-112565934D01*
X88102056Y-112531417D01*
X88095955Y-112511749D01*
X88084714Y-112501078D01*
X88065600Y-112493549D01*
X88064520Y-112493182D01*
X88032774Y-112477039D01*
X87991182Y-112449075D01*
X87945285Y-112413775D01*
X87900626Y-112375624D01*
X87862745Y-112339105D01*
X87837184Y-112308703D01*
X87822549Y-112283647D01*
X87800460Y-112217668D01*
X87795819Y-112156496D01*
X87873657Y-112156496D01*
X87875067Y-112183906D01*
X87892974Y-112245045D01*
X87928953Y-112306788D01*
X87980301Y-112365758D01*
X88044313Y-112418581D01*
X88118286Y-112461881D01*
X88159278Y-112483303D01*
X88184266Y-112501462D01*
X88189482Y-112514857D01*
X88188766Y-112517409D01*
X88189759Y-112542278D01*
X88197881Y-112579160D01*
X88210909Y-112620786D01*
X88226620Y-112659890D01*
X88242794Y-112689205D01*
X88244165Y-112691095D01*
X88286133Y-112729533D01*
X88344431Y-112755694D01*
X88416199Y-112769300D01*
X88498577Y-112770074D01*
X88588705Y-112757737D01*
X88683723Y-112732012D01*
X88738358Y-112716750D01*
X88804613Y-112709898D01*
X88859461Y-112720256D01*
X88877740Y-112729121D01*
X88888607Y-112741881D01*
X88878998Y-112749690D01*
X88850247Y-112748463D01*
X88825831Y-112747395D01*
X88790969Y-112752753D01*
X88742562Y-112765450D01*
X88676936Y-112786288D01*
X88622097Y-112804251D01*
X88571054Y-112820358D01*
X88530143Y-112832637D01*
X88505055Y-112839332D01*
X88501939Y-112840039D01*
X88477953Y-112847963D01*
X88468120Y-112855867D01*
X88470114Y-112863748D01*
X88484442Y-112889725D01*
X88510250Y-112926656D01*
X88544765Y-112970903D01*
X88585212Y-113018824D01*
X88628818Y-113066780D01*
X88698565Y-113134651D01*
X88822203Y-113231972D01*
X88954904Y-113310686D01*
X88998766Y-113332245D01*
X89044061Y-113352840D01*
X89072164Y-113363161D01*
X89081812Y-113362691D01*
X89079475Y-113356003D01*
X89066449Y-113334289D01*
X89045953Y-113304939D01*
X89022543Y-113274094D01*
X89000777Y-113247898D01*
X88985212Y-113232491D01*
X88984746Y-113232151D01*
X88958980Y-113211122D01*
X88925944Y-113181281D01*
X88890506Y-113147393D01*
X88857530Y-113114225D01*
X88831882Y-113086543D01*
X88818429Y-113069113D01*
X88818150Y-113068589D01*
X88810601Y-113048068D01*
X88817785Y-113043736D01*
X88838748Y-113055355D01*
X88872536Y-113082686D01*
X88876551Y-113086158D01*
X88918103Y-113118086D01*
X88972324Y-113154851D01*
X89034038Y-113193423D01*
X89098067Y-113230769D01*
X89159236Y-113263856D01*
X89212366Y-113289652D01*
X89252281Y-113305125D01*
X89253617Y-113305512D01*
X89287567Y-113312728D01*
X89330407Y-113318220D01*
X89378628Y-113322011D01*
X89428724Y-113324126D01*
X89477187Y-113324588D01*
X89520509Y-113323422D01*
X89555182Y-113320651D01*
X89577699Y-113316299D01*
X89584552Y-113310390D01*
X89572233Y-113302947D01*
X89559740Y-113296207D01*
X89530951Y-113275450D01*
X89493700Y-113245273D01*
X89452506Y-113209623D01*
X89411890Y-113172447D01*
X89376371Y-113137691D01*
X89350471Y-113109303D01*
X89326188Y-113076476D01*
X89295387Y-113028500D01*
X89268998Y-112981197D01*
X89248838Y-112939061D01*
X89224823Y-112884879D01*
X89199836Y-112825268D01*
X89175310Y-112763983D01*
X89152677Y-112704778D01*
X89133370Y-112651405D01*
X89118821Y-112607620D01*
X89110462Y-112577174D01*
X89109727Y-112563823D01*
X89112465Y-112563899D01*
X89126317Y-112574850D01*
X89146306Y-112596940D01*
X89160441Y-112613052D01*
X89186054Y-112640067D01*
X89216537Y-112670842D01*
X89247759Y-112701355D01*
X89275590Y-112727581D01*
X89295899Y-112745498D01*
X89304557Y-112751082D01*
X89303843Y-112744455D01*
X89299799Y-112720108D01*
X89293160Y-112683000D01*
X89284946Y-112638562D01*
X89276176Y-112592222D01*
X89267868Y-112549409D01*
X89261040Y-112515554D01*
X89256712Y-112496085D01*
X89255265Y-112493306D01*
X89236934Y-112484939D01*
X89202057Y-112481879D01*
X89185972Y-112481403D01*
X89138598Y-112476934D01*
X89092407Y-112469288D01*
X89073454Y-112464691D01*
X89035399Y-112453255D01*
X88997184Y-112439654D01*
X88964291Y-112426059D01*
X88942206Y-112414638D01*
X88936412Y-112407562D01*
X88938884Y-112407070D01*
X88958500Y-112408449D01*
X88992938Y-112413064D01*
X89036797Y-112420236D01*
X89045903Y-112421806D01*
X89096138Y-112428832D01*
X89143088Y-112431529D01*
X89195314Y-112430065D01*
X89261382Y-112424605D01*
X89302415Y-112419908D01*
X89361616Y-112411012D01*
X89413964Y-112400851D01*
X89451548Y-112390830D01*
X89533748Y-112353117D01*
X89618329Y-112290904D01*
X89694122Y-112208088D01*
X89760859Y-112104965D01*
X89818273Y-111981835D01*
X89824187Y-111966534D01*
X89834594Y-111935414D01*
X89841376Y-111904715D01*
X89845286Y-111868652D01*
X89847077Y-111821439D01*
X89847502Y-111757291D01*
X89847663Y-111698252D01*
X89848512Y-111656033D01*
X89850556Y-111629850D01*
X89854304Y-111616293D01*
X89860262Y-111611954D01*
X89868940Y-111613425D01*
X89887348Y-111614169D01*
X89924487Y-111602814D01*
X89971275Y-111578866D01*
X90024091Y-111544517D01*
X90079318Y-111501958D01*
X90133336Y-111453378D01*
X90167789Y-111419318D01*
X90197584Y-111387306D01*
X90220538Y-111357426D01*
X90240507Y-111323884D01*
X90261348Y-111280885D01*
X90286919Y-111222636D01*
X90299811Y-111193485D01*
X90332874Y-111125390D01*
X90363940Y-111070613D01*
X90390697Y-111033367D01*
X90434220Y-110983923D01*
X90377376Y-111005522D01*
X90376121Y-111005994D01*
X90346111Y-111016129D01*
X90298951Y-111030796D01*
X90239131Y-111048652D01*
X90171142Y-111068356D01*
X90099475Y-111088566D01*
X90090950Y-111090942D01*
X90021486Y-111110729D01*
X89957876Y-111129568D01*
X89904144Y-111146218D01*
X89864312Y-111159436D01*
X89842403Y-111167978D01*
X89838258Y-111169972D01*
X89812219Y-111179213D01*
X89796099Y-111179585D01*
X89793613Y-111177116D01*
X89781217Y-111158438D01*
X89762975Y-111126352D01*
X89741871Y-111086009D01*
X89738509Y-111079439D01*
X89710718Y-111030377D01*
X89680139Y-110983324D01*
X89652805Y-110947651D01*
X89648066Y-110942231D01*
X89623720Y-110910815D01*
X89612979Y-110886467D01*
X89612655Y-110862416D01*
X89613799Y-110844804D01*
X89607987Y-110829019D01*
X89590496Y-110813209D01*
X89557127Y-110792057D01*
X89518450Y-110769880D01*
X89479831Y-110752194D01*
X89452053Y-110747537D01*
X89431022Y-110755436D01*
X89412641Y-110775419D01*
X89388365Y-110809512D01*
X89339043Y-110781946D01*
X89291026Y-110757854D01*
X89181965Y-110719475D01*
X89067606Y-110699160D01*
X89056836Y-110698222D01*
X89017513Y-110695673D01*
X88989966Y-110695297D01*
X88979607Y-110697213D01*
X88980877Y-110699581D01*
X88994889Y-110712371D01*
X89019384Y-110730347D01*
X89021334Y-110731723D01*
X89029149Y-110737239D01*
X89050548Y-110754576D01*
X89059082Y-110765244D01*
X89057601Y-110766548D01*
X89040137Y-110768943D01*
X89007159Y-110769517D01*
X88963904Y-110768111D01*
X88920860Y-110767359D01*
X88872395Y-110770237D01*
X88831813Y-110776461D01*
X88802076Y-110785114D01*
X88786146Y-110795280D01*
X88786987Y-110806041D01*
X88807561Y-110816482D01*
X88826835Y-110826779D01*
X88847465Y-110844354D01*
X88861828Y-110862317D01*
X88863606Y-110874164D01*
X88862282Y-110874600D01*
X88845863Y-110870648D01*
X88815754Y-110858963D01*
X88777266Y-110841554D01*
X88744648Y-110825330D01*
X88718002Y-110809504D01*
X88707515Y-110798018D01*
X88710339Y-110788619D01*
X88715277Y-110781684D01*
X88709074Y-110777789D01*
X88684049Y-110780386D01*
X88647159Y-110788191D01*
X88613020Y-110798632D01*
X88602951Y-110802908D01*
X88589013Y-110813864D01*
X88583036Y-110833100D01*
X88581767Y-110867817D01*
X88581134Y-110888534D01*
X88577788Y-110914695D01*
X88572528Y-110924922D01*
X88569147Y-110923784D01*
X88552442Y-110911258D01*
X88529911Y-110889350D01*
X88513740Y-110873742D01*
X88464747Y-110841084D01*
X88401368Y-110817196D01*
X88319774Y-110800457D01*
X88243464Y-110787254D01*
X88150035Y-110764181D01*
X88061413Y-110733105D01*
X88043429Y-110725945D01*
X88010887Y-110713841D01*
X87995527Y-110710500D01*
X87994698Y-110715745D01*
X88005750Y-110729401D01*
X88007368Y-110731263D01*
X88026390Y-110760585D01*
X88049105Y-110805745D01*
X88073140Y-110861292D01*
X88096119Y-110921775D01*
X88115668Y-110981745D01*
X88116116Y-110983259D01*
X88131490Y-111028977D01*
X88150536Y-111077037D01*
X88170997Y-111122688D01*
X88190616Y-111161179D01*
X88207132Y-111187758D01*
X88218290Y-111197674D01*
X88224865Y-111195132D01*
X88240331Y-111181225D01*
X88242545Y-111178759D01*
X88271118Y-111159351D01*
X88311616Y-111143339D01*
X88354415Y-111133780D01*
X88389893Y-111133728D01*
X88441581Y-111152573D01*
X88494355Y-111191784D01*
X88536681Y-111246030D01*
X88564632Y-111311320D01*
X88566355Y-111320135D01*
X88562121Y-111322942D01*
X88547563Y-111310516D01*
X88520784Y-111281566D01*
X88480736Y-111241255D01*
X88429272Y-111205340D01*
X88380500Y-111191248D01*
X88333326Y-111198725D01*
X88286654Y-111227520D01*
X88276588Y-111236843D01*
X88245383Y-111280893D01*
X88222254Y-111342057D01*
X88206740Y-111421871D01*
X88198380Y-111521871D01*
X88197858Y-111534039D01*
X88196208Y-111598218D01*
X88197589Y-111646748D01*
X88202378Y-111685602D01*
X88210953Y-111720752D01*
X88216899Y-111740274D01*
X88228963Y-111773971D01*
X88243122Y-111797603D01*
X88263459Y-111813801D01*
X88294061Y-111825199D01*
X88339010Y-111834428D01*
X88402393Y-111844120D01*
X88439050Y-111849860D01*
X88528123Y-111868364D01*
X88600238Y-111891628D01*
X88659530Y-111921190D01*
X88710138Y-111958591D01*
X88727969Y-111974900D01*
X88747560Y-111996513D01*
X88748895Y-112005378D01*
X88732338Y-112000778D01*
X88698255Y-111981993D01*
X88654768Y-111956979D01*
X88601053Y-111932000D01*
X88546076Y-111914726D01*
X88484518Y-111903963D01*
X88411059Y-111898518D01*
X88320380Y-111897195D01*
X88265996Y-111897571D01*
X88209763Y-111898871D01*
X88167857Y-111901559D01*
X88135474Y-111906154D01*
X88107815Y-111913173D01*
X88080076Y-111923135D01*
X88052280Y-111934940D01*
X87976686Y-111978346D01*
X87921412Y-112030087D01*
X87886916Y-112089643D01*
X87873657Y-112156496D01*
X87795819Y-112156496D01*
X87795040Y-112146226D01*
X87805701Y-112075100D01*
X87831855Y-112010067D01*
X87872918Y-111956907D01*
X87904415Y-111932682D01*
X87963227Y-111900884D01*
X88033903Y-111873656D01*
X88110134Y-111853744D01*
X88114634Y-111852838D01*
X88152362Y-111844533D01*
X88178647Y-111837488D01*
X88188035Y-111833144D01*
X88172219Y-111786343D01*
X88152857Y-111720326D01*
X88140909Y-111662268D01*
X88134917Y-111604315D01*
X88133425Y-111538613D01*
X88133907Y-111509687D01*
X88136915Y-111447834D01*
X88142028Y-111389578D01*
X88148502Y-111344483D01*
X88163128Y-111269681D01*
X88123697Y-111195355D01*
X88093508Y-111125756D01*
X88070430Y-111037181D01*
X88066897Y-111018520D01*
X88050930Y-110957292D01*
X88028450Y-110890174D01*
X88002185Y-110824214D01*
X87974862Y-110766460D01*
X87949209Y-110723958D01*
X87939095Y-110708511D01*
X87926290Y-110681671D01*
X87921414Y-110660660D01*
X87926576Y-110652170D01*
X87928765Y-110652577D01*
X87948053Y-110657079D01*
X87983794Y-110665771D01*
X88031959Y-110677669D01*
X88088522Y-110691787D01*
X88103547Y-110695497D01*
X88165068Y-110709590D01*
X88221996Y-110721027D01*
X88268547Y-110728716D01*
X88298941Y-110731563D01*
X88343188Y-110734045D01*
X88395582Y-110740654D01*
X88444835Y-110749855D01*
X88481154Y-110760115D01*
X88484804Y-110761276D01*
X88495002Y-110758658D01*
X88496615Y-110754744D01*
X88581767Y-110754744D01*
X88582872Y-110758858D01*
X88595973Y-110763810D01*
X88596110Y-110763791D01*
X88614340Y-110761876D01*
X88647936Y-110758824D01*
X88689731Y-110755286D01*
X88704601Y-110753970D01*
X88742970Y-110748743D01*
X88763314Y-110741688D01*
X88769284Y-110731723D01*
X88767698Y-110726679D01*
X88750801Y-110716646D01*
X88720666Y-110711281D01*
X88683851Y-110710841D01*
X88646912Y-110715581D01*
X88616408Y-110725757D01*
X88613141Y-110727496D01*
X88590878Y-110742568D01*
X88581767Y-110754744D01*
X88496615Y-110754744D01*
X88501876Y-110741980D01*
X88507573Y-110706918D01*
X88513531Y-110669950D01*
X88596756Y-110669950D01*
X88607752Y-110675722D01*
X88637913Y-110679749D01*
X88684063Y-110681580D01*
X88706747Y-110681654D01*
X88746706Y-110680070D01*
X88768416Y-110675617D01*
X88774966Y-110667830D01*
X88771091Y-110657980D01*
X88750580Y-110645027D01*
X88718295Y-110637331D01*
X88680921Y-110636178D01*
X88645142Y-110642853D01*
X88635065Y-110646500D01*
X88609065Y-110658771D01*
X88596856Y-110669217D01*
X88596756Y-110669950D01*
X88513531Y-110669950D01*
X88514176Y-110665948D01*
X88528352Y-110601321D01*
X88528616Y-110600348D01*
X88602401Y-110600348D01*
X88604179Y-110608750D01*
X88619800Y-110612492D01*
X88653699Y-110613443D01*
X88673208Y-110613907D01*
X88713635Y-110616927D01*
X88743713Y-110621777D01*
X88759227Y-110625076D01*
X88772177Y-110621515D01*
X88774966Y-110603070D01*
X88774408Y-110596119D01*
X88760843Y-110571739D01*
X88733563Y-110556453D01*
X88698486Y-110550608D01*
X88661531Y-110554548D01*
X88628617Y-110568621D01*
X88605660Y-110593172D01*
X88602401Y-110600348D01*
X88528616Y-110600348D01*
X88546296Y-110535208D01*
X88557287Y-110501589D01*
X88630010Y-110501589D01*
X88636063Y-110512244D01*
X88663652Y-110515794D01*
X88669117Y-110515985D01*
X88706693Y-110523098D01*
X88744151Y-110537299D01*
X88786331Y-110558803D01*
X88786331Y-110533093D01*
X88783352Y-110517928D01*
X88768700Y-110504824D01*
X88736860Y-110493533D01*
X88723107Y-110489993D01*
X88678214Y-110483606D01*
X88645847Y-110487571D01*
X88630010Y-110501589D01*
X88557287Y-110501589D01*
X88565777Y-110475618D01*
X88581875Y-110437008D01*
X88661319Y-110437008D01*
X88667144Y-110443673D01*
X88687328Y-110447606D01*
X88693997Y-110448143D01*
X88724024Y-110456030D01*
X88757919Y-110470336D01*
X88764308Y-110473607D01*
X88790581Y-110486925D01*
X88803301Y-110490806D01*
X88808545Y-110485232D01*
X88812392Y-110470187D01*
X88813575Y-110463850D01*
X88808270Y-110445469D01*
X88786034Y-110431463D01*
X88743969Y-110419692D01*
X88730190Y-110417423D01*
X88696623Y-110417340D01*
X88671319Y-110424360D01*
X88661319Y-110437008D01*
X88581875Y-110437008D01*
X88584564Y-110430559D01*
X88587793Y-110424385D01*
X88626052Y-110370442D01*
X88719425Y-110370442D01*
X88735000Y-110382281D01*
X88769808Y-110397611D01*
X88790551Y-110405528D01*
X88816835Y-110413603D01*
X88830597Y-110413080D01*
X88837174Y-110404508D01*
X88839921Y-110396080D01*
X88840580Y-110385388D01*
X88811599Y-110366706D01*
X88771401Y-110347809D01*
X88741884Y-110345592D01*
X88720624Y-110359530D01*
X88720299Y-110359938D01*
X88719425Y-110370442D01*
X88626052Y-110370442D01*
X88629474Y-110365617D01*
X88681171Y-110314981D01*
X88796939Y-110314981D01*
X88804953Y-110326127D01*
X88826564Y-110342588D01*
X88836922Y-110348954D01*
X88857644Y-110358520D01*
X88865883Y-110357056D01*
X88859047Y-110345005D01*
X88839316Y-110328744D01*
X88815973Y-110316006D01*
X88798516Y-110313003D01*
X88796939Y-110314981D01*
X88681171Y-110314981D01*
X88687819Y-110308469D01*
X88721705Y-110283409D01*
X88846564Y-110283409D01*
X88860201Y-110299866D01*
X88872238Y-110312151D01*
X88889502Y-110321936D01*
X88903667Y-110315117D01*
X88906166Y-110311014D01*
X88901642Y-110296449D01*
X88884871Y-110283029D01*
X88862730Y-110277137D01*
X88849126Y-110277756D01*
X88846564Y-110283409D01*
X88721705Y-110283409D01*
X88757504Y-110256934D01*
X88776963Y-110246157D01*
X88905007Y-110246157D01*
X88911342Y-110260090D01*
X88915165Y-110264422D01*
X88935004Y-110276560D01*
X88950382Y-110266963D01*
X88951002Y-110260603D01*
X88938759Y-110249916D01*
X88917096Y-110243535D01*
X88905007Y-110246157D01*
X88776963Y-110246157D01*
X88813221Y-110226076D01*
X88963204Y-110226076D01*
X88964404Y-110235036D01*
X88976630Y-110235960D01*
X88997744Y-110225993D01*
X89000304Y-110224004D01*
X89010010Y-110212754D01*
X89000832Y-110210957D01*
X88974602Y-110219152D01*
X88963204Y-110226076D01*
X88813221Y-110226076D01*
X88833202Y-110215010D01*
X88909588Y-110186692D01*
X88927685Y-110182672D01*
X88967281Y-110177044D01*
X89011026Y-110173517D01*
X89052257Y-110172380D01*
X89084314Y-110173921D01*
X89100537Y-110178427D01*
X89099384Y-110183225D01*
X89086034Y-110201313D01*
X89075797Y-110212754D01*
X89061302Y-110228953D01*
G37*
D11*
%TO.C,C27*%
X90590000Y-104240580D02*
X90590000Y-103959420D01*
X91610000Y-104240580D02*
X91610000Y-103959420D01*
%TO.C,C21*%
X76240000Y-93042164D02*
X76240000Y-93257836D01*
X76960000Y-93042164D02*
X76960000Y-93257836D01*
%TO.C,C4*%
X78792164Y-107540000D02*
X79007836Y-107540000D01*
X78792164Y-108260000D02*
X79007836Y-108260000D01*
%TO.C,R7*%
X96533859Y-108082500D02*
X96841141Y-108082500D01*
X96533859Y-108842500D02*
X96841141Y-108842500D01*
%TO.C,C17*%
X87557836Y-93240000D02*
X87342164Y-93240000D01*
X87557836Y-93960000D02*
X87342164Y-93960000D01*
%TO.C,TP4*%
X70050000Y-94100000D02*
G75*
G02*
X68650000Y-94100000I-700000J0D01*
G01*
X68650000Y-94100000D02*
G75*
G02*
X70050000Y-94100000I700000J0D01*
G01*
%TO.C,U7*%
X93740000Y-105012500D02*
X93740000Y-105812500D01*
X93740000Y-106612500D02*
X93740000Y-105812500D01*
X96860000Y-105012500D02*
X96860000Y-105812500D01*
X96860000Y-106612500D02*
X96860000Y-105812500D01*
X97140000Y-107352500D02*
X96810000Y-107112500D01*
X97140000Y-106872500D01*
X97140000Y-107352500D01*
G36*
X97140000Y-107352500D02*
G01*
X96810000Y-107112500D01*
X97140000Y-106872500D01*
X97140000Y-107352500D01*
G37*
%TO.C,C13*%
X96195336Y-102752500D02*
X95979664Y-102752500D01*
X96195336Y-103472500D02*
X95979664Y-103472500D01*
%TO.C,R1*%
X74837258Y-104877500D02*
X74362742Y-104877500D01*
X74837258Y-105922500D02*
X74362742Y-105922500D01*
%TO.C,C22*%
X84892164Y-106440000D02*
X85107836Y-106440000D01*
X84892164Y-107160000D02*
X85107836Y-107160000D01*
%TO.C,C20*%
X77842164Y-106390000D02*
X78057836Y-106390000D01*
X77842164Y-107110000D02*
X78057836Y-107110000D01*
%TO.C,U1*%
X79650000Y-110500000D02*
X79650000Y-110668700D01*
X79650000Y-115600000D02*
X79650000Y-115431300D01*
X85750000Y-110500000D02*
X79650000Y-110500000D01*
X85750000Y-110668700D02*
X85750000Y-110500000D01*
X85750000Y-115431300D02*
X85750000Y-115600000D01*
X85750000Y-115600000D02*
X79650000Y-115600000D01*
D15*
X79271000Y-115681300D02*
G75*
G02*
X79021000Y-115681300I-125000J0D01*
G01*
X79021000Y-115681300D02*
G75*
G02*
X79271000Y-115681300I125000J0D01*
G01*
D11*
%TO.C,U2*%
X76640000Y-94440000D02*
X77590000Y-94440000D01*
X76640000Y-95390000D02*
X76640000Y-94440000D01*
X76640000Y-103710000D02*
X76640000Y-104660000D01*
X76640000Y-104660000D02*
X77590000Y-104660000D01*
X86860000Y-94440000D02*
X85910000Y-94440000D01*
X86860000Y-95390000D02*
X86860000Y-94440000D01*
X86860000Y-103710000D02*
X86860000Y-104660000D01*
X86860000Y-104660000D02*
X85910000Y-104660000D01*
X87475000Y-95390000D02*
X87135000Y-94920000D01*
X87815000Y-94920000D01*
X87475000Y-95390000D01*
G36*
X87475000Y-95390000D02*
G01*
X87135000Y-94920000D01*
X87815000Y-94920000D01*
X87475000Y-95390000D01*
G37*
%TO.C,C2*%
X70587836Y-101490000D02*
X70372164Y-101490000D01*
X70587836Y-102210000D02*
X70372164Y-102210000D01*
%TD*%
D16*
X76450000Y-114500000D03*
D17*
X77450000Y-111800000D03*
X82450000Y-111800000D03*
D16*
X83450000Y-114500000D03*
M02*
