M48
METRIC,TZ
T1C0.300
T2C0.500
T3C0.500
T4C0.550
%
G90
G05
T1
X74750Y-96460
X74800Y-98350
X74800Y-99150
X74800Y-99900
X74800Y-100700
X74850Y-97550
X76500Y-91850
X76840Y-110150
X77550Y-99050
X78400Y-99100
X79000Y-103150
X80000Y-107000
X80900Y-108250
X80950Y-107150
X81200Y-103900
X82550Y-106500
X82900Y-95200
X83100Y-91500
X83200Y-110250
X83275Y-102650
X83500Y-106350
X84700Y-91550
X85200Y-102100
X85350Y-107750
X85400Y-103550
X85550Y-98550
X85950Y-102450
X86100Y-101400
X86250Y-92600
X86650Y-105200
X87850Y-113400
X87950Y-90500
X88200Y-106100
X88800Y-93400
X88900Y-96050
X90200Y-104050
X91050Y-102000
X91150Y-98200
X95050Y-110900
T2
X70700Y-107600
X70950Y-100150
X71450Y-109300
X71904Y-104550
X74250Y-108000
X77750Y-100600
X80650Y-97250
X90500Y-110000
X93700Y-101300
X94299Y-105798
T3
G00X76450Y-114175
M15
G01X76450Y-114825
M16
G05
G00X83450Y-114175
M15
G01X83450Y-114825
M16
G05
T4
G00X77300Y-111800
M15
G01X77600Y-111800
M16
G05
G00X82300Y-111800
M15
G01X82600Y-111800
M16
G05
M30
