%TF.GenerationSoftware,KiCad,Pcbnew,8.0.6*%
%TF.CreationDate,2025-01-28T20:51:36+01:00*%
%TF.ProjectId,Flight controller goated,466c6967-6874-4206-936f-6e74726f6c6c,rev?*%
%TF.SameCoordinates,Original*%
%TF.FileFunction,Soldermask,Top*%
%TF.FilePolarity,Negative*%
%FSLAX46Y46*%
G04 Gerber Fmt 4.6, Leading zero omitted, Abs format (unit mm)*
G04 Created by KiCad (PCBNEW 8.0.6) date 2025-01-28 20:51:36*
%MOMM*%
%LPD*%
G01*
G04 APERTURE LIST*
G04 Aperture macros list*
%AMRoundRect*
0 Rectangle with rounded corners*
0 $1 Rounding radius*
0 $2 $3 $4 $5 $6 $7 $8 $9 X,Y pos of 4 corners*
0 Add a 4 corners polygon primitive as box body*
4,1,4,$2,$3,$4,$5,$6,$7,$8,$9,$2,$3,0*
0 Add four circle primitives for the rounded corners*
1,1,$1+$1,$2,$3*
1,1,$1+$1,$4,$5*
1,1,$1+$1,$6,$7*
1,1,$1+$1,$8,$9*
0 Add four rect primitives between the rounded corners*
20,1,$1+$1,$2,$3,$4,$5,0*
20,1,$1+$1,$4,$5,$6,$7,0*
20,1,$1+$1,$6,$7,$8,$9,0*
20,1,$1+$1,$8,$9,$2,$3,0*%
G04 Aperture macros list end*
%ADD10C,0.010000*%
%ADD11RoundRect,0.135000X-0.185000X0.135000X-0.185000X-0.135000X0.185000X-0.135000X0.185000X0.135000X0*%
%ADD12RoundRect,0.325000X-0.325000X-0.475000X0.325000X-0.475000X0.325000X0.475000X-0.325000X0.475000X0*%
%ADD13C,1.000000*%
%ADD14RoundRect,0.325000X0.475000X-0.325000X0.475000X0.325000X-0.475000X0.325000X-0.475000X-0.325000X0*%
%ADD15RoundRect,0.135000X-0.135000X-0.185000X0.135000X-0.185000X0.135000X0.185000X-0.135000X0.185000X0*%
%ADD16RoundRect,0.150000X-0.625000X0.150000X-0.625000X-0.150000X0.625000X-0.150000X0.625000X0.150000X0*%
%ADD17RoundRect,0.250000X-0.650000X0.350000X-0.650000X-0.350000X0.650000X-0.350000X0.650000X0.350000X0*%
%ADD18RoundRect,0.218750X0.218750X0.256250X-0.218750X0.256250X-0.218750X-0.256250X0.218750X-0.256250X0*%
%ADD19RoundRect,0.100000X-0.100000X-0.575000X0.100000X-0.575000X0.100000X0.575000X-0.100000X0.575000X0*%
%ADD20O,0.890000X1.550000*%
%ADD21RoundRect,0.250000X-0.475000X-0.525000X0.475000X-0.525000X0.475000X0.525000X-0.475000X0.525000X0*%
%ADD22O,1.250000X0.950000*%
%ADD23RoundRect,0.250000X-0.500000X-0.525000X0.500000X-0.525000X0.500000X0.525000X-0.500000X0.525000X0*%
%ADD24RoundRect,0.147500X0.147500X0.172500X-0.147500X0.172500X-0.147500X-0.172500X0.147500X-0.172500X0*%
%ADD25RoundRect,0.140000X0.140000X0.170000X-0.140000X0.170000X-0.140000X-0.170000X0.140000X-0.170000X0*%
%ADD26RoundRect,0.135000X0.135000X0.185000X-0.135000X0.185000X-0.135000X-0.185000X0.135000X-0.185000X0*%
%ADD27RoundRect,0.140000X0.170000X-0.140000X0.170000X0.140000X-0.170000X0.140000X-0.170000X-0.140000X0*%
%ADD28RoundRect,0.150000X0.150000X-0.587500X0.150000X0.587500X-0.150000X0.587500X-0.150000X-0.587500X0*%
%ADD29RoundRect,0.140000X-0.170000X0.140000X-0.170000X-0.140000X0.170000X-0.140000X0.170000X0.140000X0*%
%ADD30RoundRect,0.102000X0.850000X-0.400000X0.850000X0.400000X-0.850000X0.400000X-0.850000X-0.400000X0*%
%ADD31RoundRect,0.106750X-0.605250X-0.320250X0.605250X-0.320250X0.605250X0.320250X-0.605250X0.320250X0*%
%ADD32RoundRect,0.135000X0.185000X-0.135000X0.185000X0.135000X-0.185000X0.135000X-0.185000X-0.135000X0*%
%ADD33RoundRect,0.150000X0.625000X-0.150000X0.625000X0.150000X-0.625000X0.150000X-0.625000X-0.150000X0*%
%ADD34RoundRect,0.250000X0.650000X-0.350000X0.650000X0.350000X-0.650000X0.350000X-0.650000X-0.350000X0*%
G04 APERTURE END LIST*
D10*
%TO.C,U5*%
X82305500Y-101826000D02*
X82312500Y-101827000D01*
X82318500Y-101828000D01*
X82324500Y-101829000D01*
X82331500Y-101831000D01*
X82337500Y-101833000D01*
X82343500Y-101836000D01*
X82349500Y-101839000D01*
X82355500Y-101842000D01*
X82360500Y-101845000D01*
X82365500Y-101849000D01*
X82371500Y-101853000D01*
X82376500Y-101857000D01*
X82380500Y-101862000D01*
X82385500Y-101866000D01*
X82389500Y-101871000D01*
X82393500Y-101877000D01*
X82397500Y-101882000D01*
X82400500Y-101888000D01*
X82403500Y-101893000D01*
X82406500Y-101899000D01*
X82409500Y-101905000D01*
X82411500Y-101911000D01*
X82413500Y-101918000D01*
X82414500Y-101924000D01*
X82415500Y-101930000D01*
X82416500Y-101937000D01*
X82417500Y-101943000D01*
X82417500Y-101950000D01*
X82417500Y-102150000D01*
X82417500Y-102157000D01*
X82416500Y-102163000D01*
X82415500Y-102170000D01*
X82414500Y-102176000D01*
X82413500Y-102182000D01*
X82411500Y-102189000D01*
X82409500Y-102195000D01*
X82406500Y-102201000D01*
X82403500Y-102207000D01*
X82400500Y-102212000D01*
X82397500Y-102218000D01*
X82393500Y-102223000D01*
X82389500Y-102229000D01*
X82385500Y-102234000D01*
X82380500Y-102238000D01*
X82376500Y-102243000D01*
X82371500Y-102247000D01*
X82365500Y-102251000D01*
X82360500Y-102255000D01*
X82355500Y-102258000D01*
X82349500Y-102261000D01*
X82343500Y-102264000D01*
X82337500Y-102267000D01*
X82331500Y-102269000D01*
X82324500Y-102271000D01*
X82318500Y-102272000D01*
X82312500Y-102273000D01*
X82305500Y-102274000D01*
X82299500Y-102275000D01*
X82292500Y-102275000D01*
X81852500Y-102275000D01*
X81845500Y-102275000D01*
X81839500Y-102274000D01*
X81832500Y-102273000D01*
X81826500Y-102272000D01*
X81820500Y-102271000D01*
X81813500Y-102269000D01*
X81807500Y-102267000D01*
X81801500Y-102264000D01*
X81795500Y-102261000D01*
X81789500Y-102258000D01*
X81784500Y-102255000D01*
X81779500Y-102251000D01*
X81773500Y-102247000D01*
X81768500Y-102243000D01*
X81764500Y-102238000D01*
X81759500Y-102234000D01*
X81755500Y-102229000D01*
X81751500Y-102223000D01*
X81747500Y-102218000D01*
X81744500Y-102212000D01*
X81741500Y-102207000D01*
X81738500Y-102201000D01*
X81735500Y-102195000D01*
X81733500Y-102189000D01*
X81731500Y-102182000D01*
X81730500Y-102176000D01*
X81729500Y-102170000D01*
X81728500Y-102163000D01*
X81727500Y-102157000D01*
X81727500Y-102150000D01*
X81727500Y-101950000D01*
X81727500Y-101943000D01*
X81728500Y-101937000D01*
X81729500Y-101930000D01*
X81730500Y-101924000D01*
X81731500Y-101918000D01*
X81733500Y-101911000D01*
X81735500Y-101905000D01*
X81738500Y-101899000D01*
X81741500Y-101893000D01*
X81744500Y-101888000D01*
X81747500Y-101882000D01*
X81751500Y-101877000D01*
X81755500Y-101871000D01*
X81759500Y-101866000D01*
X81764500Y-101862000D01*
X81768500Y-101857000D01*
X81773500Y-101853000D01*
X81779500Y-101849000D01*
X81784500Y-101845000D01*
X81789500Y-101842000D01*
X81795500Y-101839000D01*
X81801500Y-101836000D01*
X81807500Y-101833000D01*
X81813500Y-101831000D01*
X81820500Y-101829000D01*
X81826500Y-101828000D01*
X81832500Y-101827000D01*
X81839500Y-101826000D01*
X81845500Y-101825000D01*
X81852500Y-101825000D01*
X82292500Y-101825000D01*
X82299500Y-101825000D01*
X82305500Y-101826000D01*
G36*
X82305500Y-101826000D02*
G01*
X82312500Y-101827000D01*
X82318500Y-101828000D01*
X82324500Y-101829000D01*
X82331500Y-101831000D01*
X82337500Y-101833000D01*
X82343500Y-101836000D01*
X82349500Y-101839000D01*
X82355500Y-101842000D01*
X82360500Y-101845000D01*
X82365500Y-101849000D01*
X82371500Y-101853000D01*
X82376500Y-101857000D01*
X82380500Y-101862000D01*
X82385500Y-101866000D01*
X82389500Y-101871000D01*
X82393500Y-101877000D01*
X82397500Y-101882000D01*
X82400500Y-101888000D01*
X82403500Y-101893000D01*
X82406500Y-101899000D01*
X82409500Y-101905000D01*
X82411500Y-101911000D01*
X82413500Y-101918000D01*
X82414500Y-101924000D01*
X82415500Y-101930000D01*
X82416500Y-101937000D01*
X82417500Y-101943000D01*
X82417500Y-101950000D01*
X82417500Y-102150000D01*
X82417500Y-102157000D01*
X82416500Y-102163000D01*
X82415500Y-102170000D01*
X82414500Y-102176000D01*
X82413500Y-102182000D01*
X82411500Y-102189000D01*
X82409500Y-102195000D01*
X82406500Y-102201000D01*
X82403500Y-102207000D01*
X82400500Y-102212000D01*
X82397500Y-102218000D01*
X82393500Y-102223000D01*
X82389500Y-102229000D01*
X82385500Y-102234000D01*
X82380500Y-102238000D01*
X82376500Y-102243000D01*
X82371500Y-102247000D01*
X82365500Y-102251000D01*
X82360500Y-102255000D01*
X82355500Y-102258000D01*
X82349500Y-102261000D01*
X82343500Y-102264000D01*
X82337500Y-102267000D01*
X82331500Y-102269000D01*
X82324500Y-102271000D01*
X82318500Y-102272000D01*
X82312500Y-102273000D01*
X82305500Y-102274000D01*
X82299500Y-102275000D01*
X82292500Y-102275000D01*
X81852500Y-102275000D01*
X81845500Y-102275000D01*
X81839500Y-102274000D01*
X81832500Y-102273000D01*
X81826500Y-102272000D01*
X81820500Y-102271000D01*
X81813500Y-102269000D01*
X81807500Y-102267000D01*
X81801500Y-102264000D01*
X81795500Y-102261000D01*
X81789500Y-102258000D01*
X81784500Y-102255000D01*
X81779500Y-102251000D01*
X81773500Y-102247000D01*
X81768500Y-102243000D01*
X81764500Y-102238000D01*
X81759500Y-102234000D01*
X81755500Y-102229000D01*
X81751500Y-102223000D01*
X81747500Y-102218000D01*
X81744500Y-102212000D01*
X81741500Y-102207000D01*
X81738500Y-102201000D01*
X81735500Y-102195000D01*
X81733500Y-102189000D01*
X81731500Y-102182000D01*
X81730500Y-102176000D01*
X81729500Y-102170000D01*
X81728500Y-102163000D01*
X81727500Y-102157000D01*
X81727500Y-102150000D01*
X81727500Y-101950000D01*
X81727500Y-101943000D01*
X81728500Y-101937000D01*
X81729500Y-101930000D01*
X81730500Y-101924000D01*
X81731500Y-101918000D01*
X81733500Y-101911000D01*
X81735500Y-101905000D01*
X81738500Y-101899000D01*
X81741500Y-101893000D01*
X81744500Y-101888000D01*
X81747500Y-101882000D01*
X81751500Y-101877000D01*
X81755500Y-101871000D01*
X81759500Y-101866000D01*
X81764500Y-101862000D01*
X81768500Y-101857000D01*
X81773500Y-101853000D01*
X81779500Y-101849000D01*
X81784500Y-101845000D01*
X81789500Y-101842000D01*
X81795500Y-101839000D01*
X81801500Y-101836000D01*
X81807500Y-101833000D01*
X81813500Y-101831000D01*
X81820500Y-101829000D01*
X81826500Y-101828000D01*
X81832500Y-101827000D01*
X81839500Y-101826000D01*
X81845500Y-101825000D01*
X81852500Y-101825000D01*
X82292500Y-101825000D01*
X82299500Y-101825000D01*
X82305500Y-101826000D01*
G37*
X82305500Y-102326000D02*
X82312500Y-102327000D01*
X82318500Y-102328000D01*
X82324500Y-102329000D01*
X82331500Y-102331000D01*
X82337500Y-102333000D01*
X82343500Y-102336000D01*
X82349500Y-102339000D01*
X82355500Y-102342000D01*
X82360500Y-102345000D01*
X82365500Y-102349000D01*
X82371500Y-102353000D01*
X82376500Y-102357000D01*
X82380500Y-102362000D01*
X82385500Y-102366000D01*
X82389500Y-102371000D01*
X82393500Y-102377000D01*
X82397500Y-102382000D01*
X82400500Y-102388000D01*
X82403500Y-102393000D01*
X82406500Y-102399000D01*
X82409500Y-102405000D01*
X82411500Y-102411000D01*
X82413500Y-102418000D01*
X82414500Y-102424000D01*
X82415500Y-102430000D01*
X82416500Y-102437000D01*
X82417500Y-102443000D01*
X82417500Y-102450000D01*
X82417500Y-102650000D01*
X82417500Y-102657000D01*
X82416500Y-102663000D01*
X82415500Y-102670000D01*
X82414500Y-102676000D01*
X82413500Y-102682000D01*
X82411500Y-102689000D01*
X82409500Y-102695000D01*
X82406500Y-102701000D01*
X82403500Y-102707000D01*
X82400500Y-102712000D01*
X82397500Y-102718000D01*
X82393500Y-102723000D01*
X82389500Y-102729000D01*
X82385500Y-102734000D01*
X82380500Y-102738000D01*
X82376500Y-102743000D01*
X82371500Y-102747000D01*
X82365500Y-102751000D01*
X82360500Y-102755000D01*
X82355500Y-102758000D01*
X82349500Y-102761000D01*
X82343500Y-102764000D01*
X82337500Y-102767000D01*
X82331500Y-102769000D01*
X82324500Y-102771000D01*
X82318500Y-102772000D01*
X82312500Y-102773000D01*
X82305500Y-102774000D01*
X82299500Y-102775000D01*
X82292500Y-102775000D01*
X81852500Y-102775000D01*
X81845500Y-102775000D01*
X81839500Y-102774000D01*
X81832500Y-102773000D01*
X81826500Y-102772000D01*
X81820500Y-102771000D01*
X81813500Y-102769000D01*
X81807500Y-102767000D01*
X81801500Y-102764000D01*
X81795500Y-102761000D01*
X81789500Y-102758000D01*
X81784500Y-102755000D01*
X81779500Y-102751000D01*
X81773500Y-102747000D01*
X81768500Y-102743000D01*
X81764500Y-102738000D01*
X81759500Y-102734000D01*
X81755500Y-102729000D01*
X81751500Y-102723000D01*
X81747500Y-102718000D01*
X81744500Y-102712000D01*
X81741500Y-102707000D01*
X81738500Y-102701000D01*
X81735500Y-102695000D01*
X81733500Y-102689000D01*
X81731500Y-102682000D01*
X81730500Y-102676000D01*
X81729500Y-102670000D01*
X81728500Y-102663000D01*
X81727500Y-102657000D01*
X81727500Y-102650000D01*
X81727500Y-102450000D01*
X81727500Y-102443000D01*
X81728500Y-102437000D01*
X81729500Y-102430000D01*
X81730500Y-102424000D01*
X81731500Y-102418000D01*
X81733500Y-102411000D01*
X81735500Y-102405000D01*
X81738500Y-102399000D01*
X81741500Y-102393000D01*
X81744500Y-102388000D01*
X81747500Y-102382000D01*
X81751500Y-102377000D01*
X81755500Y-102371000D01*
X81759500Y-102366000D01*
X81764500Y-102362000D01*
X81768500Y-102357000D01*
X81773500Y-102353000D01*
X81779500Y-102349000D01*
X81784500Y-102345000D01*
X81789500Y-102342000D01*
X81795500Y-102339000D01*
X81801500Y-102336000D01*
X81807500Y-102333000D01*
X81813500Y-102331000D01*
X81820500Y-102329000D01*
X81826500Y-102328000D01*
X81832500Y-102327000D01*
X81839500Y-102326000D01*
X81845500Y-102325000D01*
X81852500Y-102325000D01*
X82292500Y-102325000D01*
X82299500Y-102325000D01*
X82305500Y-102326000D01*
G36*
X82305500Y-102326000D02*
G01*
X82312500Y-102327000D01*
X82318500Y-102328000D01*
X82324500Y-102329000D01*
X82331500Y-102331000D01*
X82337500Y-102333000D01*
X82343500Y-102336000D01*
X82349500Y-102339000D01*
X82355500Y-102342000D01*
X82360500Y-102345000D01*
X82365500Y-102349000D01*
X82371500Y-102353000D01*
X82376500Y-102357000D01*
X82380500Y-102362000D01*
X82385500Y-102366000D01*
X82389500Y-102371000D01*
X82393500Y-102377000D01*
X82397500Y-102382000D01*
X82400500Y-102388000D01*
X82403500Y-102393000D01*
X82406500Y-102399000D01*
X82409500Y-102405000D01*
X82411500Y-102411000D01*
X82413500Y-102418000D01*
X82414500Y-102424000D01*
X82415500Y-102430000D01*
X82416500Y-102437000D01*
X82417500Y-102443000D01*
X82417500Y-102450000D01*
X82417500Y-102650000D01*
X82417500Y-102657000D01*
X82416500Y-102663000D01*
X82415500Y-102670000D01*
X82414500Y-102676000D01*
X82413500Y-102682000D01*
X82411500Y-102689000D01*
X82409500Y-102695000D01*
X82406500Y-102701000D01*
X82403500Y-102707000D01*
X82400500Y-102712000D01*
X82397500Y-102718000D01*
X82393500Y-102723000D01*
X82389500Y-102729000D01*
X82385500Y-102734000D01*
X82380500Y-102738000D01*
X82376500Y-102743000D01*
X82371500Y-102747000D01*
X82365500Y-102751000D01*
X82360500Y-102755000D01*
X82355500Y-102758000D01*
X82349500Y-102761000D01*
X82343500Y-102764000D01*
X82337500Y-102767000D01*
X82331500Y-102769000D01*
X82324500Y-102771000D01*
X82318500Y-102772000D01*
X82312500Y-102773000D01*
X82305500Y-102774000D01*
X82299500Y-102775000D01*
X82292500Y-102775000D01*
X81852500Y-102775000D01*
X81845500Y-102775000D01*
X81839500Y-102774000D01*
X81832500Y-102773000D01*
X81826500Y-102772000D01*
X81820500Y-102771000D01*
X81813500Y-102769000D01*
X81807500Y-102767000D01*
X81801500Y-102764000D01*
X81795500Y-102761000D01*
X81789500Y-102758000D01*
X81784500Y-102755000D01*
X81779500Y-102751000D01*
X81773500Y-102747000D01*
X81768500Y-102743000D01*
X81764500Y-102738000D01*
X81759500Y-102734000D01*
X81755500Y-102729000D01*
X81751500Y-102723000D01*
X81747500Y-102718000D01*
X81744500Y-102712000D01*
X81741500Y-102707000D01*
X81738500Y-102701000D01*
X81735500Y-102695000D01*
X81733500Y-102689000D01*
X81731500Y-102682000D01*
X81730500Y-102676000D01*
X81729500Y-102670000D01*
X81728500Y-102663000D01*
X81727500Y-102657000D01*
X81727500Y-102650000D01*
X81727500Y-102450000D01*
X81727500Y-102443000D01*
X81728500Y-102437000D01*
X81729500Y-102430000D01*
X81730500Y-102424000D01*
X81731500Y-102418000D01*
X81733500Y-102411000D01*
X81735500Y-102405000D01*
X81738500Y-102399000D01*
X81741500Y-102393000D01*
X81744500Y-102388000D01*
X81747500Y-102382000D01*
X81751500Y-102377000D01*
X81755500Y-102371000D01*
X81759500Y-102366000D01*
X81764500Y-102362000D01*
X81768500Y-102357000D01*
X81773500Y-102353000D01*
X81779500Y-102349000D01*
X81784500Y-102345000D01*
X81789500Y-102342000D01*
X81795500Y-102339000D01*
X81801500Y-102336000D01*
X81807500Y-102333000D01*
X81813500Y-102331000D01*
X81820500Y-102329000D01*
X81826500Y-102328000D01*
X81832500Y-102327000D01*
X81839500Y-102326000D01*
X81845500Y-102325000D01*
X81852500Y-102325000D01*
X82292500Y-102325000D01*
X82299500Y-102325000D01*
X82305500Y-102326000D01*
G37*
X82305500Y-102826000D02*
X82312500Y-102827000D01*
X82318500Y-102828000D01*
X82324500Y-102829000D01*
X82331500Y-102831000D01*
X82337500Y-102833000D01*
X82343500Y-102836000D01*
X82349500Y-102839000D01*
X82355500Y-102842000D01*
X82360500Y-102845000D01*
X82365500Y-102849000D01*
X82371500Y-102853000D01*
X82376500Y-102857000D01*
X82380500Y-102862000D01*
X82385500Y-102866000D01*
X82389500Y-102871000D01*
X82393500Y-102877000D01*
X82397500Y-102882000D01*
X82400500Y-102888000D01*
X82403500Y-102893000D01*
X82406500Y-102899000D01*
X82409500Y-102905000D01*
X82411500Y-102911000D01*
X82413500Y-102918000D01*
X82414500Y-102924000D01*
X82415500Y-102930000D01*
X82416500Y-102937000D01*
X82417500Y-102943000D01*
X82417500Y-102950000D01*
X82417500Y-103150000D01*
X82417500Y-103157000D01*
X82416500Y-103163000D01*
X82415500Y-103170000D01*
X82414500Y-103176000D01*
X82413500Y-103182000D01*
X82411500Y-103189000D01*
X82409500Y-103195000D01*
X82406500Y-103201000D01*
X82403500Y-103207000D01*
X82400500Y-103212000D01*
X82397500Y-103218000D01*
X82393500Y-103223000D01*
X82389500Y-103229000D01*
X82385500Y-103234000D01*
X82380500Y-103238000D01*
X82376500Y-103243000D01*
X82371500Y-103247000D01*
X82365500Y-103251000D01*
X82360500Y-103255000D01*
X82355500Y-103258000D01*
X82349500Y-103261000D01*
X82343500Y-103264000D01*
X82337500Y-103267000D01*
X82331500Y-103269000D01*
X82324500Y-103271000D01*
X82318500Y-103272000D01*
X82312500Y-103273000D01*
X82305500Y-103274000D01*
X82299500Y-103275000D01*
X82292500Y-103275000D01*
X81852500Y-103275000D01*
X81845500Y-103275000D01*
X81839500Y-103274000D01*
X81832500Y-103273000D01*
X81826500Y-103272000D01*
X81820500Y-103271000D01*
X81813500Y-103269000D01*
X81807500Y-103267000D01*
X81801500Y-103264000D01*
X81795500Y-103261000D01*
X81789500Y-103258000D01*
X81784500Y-103255000D01*
X81779500Y-103251000D01*
X81773500Y-103247000D01*
X81768500Y-103243000D01*
X81764500Y-103238000D01*
X81759500Y-103234000D01*
X81755500Y-103229000D01*
X81751500Y-103223000D01*
X81747500Y-103218000D01*
X81744500Y-103212000D01*
X81741500Y-103207000D01*
X81738500Y-103201000D01*
X81735500Y-103195000D01*
X81733500Y-103189000D01*
X81731500Y-103182000D01*
X81730500Y-103176000D01*
X81729500Y-103170000D01*
X81728500Y-103163000D01*
X81727500Y-103157000D01*
X81727500Y-103150000D01*
X81727500Y-102950000D01*
X81727500Y-102943000D01*
X81728500Y-102937000D01*
X81729500Y-102930000D01*
X81730500Y-102924000D01*
X81731500Y-102918000D01*
X81733500Y-102911000D01*
X81735500Y-102905000D01*
X81738500Y-102899000D01*
X81741500Y-102893000D01*
X81744500Y-102888000D01*
X81747500Y-102882000D01*
X81751500Y-102877000D01*
X81755500Y-102871000D01*
X81759500Y-102866000D01*
X81764500Y-102862000D01*
X81768500Y-102857000D01*
X81773500Y-102853000D01*
X81779500Y-102849000D01*
X81784500Y-102845000D01*
X81789500Y-102842000D01*
X81795500Y-102839000D01*
X81801500Y-102836000D01*
X81807500Y-102833000D01*
X81813500Y-102831000D01*
X81820500Y-102829000D01*
X81826500Y-102828000D01*
X81832500Y-102827000D01*
X81839500Y-102826000D01*
X81845500Y-102825000D01*
X81852500Y-102825000D01*
X82292500Y-102825000D01*
X82299500Y-102825000D01*
X82305500Y-102826000D01*
G36*
X82305500Y-102826000D02*
G01*
X82312500Y-102827000D01*
X82318500Y-102828000D01*
X82324500Y-102829000D01*
X82331500Y-102831000D01*
X82337500Y-102833000D01*
X82343500Y-102836000D01*
X82349500Y-102839000D01*
X82355500Y-102842000D01*
X82360500Y-102845000D01*
X82365500Y-102849000D01*
X82371500Y-102853000D01*
X82376500Y-102857000D01*
X82380500Y-102862000D01*
X82385500Y-102866000D01*
X82389500Y-102871000D01*
X82393500Y-102877000D01*
X82397500Y-102882000D01*
X82400500Y-102888000D01*
X82403500Y-102893000D01*
X82406500Y-102899000D01*
X82409500Y-102905000D01*
X82411500Y-102911000D01*
X82413500Y-102918000D01*
X82414500Y-102924000D01*
X82415500Y-102930000D01*
X82416500Y-102937000D01*
X82417500Y-102943000D01*
X82417500Y-102950000D01*
X82417500Y-103150000D01*
X82417500Y-103157000D01*
X82416500Y-103163000D01*
X82415500Y-103170000D01*
X82414500Y-103176000D01*
X82413500Y-103182000D01*
X82411500Y-103189000D01*
X82409500Y-103195000D01*
X82406500Y-103201000D01*
X82403500Y-103207000D01*
X82400500Y-103212000D01*
X82397500Y-103218000D01*
X82393500Y-103223000D01*
X82389500Y-103229000D01*
X82385500Y-103234000D01*
X82380500Y-103238000D01*
X82376500Y-103243000D01*
X82371500Y-103247000D01*
X82365500Y-103251000D01*
X82360500Y-103255000D01*
X82355500Y-103258000D01*
X82349500Y-103261000D01*
X82343500Y-103264000D01*
X82337500Y-103267000D01*
X82331500Y-103269000D01*
X82324500Y-103271000D01*
X82318500Y-103272000D01*
X82312500Y-103273000D01*
X82305500Y-103274000D01*
X82299500Y-103275000D01*
X82292500Y-103275000D01*
X81852500Y-103275000D01*
X81845500Y-103275000D01*
X81839500Y-103274000D01*
X81832500Y-103273000D01*
X81826500Y-103272000D01*
X81820500Y-103271000D01*
X81813500Y-103269000D01*
X81807500Y-103267000D01*
X81801500Y-103264000D01*
X81795500Y-103261000D01*
X81789500Y-103258000D01*
X81784500Y-103255000D01*
X81779500Y-103251000D01*
X81773500Y-103247000D01*
X81768500Y-103243000D01*
X81764500Y-103238000D01*
X81759500Y-103234000D01*
X81755500Y-103229000D01*
X81751500Y-103223000D01*
X81747500Y-103218000D01*
X81744500Y-103212000D01*
X81741500Y-103207000D01*
X81738500Y-103201000D01*
X81735500Y-103195000D01*
X81733500Y-103189000D01*
X81731500Y-103182000D01*
X81730500Y-103176000D01*
X81729500Y-103170000D01*
X81728500Y-103163000D01*
X81727500Y-103157000D01*
X81727500Y-103150000D01*
X81727500Y-102950000D01*
X81727500Y-102943000D01*
X81728500Y-102937000D01*
X81729500Y-102930000D01*
X81730500Y-102924000D01*
X81731500Y-102918000D01*
X81733500Y-102911000D01*
X81735500Y-102905000D01*
X81738500Y-102899000D01*
X81741500Y-102893000D01*
X81744500Y-102888000D01*
X81747500Y-102882000D01*
X81751500Y-102877000D01*
X81755500Y-102871000D01*
X81759500Y-102866000D01*
X81764500Y-102862000D01*
X81768500Y-102857000D01*
X81773500Y-102853000D01*
X81779500Y-102849000D01*
X81784500Y-102845000D01*
X81789500Y-102842000D01*
X81795500Y-102839000D01*
X81801500Y-102836000D01*
X81807500Y-102833000D01*
X81813500Y-102831000D01*
X81820500Y-102829000D01*
X81826500Y-102828000D01*
X81832500Y-102827000D01*
X81839500Y-102826000D01*
X81845500Y-102825000D01*
X81852500Y-102825000D01*
X82292500Y-102825000D01*
X82299500Y-102825000D01*
X82305500Y-102826000D01*
G37*
X82305500Y-103326000D02*
X82312500Y-103327000D01*
X82318500Y-103328000D01*
X82324500Y-103329000D01*
X82331500Y-103331000D01*
X82337500Y-103333000D01*
X82343500Y-103336000D01*
X82349500Y-103339000D01*
X82355500Y-103342000D01*
X82360500Y-103345000D01*
X82365500Y-103349000D01*
X82371500Y-103353000D01*
X82376500Y-103357000D01*
X82380500Y-103362000D01*
X82385500Y-103366000D01*
X82389500Y-103371000D01*
X82393500Y-103377000D01*
X82397500Y-103382000D01*
X82400500Y-103388000D01*
X82403500Y-103393000D01*
X82406500Y-103399000D01*
X82409500Y-103405000D01*
X82411500Y-103411000D01*
X82413500Y-103418000D01*
X82414500Y-103424000D01*
X82415500Y-103430000D01*
X82416500Y-103437000D01*
X82417500Y-103443000D01*
X82417500Y-103450000D01*
X82417500Y-103650000D01*
X82417500Y-103657000D01*
X82416500Y-103663000D01*
X82415500Y-103670000D01*
X82414500Y-103676000D01*
X82413500Y-103682000D01*
X82411500Y-103689000D01*
X82409500Y-103695000D01*
X82406500Y-103701000D01*
X82403500Y-103707000D01*
X82400500Y-103712000D01*
X82397500Y-103718000D01*
X82393500Y-103723000D01*
X82389500Y-103729000D01*
X82385500Y-103734000D01*
X82380500Y-103738000D01*
X82376500Y-103743000D01*
X82371500Y-103747000D01*
X82365500Y-103751000D01*
X82360500Y-103755000D01*
X82355500Y-103758000D01*
X82349500Y-103761000D01*
X82343500Y-103764000D01*
X82337500Y-103767000D01*
X82331500Y-103769000D01*
X82324500Y-103771000D01*
X82318500Y-103772000D01*
X82312500Y-103773000D01*
X82305500Y-103774000D01*
X82299500Y-103775000D01*
X82292500Y-103775000D01*
X81852500Y-103775000D01*
X81845500Y-103775000D01*
X81839500Y-103774000D01*
X81832500Y-103773000D01*
X81826500Y-103772000D01*
X81820500Y-103771000D01*
X81813500Y-103769000D01*
X81807500Y-103767000D01*
X81801500Y-103764000D01*
X81795500Y-103761000D01*
X81789500Y-103758000D01*
X81784500Y-103755000D01*
X81779500Y-103751000D01*
X81773500Y-103747000D01*
X81768500Y-103743000D01*
X81764500Y-103738000D01*
X81759500Y-103734000D01*
X81755500Y-103729000D01*
X81751500Y-103723000D01*
X81747500Y-103718000D01*
X81744500Y-103712000D01*
X81741500Y-103707000D01*
X81738500Y-103701000D01*
X81735500Y-103695000D01*
X81733500Y-103689000D01*
X81731500Y-103682000D01*
X81730500Y-103676000D01*
X81729500Y-103670000D01*
X81728500Y-103663000D01*
X81727500Y-103657000D01*
X81727500Y-103650000D01*
X81727500Y-103450000D01*
X81727500Y-103443000D01*
X81728500Y-103437000D01*
X81729500Y-103430000D01*
X81730500Y-103424000D01*
X81731500Y-103418000D01*
X81733500Y-103411000D01*
X81735500Y-103405000D01*
X81738500Y-103399000D01*
X81741500Y-103393000D01*
X81744500Y-103388000D01*
X81747500Y-103382000D01*
X81751500Y-103377000D01*
X81755500Y-103371000D01*
X81759500Y-103366000D01*
X81764500Y-103362000D01*
X81768500Y-103357000D01*
X81773500Y-103353000D01*
X81779500Y-103349000D01*
X81784500Y-103345000D01*
X81789500Y-103342000D01*
X81795500Y-103339000D01*
X81801500Y-103336000D01*
X81807500Y-103333000D01*
X81813500Y-103331000D01*
X81820500Y-103329000D01*
X81826500Y-103328000D01*
X81832500Y-103327000D01*
X81839500Y-103326000D01*
X81845500Y-103325000D01*
X81852500Y-103325000D01*
X82292500Y-103325000D01*
X82299500Y-103325000D01*
X82305500Y-103326000D01*
G36*
X82305500Y-103326000D02*
G01*
X82312500Y-103327000D01*
X82318500Y-103328000D01*
X82324500Y-103329000D01*
X82331500Y-103331000D01*
X82337500Y-103333000D01*
X82343500Y-103336000D01*
X82349500Y-103339000D01*
X82355500Y-103342000D01*
X82360500Y-103345000D01*
X82365500Y-103349000D01*
X82371500Y-103353000D01*
X82376500Y-103357000D01*
X82380500Y-103362000D01*
X82385500Y-103366000D01*
X82389500Y-103371000D01*
X82393500Y-103377000D01*
X82397500Y-103382000D01*
X82400500Y-103388000D01*
X82403500Y-103393000D01*
X82406500Y-103399000D01*
X82409500Y-103405000D01*
X82411500Y-103411000D01*
X82413500Y-103418000D01*
X82414500Y-103424000D01*
X82415500Y-103430000D01*
X82416500Y-103437000D01*
X82417500Y-103443000D01*
X82417500Y-103450000D01*
X82417500Y-103650000D01*
X82417500Y-103657000D01*
X82416500Y-103663000D01*
X82415500Y-103670000D01*
X82414500Y-103676000D01*
X82413500Y-103682000D01*
X82411500Y-103689000D01*
X82409500Y-103695000D01*
X82406500Y-103701000D01*
X82403500Y-103707000D01*
X82400500Y-103712000D01*
X82397500Y-103718000D01*
X82393500Y-103723000D01*
X82389500Y-103729000D01*
X82385500Y-103734000D01*
X82380500Y-103738000D01*
X82376500Y-103743000D01*
X82371500Y-103747000D01*
X82365500Y-103751000D01*
X82360500Y-103755000D01*
X82355500Y-103758000D01*
X82349500Y-103761000D01*
X82343500Y-103764000D01*
X82337500Y-103767000D01*
X82331500Y-103769000D01*
X82324500Y-103771000D01*
X82318500Y-103772000D01*
X82312500Y-103773000D01*
X82305500Y-103774000D01*
X82299500Y-103775000D01*
X82292500Y-103775000D01*
X81852500Y-103775000D01*
X81845500Y-103775000D01*
X81839500Y-103774000D01*
X81832500Y-103773000D01*
X81826500Y-103772000D01*
X81820500Y-103771000D01*
X81813500Y-103769000D01*
X81807500Y-103767000D01*
X81801500Y-103764000D01*
X81795500Y-103761000D01*
X81789500Y-103758000D01*
X81784500Y-103755000D01*
X81779500Y-103751000D01*
X81773500Y-103747000D01*
X81768500Y-103743000D01*
X81764500Y-103738000D01*
X81759500Y-103734000D01*
X81755500Y-103729000D01*
X81751500Y-103723000D01*
X81747500Y-103718000D01*
X81744500Y-103712000D01*
X81741500Y-103707000D01*
X81738500Y-103701000D01*
X81735500Y-103695000D01*
X81733500Y-103689000D01*
X81731500Y-103682000D01*
X81730500Y-103676000D01*
X81729500Y-103670000D01*
X81728500Y-103663000D01*
X81727500Y-103657000D01*
X81727500Y-103650000D01*
X81727500Y-103450000D01*
X81727500Y-103443000D01*
X81728500Y-103437000D01*
X81729500Y-103430000D01*
X81730500Y-103424000D01*
X81731500Y-103418000D01*
X81733500Y-103411000D01*
X81735500Y-103405000D01*
X81738500Y-103399000D01*
X81741500Y-103393000D01*
X81744500Y-103388000D01*
X81747500Y-103382000D01*
X81751500Y-103377000D01*
X81755500Y-103371000D01*
X81759500Y-103366000D01*
X81764500Y-103362000D01*
X81768500Y-103357000D01*
X81773500Y-103353000D01*
X81779500Y-103349000D01*
X81784500Y-103345000D01*
X81789500Y-103342000D01*
X81795500Y-103339000D01*
X81801500Y-103336000D01*
X81807500Y-103333000D01*
X81813500Y-103331000D01*
X81820500Y-103329000D01*
X81826500Y-103328000D01*
X81832500Y-103327000D01*
X81839500Y-103326000D01*
X81845500Y-103325000D01*
X81852500Y-103325000D01*
X82292500Y-103325000D01*
X82299500Y-103325000D01*
X82305500Y-103326000D01*
G37*
X82850500Y-101541000D02*
X82857500Y-101542000D01*
X82863500Y-101543000D01*
X82869500Y-101544000D01*
X82876500Y-101546000D01*
X82882500Y-101548000D01*
X82888500Y-101551000D01*
X82894500Y-101554000D01*
X82900500Y-101557000D01*
X82905500Y-101560000D01*
X82910500Y-101564000D01*
X82916500Y-101568000D01*
X82921500Y-101572000D01*
X82925500Y-101577000D01*
X82930500Y-101581000D01*
X82934500Y-101586000D01*
X82938500Y-101592000D01*
X82942500Y-101597000D01*
X82945500Y-101602000D01*
X82948500Y-101608000D01*
X82951500Y-101614000D01*
X82954500Y-101620000D01*
X82956500Y-101626000D01*
X82958500Y-101633000D01*
X82959500Y-101639000D01*
X82960500Y-101645000D01*
X82961500Y-101652000D01*
X82962500Y-101658000D01*
X82962500Y-101665000D01*
X82962500Y-102105000D01*
X82962500Y-102112000D01*
X82961500Y-102118000D01*
X82960500Y-102125000D01*
X82959500Y-102131000D01*
X82958500Y-102137000D01*
X82956500Y-102144000D01*
X82954500Y-102150000D01*
X82951500Y-102156000D01*
X82948500Y-102162000D01*
X82945500Y-102168000D01*
X82942500Y-102173000D01*
X82938500Y-102178000D01*
X82934500Y-102184000D01*
X82930500Y-102189000D01*
X82925500Y-102193000D01*
X82921500Y-102198000D01*
X82916500Y-102202000D01*
X82910500Y-102206000D01*
X82905500Y-102210000D01*
X82899500Y-102213000D01*
X82894500Y-102216000D01*
X82888500Y-102219000D01*
X82882500Y-102222000D01*
X82876500Y-102224000D01*
X82869500Y-102226000D01*
X82863500Y-102227000D01*
X82857500Y-102228000D01*
X82850500Y-102229000D01*
X82844500Y-102230000D01*
X82837500Y-102230000D01*
X82637500Y-102230000D01*
X82630500Y-102230000D01*
X82624500Y-102229000D01*
X82617500Y-102228000D01*
X82611500Y-102227000D01*
X82605500Y-102226000D01*
X82598500Y-102224000D01*
X82592500Y-102222000D01*
X82586500Y-102219000D01*
X82580500Y-102216000D01*
X82575500Y-102213000D01*
X82569500Y-102210000D01*
X82564500Y-102206000D01*
X82558500Y-102202000D01*
X82553500Y-102198000D01*
X82549500Y-102193000D01*
X82544500Y-102189000D01*
X82540500Y-102184000D01*
X82536500Y-102178000D01*
X82532500Y-102173000D01*
X82529500Y-102168000D01*
X82526500Y-102162000D01*
X82523500Y-102156000D01*
X82520500Y-102150000D01*
X82518500Y-102144000D01*
X82516500Y-102137000D01*
X82515500Y-102131000D01*
X82514500Y-102125000D01*
X82513500Y-102118000D01*
X82512500Y-102112000D01*
X82512500Y-102105000D01*
X82512500Y-101665000D01*
X82512500Y-101658000D01*
X82513500Y-101652000D01*
X82514500Y-101645000D01*
X82515500Y-101639000D01*
X82516500Y-101633000D01*
X82518500Y-101626000D01*
X82520500Y-101620000D01*
X82523500Y-101614000D01*
X82526500Y-101608000D01*
X82529500Y-101602000D01*
X82532500Y-101597000D01*
X82536500Y-101592000D01*
X82540500Y-101586000D01*
X82544500Y-101581000D01*
X82549500Y-101577000D01*
X82553500Y-101572000D01*
X82558500Y-101568000D01*
X82564500Y-101564000D01*
X82569500Y-101560000D01*
X82575500Y-101557000D01*
X82580500Y-101554000D01*
X82586500Y-101551000D01*
X82592500Y-101548000D01*
X82598500Y-101546000D01*
X82605500Y-101544000D01*
X82611500Y-101543000D01*
X82617500Y-101542000D01*
X82624500Y-101541000D01*
X82630500Y-101540000D01*
X82637500Y-101540000D01*
X82837500Y-101540000D01*
X82844500Y-101540000D01*
X82850500Y-101541000D01*
G36*
X82850500Y-101541000D02*
G01*
X82857500Y-101542000D01*
X82863500Y-101543000D01*
X82869500Y-101544000D01*
X82876500Y-101546000D01*
X82882500Y-101548000D01*
X82888500Y-101551000D01*
X82894500Y-101554000D01*
X82900500Y-101557000D01*
X82905500Y-101560000D01*
X82910500Y-101564000D01*
X82916500Y-101568000D01*
X82921500Y-101572000D01*
X82925500Y-101577000D01*
X82930500Y-101581000D01*
X82934500Y-101586000D01*
X82938500Y-101592000D01*
X82942500Y-101597000D01*
X82945500Y-101602000D01*
X82948500Y-101608000D01*
X82951500Y-101614000D01*
X82954500Y-101620000D01*
X82956500Y-101626000D01*
X82958500Y-101633000D01*
X82959500Y-101639000D01*
X82960500Y-101645000D01*
X82961500Y-101652000D01*
X82962500Y-101658000D01*
X82962500Y-101665000D01*
X82962500Y-102105000D01*
X82962500Y-102112000D01*
X82961500Y-102118000D01*
X82960500Y-102125000D01*
X82959500Y-102131000D01*
X82958500Y-102137000D01*
X82956500Y-102144000D01*
X82954500Y-102150000D01*
X82951500Y-102156000D01*
X82948500Y-102162000D01*
X82945500Y-102168000D01*
X82942500Y-102173000D01*
X82938500Y-102178000D01*
X82934500Y-102184000D01*
X82930500Y-102189000D01*
X82925500Y-102193000D01*
X82921500Y-102198000D01*
X82916500Y-102202000D01*
X82910500Y-102206000D01*
X82905500Y-102210000D01*
X82899500Y-102213000D01*
X82894500Y-102216000D01*
X82888500Y-102219000D01*
X82882500Y-102222000D01*
X82876500Y-102224000D01*
X82869500Y-102226000D01*
X82863500Y-102227000D01*
X82857500Y-102228000D01*
X82850500Y-102229000D01*
X82844500Y-102230000D01*
X82837500Y-102230000D01*
X82637500Y-102230000D01*
X82630500Y-102230000D01*
X82624500Y-102229000D01*
X82617500Y-102228000D01*
X82611500Y-102227000D01*
X82605500Y-102226000D01*
X82598500Y-102224000D01*
X82592500Y-102222000D01*
X82586500Y-102219000D01*
X82580500Y-102216000D01*
X82575500Y-102213000D01*
X82569500Y-102210000D01*
X82564500Y-102206000D01*
X82558500Y-102202000D01*
X82553500Y-102198000D01*
X82549500Y-102193000D01*
X82544500Y-102189000D01*
X82540500Y-102184000D01*
X82536500Y-102178000D01*
X82532500Y-102173000D01*
X82529500Y-102168000D01*
X82526500Y-102162000D01*
X82523500Y-102156000D01*
X82520500Y-102150000D01*
X82518500Y-102144000D01*
X82516500Y-102137000D01*
X82515500Y-102131000D01*
X82514500Y-102125000D01*
X82513500Y-102118000D01*
X82512500Y-102112000D01*
X82512500Y-102105000D01*
X82512500Y-101665000D01*
X82512500Y-101658000D01*
X82513500Y-101652000D01*
X82514500Y-101645000D01*
X82515500Y-101639000D01*
X82516500Y-101633000D01*
X82518500Y-101626000D01*
X82520500Y-101620000D01*
X82523500Y-101614000D01*
X82526500Y-101608000D01*
X82529500Y-101602000D01*
X82532500Y-101597000D01*
X82536500Y-101592000D01*
X82540500Y-101586000D01*
X82544500Y-101581000D01*
X82549500Y-101577000D01*
X82553500Y-101572000D01*
X82558500Y-101568000D01*
X82564500Y-101564000D01*
X82569500Y-101560000D01*
X82575500Y-101557000D01*
X82580500Y-101554000D01*
X82586500Y-101551000D01*
X82592500Y-101548000D01*
X82598500Y-101546000D01*
X82605500Y-101544000D01*
X82611500Y-101543000D01*
X82617500Y-101542000D01*
X82624500Y-101541000D01*
X82630500Y-101540000D01*
X82637500Y-101540000D01*
X82837500Y-101540000D01*
X82844500Y-101540000D01*
X82850500Y-101541000D01*
G37*
X82850500Y-103371000D02*
X82857500Y-103372000D01*
X82863500Y-103373000D01*
X82869500Y-103374000D01*
X82876500Y-103376000D01*
X82882500Y-103378000D01*
X82888500Y-103381000D01*
X82894500Y-103384000D01*
X82900500Y-103387000D01*
X82905500Y-103390000D01*
X82910500Y-103394000D01*
X82916500Y-103398000D01*
X82921500Y-103402000D01*
X82925500Y-103407000D01*
X82930500Y-103411000D01*
X82934500Y-103416000D01*
X82938500Y-103422000D01*
X82942500Y-103427000D01*
X82945500Y-103432000D01*
X82948500Y-103438000D01*
X82951500Y-103444000D01*
X82954500Y-103450000D01*
X82956500Y-103456000D01*
X82958500Y-103463000D01*
X82959500Y-103469000D01*
X82960500Y-103475000D01*
X82961500Y-103482000D01*
X82962500Y-103488000D01*
X82962500Y-103495000D01*
X82962500Y-103935000D01*
X82962500Y-103942000D01*
X82961500Y-103948000D01*
X82960500Y-103955000D01*
X82959500Y-103961000D01*
X82958500Y-103967000D01*
X82956500Y-103974000D01*
X82954500Y-103980000D01*
X82951500Y-103986000D01*
X82948500Y-103992000D01*
X82945500Y-103998000D01*
X82942500Y-104003000D01*
X82938500Y-104008000D01*
X82934500Y-104014000D01*
X82930500Y-104019000D01*
X82925500Y-104023000D01*
X82921500Y-104028000D01*
X82916500Y-104032000D01*
X82910500Y-104036000D01*
X82905500Y-104040000D01*
X82899500Y-104043000D01*
X82894500Y-104046000D01*
X82888500Y-104049000D01*
X82882500Y-104052000D01*
X82876500Y-104054000D01*
X82869500Y-104056000D01*
X82863500Y-104057000D01*
X82857500Y-104058000D01*
X82850500Y-104059000D01*
X82844500Y-104060000D01*
X82837500Y-104060000D01*
X82637500Y-104060000D01*
X82630500Y-104060000D01*
X82624500Y-104059000D01*
X82617500Y-104058000D01*
X82611500Y-104057000D01*
X82605500Y-104056000D01*
X82598500Y-104054000D01*
X82592500Y-104052000D01*
X82586500Y-104049000D01*
X82580500Y-104046000D01*
X82575500Y-104043000D01*
X82569500Y-104040000D01*
X82564500Y-104036000D01*
X82558500Y-104032000D01*
X82553500Y-104028000D01*
X82549500Y-104023000D01*
X82544500Y-104019000D01*
X82540500Y-104014000D01*
X82536500Y-104008000D01*
X82532500Y-104003000D01*
X82529500Y-103998000D01*
X82526500Y-103992000D01*
X82523500Y-103986000D01*
X82520500Y-103980000D01*
X82518500Y-103974000D01*
X82516500Y-103967000D01*
X82515500Y-103961000D01*
X82514500Y-103955000D01*
X82513500Y-103948000D01*
X82512500Y-103942000D01*
X82512500Y-103935000D01*
X82512500Y-103495000D01*
X82512500Y-103488000D01*
X82513500Y-103482000D01*
X82514500Y-103475000D01*
X82515500Y-103469000D01*
X82516500Y-103463000D01*
X82518500Y-103456000D01*
X82520500Y-103450000D01*
X82523500Y-103444000D01*
X82526500Y-103438000D01*
X82529500Y-103432000D01*
X82532500Y-103427000D01*
X82536500Y-103422000D01*
X82540500Y-103416000D01*
X82544500Y-103411000D01*
X82549500Y-103407000D01*
X82553500Y-103402000D01*
X82558500Y-103398000D01*
X82564500Y-103394000D01*
X82569500Y-103390000D01*
X82575500Y-103387000D01*
X82580500Y-103384000D01*
X82586500Y-103381000D01*
X82592500Y-103378000D01*
X82598500Y-103376000D01*
X82605500Y-103374000D01*
X82611500Y-103373000D01*
X82617500Y-103372000D01*
X82624500Y-103371000D01*
X82630500Y-103370000D01*
X82637500Y-103370000D01*
X82837500Y-103370000D01*
X82844500Y-103370000D01*
X82850500Y-103371000D01*
G36*
X82850500Y-103371000D02*
G01*
X82857500Y-103372000D01*
X82863500Y-103373000D01*
X82869500Y-103374000D01*
X82876500Y-103376000D01*
X82882500Y-103378000D01*
X82888500Y-103381000D01*
X82894500Y-103384000D01*
X82900500Y-103387000D01*
X82905500Y-103390000D01*
X82910500Y-103394000D01*
X82916500Y-103398000D01*
X82921500Y-103402000D01*
X82925500Y-103407000D01*
X82930500Y-103411000D01*
X82934500Y-103416000D01*
X82938500Y-103422000D01*
X82942500Y-103427000D01*
X82945500Y-103432000D01*
X82948500Y-103438000D01*
X82951500Y-103444000D01*
X82954500Y-103450000D01*
X82956500Y-103456000D01*
X82958500Y-103463000D01*
X82959500Y-103469000D01*
X82960500Y-103475000D01*
X82961500Y-103482000D01*
X82962500Y-103488000D01*
X82962500Y-103495000D01*
X82962500Y-103935000D01*
X82962500Y-103942000D01*
X82961500Y-103948000D01*
X82960500Y-103955000D01*
X82959500Y-103961000D01*
X82958500Y-103967000D01*
X82956500Y-103974000D01*
X82954500Y-103980000D01*
X82951500Y-103986000D01*
X82948500Y-103992000D01*
X82945500Y-103998000D01*
X82942500Y-104003000D01*
X82938500Y-104008000D01*
X82934500Y-104014000D01*
X82930500Y-104019000D01*
X82925500Y-104023000D01*
X82921500Y-104028000D01*
X82916500Y-104032000D01*
X82910500Y-104036000D01*
X82905500Y-104040000D01*
X82899500Y-104043000D01*
X82894500Y-104046000D01*
X82888500Y-104049000D01*
X82882500Y-104052000D01*
X82876500Y-104054000D01*
X82869500Y-104056000D01*
X82863500Y-104057000D01*
X82857500Y-104058000D01*
X82850500Y-104059000D01*
X82844500Y-104060000D01*
X82837500Y-104060000D01*
X82637500Y-104060000D01*
X82630500Y-104060000D01*
X82624500Y-104059000D01*
X82617500Y-104058000D01*
X82611500Y-104057000D01*
X82605500Y-104056000D01*
X82598500Y-104054000D01*
X82592500Y-104052000D01*
X82586500Y-104049000D01*
X82580500Y-104046000D01*
X82575500Y-104043000D01*
X82569500Y-104040000D01*
X82564500Y-104036000D01*
X82558500Y-104032000D01*
X82553500Y-104028000D01*
X82549500Y-104023000D01*
X82544500Y-104019000D01*
X82540500Y-104014000D01*
X82536500Y-104008000D01*
X82532500Y-104003000D01*
X82529500Y-103998000D01*
X82526500Y-103992000D01*
X82523500Y-103986000D01*
X82520500Y-103980000D01*
X82518500Y-103974000D01*
X82516500Y-103967000D01*
X82515500Y-103961000D01*
X82514500Y-103955000D01*
X82513500Y-103948000D01*
X82512500Y-103942000D01*
X82512500Y-103935000D01*
X82512500Y-103495000D01*
X82512500Y-103488000D01*
X82513500Y-103482000D01*
X82514500Y-103475000D01*
X82515500Y-103469000D01*
X82516500Y-103463000D01*
X82518500Y-103456000D01*
X82520500Y-103450000D01*
X82523500Y-103444000D01*
X82526500Y-103438000D01*
X82529500Y-103432000D01*
X82532500Y-103427000D01*
X82536500Y-103422000D01*
X82540500Y-103416000D01*
X82544500Y-103411000D01*
X82549500Y-103407000D01*
X82553500Y-103402000D01*
X82558500Y-103398000D01*
X82564500Y-103394000D01*
X82569500Y-103390000D01*
X82575500Y-103387000D01*
X82580500Y-103384000D01*
X82586500Y-103381000D01*
X82592500Y-103378000D01*
X82598500Y-103376000D01*
X82605500Y-103374000D01*
X82611500Y-103373000D01*
X82617500Y-103372000D01*
X82624500Y-103371000D01*
X82630500Y-103370000D01*
X82637500Y-103370000D01*
X82837500Y-103370000D01*
X82844500Y-103370000D01*
X82850500Y-103371000D01*
G37*
X83350500Y-101541000D02*
X83357500Y-101542000D01*
X83363500Y-101543000D01*
X83369500Y-101544000D01*
X83376500Y-101546000D01*
X83382500Y-101548000D01*
X83388500Y-101551000D01*
X83394500Y-101554000D01*
X83400500Y-101557000D01*
X83405500Y-101560000D01*
X83410500Y-101564000D01*
X83416500Y-101568000D01*
X83421500Y-101572000D01*
X83425500Y-101577000D01*
X83430500Y-101581000D01*
X83434500Y-101586000D01*
X83438500Y-101592000D01*
X83442500Y-101597000D01*
X83445500Y-101602000D01*
X83448500Y-101608000D01*
X83451500Y-101614000D01*
X83454500Y-101620000D01*
X83456500Y-101626000D01*
X83458500Y-101633000D01*
X83459500Y-101639000D01*
X83460500Y-101645000D01*
X83461500Y-101652000D01*
X83462500Y-101658000D01*
X83462500Y-101665000D01*
X83462500Y-102105000D01*
X83462500Y-102112000D01*
X83461500Y-102118000D01*
X83460500Y-102125000D01*
X83459500Y-102131000D01*
X83458500Y-102137000D01*
X83456500Y-102144000D01*
X83454500Y-102150000D01*
X83451500Y-102156000D01*
X83448500Y-102162000D01*
X83445500Y-102168000D01*
X83442500Y-102173000D01*
X83438500Y-102178000D01*
X83434500Y-102184000D01*
X83430500Y-102189000D01*
X83425500Y-102193000D01*
X83421500Y-102198000D01*
X83416500Y-102202000D01*
X83410500Y-102206000D01*
X83405500Y-102210000D01*
X83399500Y-102213000D01*
X83394500Y-102216000D01*
X83388500Y-102219000D01*
X83382500Y-102222000D01*
X83376500Y-102224000D01*
X83369500Y-102226000D01*
X83363500Y-102227000D01*
X83357500Y-102228000D01*
X83350500Y-102229000D01*
X83344500Y-102230000D01*
X83337500Y-102230000D01*
X83137500Y-102230000D01*
X83130500Y-102230000D01*
X83124500Y-102229000D01*
X83117500Y-102228000D01*
X83111500Y-102227000D01*
X83105500Y-102226000D01*
X83098500Y-102224000D01*
X83092500Y-102222000D01*
X83086500Y-102219000D01*
X83080500Y-102216000D01*
X83074500Y-102213000D01*
X83069500Y-102210000D01*
X83064500Y-102206000D01*
X83058500Y-102202000D01*
X83053500Y-102198000D01*
X83049500Y-102193000D01*
X83044500Y-102189000D01*
X83040500Y-102184000D01*
X83036500Y-102178000D01*
X83032500Y-102173000D01*
X83029500Y-102168000D01*
X83026500Y-102162000D01*
X83023500Y-102156000D01*
X83020500Y-102150000D01*
X83018500Y-102144000D01*
X83016500Y-102137000D01*
X83015500Y-102131000D01*
X83014500Y-102125000D01*
X83013500Y-102118000D01*
X83012500Y-102112000D01*
X83012500Y-102105000D01*
X83012500Y-101665000D01*
X83012500Y-101658000D01*
X83013500Y-101652000D01*
X83014500Y-101645000D01*
X83015500Y-101639000D01*
X83016500Y-101633000D01*
X83018500Y-101626000D01*
X83020500Y-101620000D01*
X83023500Y-101614000D01*
X83026500Y-101608000D01*
X83029500Y-101602000D01*
X83032500Y-101597000D01*
X83036500Y-101592000D01*
X83040500Y-101586000D01*
X83044500Y-101581000D01*
X83049500Y-101577000D01*
X83053500Y-101572000D01*
X83058500Y-101568000D01*
X83064500Y-101564000D01*
X83069500Y-101560000D01*
X83074500Y-101557000D01*
X83080500Y-101554000D01*
X83086500Y-101551000D01*
X83092500Y-101548000D01*
X83098500Y-101546000D01*
X83105500Y-101544000D01*
X83111500Y-101543000D01*
X83117500Y-101542000D01*
X83124500Y-101541000D01*
X83130500Y-101540000D01*
X83137500Y-101540000D01*
X83337500Y-101540000D01*
X83344500Y-101540000D01*
X83350500Y-101541000D01*
G36*
X83350500Y-101541000D02*
G01*
X83357500Y-101542000D01*
X83363500Y-101543000D01*
X83369500Y-101544000D01*
X83376500Y-101546000D01*
X83382500Y-101548000D01*
X83388500Y-101551000D01*
X83394500Y-101554000D01*
X83400500Y-101557000D01*
X83405500Y-101560000D01*
X83410500Y-101564000D01*
X83416500Y-101568000D01*
X83421500Y-101572000D01*
X83425500Y-101577000D01*
X83430500Y-101581000D01*
X83434500Y-101586000D01*
X83438500Y-101592000D01*
X83442500Y-101597000D01*
X83445500Y-101602000D01*
X83448500Y-101608000D01*
X83451500Y-101614000D01*
X83454500Y-101620000D01*
X83456500Y-101626000D01*
X83458500Y-101633000D01*
X83459500Y-101639000D01*
X83460500Y-101645000D01*
X83461500Y-101652000D01*
X83462500Y-101658000D01*
X83462500Y-101665000D01*
X83462500Y-102105000D01*
X83462500Y-102112000D01*
X83461500Y-102118000D01*
X83460500Y-102125000D01*
X83459500Y-102131000D01*
X83458500Y-102137000D01*
X83456500Y-102144000D01*
X83454500Y-102150000D01*
X83451500Y-102156000D01*
X83448500Y-102162000D01*
X83445500Y-102168000D01*
X83442500Y-102173000D01*
X83438500Y-102178000D01*
X83434500Y-102184000D01*
X83430500Y-102189000D01*
X83425500Y-102193000D01*
X83421500Y-102198000D01*
X83416500Y-102202000D01*
X83410500Y-102206000D01*
X83405500Y-102210000D01*
X83399500Y-102213000D01*
X83394500Y-102216000D01*
X83388500Y-102219000D01*
X83382500Y-102222000D01*
X83376500Y-102224000D01*
X83369500Y-102226000D01*
X83363500Y-102227000D01*
X83357500Y-102228000D01*
X83350500Y-102229000D01*
X83344500Y-102230000D01*
X83337500Y-102230000D01*
X83137500Y-102230000D01*
X83130500Y-102230000D01*
X83124500Y-102229000D01*
X83117500Y-102228000D01*
X83111500Y-102227000D01*
X83105500Y-102226000D01*
X83098500Y-102224000D01*
X83092500Y-102222000D01*
X83086500Y-102219000D01*
X83080500Y-102216000D01*
X83074500Y-102213000D01*
X83069500Y-102210000D01*
X83064500Y-102206000D01*
X83058500Y-102202000D01*
X83053500Y-102198000D01*
X83049500Y-102193000D01*
X83044500Y-102189000D01*
X83040500Y-102184000D01*
X83036500Y-102178000D01*
X83032500Y-102173000D01*
X83029500Y-102168000D01*
X83026500Y-102162000D01*
X83023500Y-102156000D01*
X83020500Y-102150000D01*
X83018500Y-102144000D01*
X83016500Y-102137000D01*
X83015500Y-102131000D01*
X83014500Y-102125000D01*
X83013500Y-102118000D01*
X83012500Y-102112000D01*
X83012500Y-102105000D01*
X83012500Y-101665000D01*
X83012500Y-101658000D01*
X83013500Y-101652000D01*
X83014500Y-101645000D01*
X83015500Y-101639000D01*
X83016500Y-101633000D01*
X83018500Y-101626000D01*
X83020500Y-101620000D01*
X83023500Y-101614000D01*
X83026500Y-101608000D01*
X83029500Y-101602000D01*
X83032500Y-101597000D01*
X83036500Y-101592000D01*
X83040500Y-101586000D01*
X83044500Y-101581000D01*
X83049500Y-101577000D01*
X83053500Y-101572000D01*
X83058500Y-101568000D01*
X83064500Y-101564000D01*
X83069500Y-101560000D01*
X83074500Y-101557000D01*
X83080500Y-101554000D01*
X83086500Y-101551000D01*
X83092500Y-101548000D01*
X83098500Y-101546000D01*
X83105500Y-101544000D01*
X83111500Y-101543000D01*
X83117500Y-101542000D01*
X83124500Y-101541000D01*
X83130500Y-101540000D01*
X83137500Y-101540000D01*
X83337500Y-101540000D01*
X83344500Y-101540000D01*
X83350500Y-101541000D01*
G37*
X83350500Y-103371000D02*
X83357500Y-103372000D01*
X83363500Y-103373000D01*
X83369500Y-103374000D01*
X83376500Y-103376000D01*
X83382500Y-103378000D01*
X83388500Y-103381000D01*
X83394500Y-103384000D01*
X83400500Y-103387000D01*
X83405500Y-103390000D01*
X83410500Y-103394000D01*
X83416500Y-103398000D01*
X83421500Y-103402000D01*
X83425500Y-103407000D01*
X83430500Y-103411000D01*
X83434500Y-103416000D01*
X83438500Y-103422000D01*
X83442500Y-103427000D01*
X83445500Y-103432000D01*
X83448500Y-103438000D01*
X83451500Y-103444000D01*
X83454500Y-103450000D01*
X83456500Y-103456000D01*
X83458500Y-103463000D01*
X83459500Y-103469000D01*
X83460500Y-103475000D01*
X83461500Y-103482000D01*
X83462500Y-103488000D01*
X83462500Y-103495000D01*
X83462500Y-103935000D01*
X83462500Y-103942000D01*
X83461500Y-103948000D01*
X83460500Y-103955000D01*
X83459500Y-103961000D01*
X83458500Y-103967000D01*
X83456500Y-103974000D01*
X83454500Y-103980000D01*
X83451500Y-103986000D01*
X83448500Y-103992000D01*
X83445500Y-103998000D01*
X83442500Y-104003000D01*
X83438500Y-104008000D01*
X83434500Y-104014000D01*
X83430500Y-104019000D01*
X83425500Y-104023000D01*
X83421500Y-104028000D01*
X83416500Y-104032000D01*
X83410500Y-104036000D01*
X83405500Y-104040000D01*
X83399500Y-104043000D01*
X83394500Y-104046000D01*
X83388500Y-104049000D01*
X83382500Y-104052000D01*
X83376500Y-104054000D01*
X83369500Y-104056000D01*
X83363500Y-104057000D01*
X83357500Y-104058000D01*
X83350500Y-104059000D01*
X83344500Y-104060000D01*
X83337500Y-104060000D01*
X83137500Y-104060000D01*
X83130500Y-104060000D01*
X83124500Y-104059000D01*
X83117500Y-104058000D01*
X83111500Y-104057000D01*
X83105500Y-104056000D01*
X83098500Y-104054000D01*
X83092500Y-104052000D01*
X83086500Y-104049000D01*
X83080500Y-104046000D01*
X83074500Y-104043000D01*
X83069500Y-104040000D01*
X83064500Y-104036000D01*
X83058500Y-104032000D01*
X83053500Y-104028000D01*
X83049500Y-104023000D01*
X83044500Y-104019000D01*
X83040500Y-104014000D01*
X83036500Y-104008000D01*
X83032500Y-104003000D01*
X83029500Y-103998000D01*
X83026500Y-103992000D01*
X83023500Y-103986000D01*
X83020500Y-103980000D01*
X83018500Y-103974000D01*
X83016500Y-103967000D01*
X83015500Y-103961000D01*
X83014500Y-103955000D01*
X83013500Y-103948000D01*
X83012500Y-103942000D01*
X83012500Y-103935000D01*
X83012500Y-103495000D01*
X83012500Y-103488000D01*
X83013500Y-103482000D01*
X83014500Y-103475000D01*
X83015500Y-103469000D01*
X83016500Y-103463000D01*
X83018500Y-103456000D01*
X83020500Y-103450000D01*
X83023500Y-103444000D01*
X83026500Y-103438000D01*
X83029500Y-103432000D01*
X83032500Y-103427000D01*
X83036500Y-103422000D01*
X83040500Y-103416000D01*
X83044500Y-103411000D01*
X83049500Y-103407000D01*
X83053500Y-103402000D01*
X83058500Y-103398000D01*
X83064500Y-103394000D01*
X83069500Y-103390000D01*
X83074500Y-103387000D01*
X83080500Y-103384000D01*
X83086500Y-103381000D01*
X83092500Y-103378000D01*
X83098500Y-103376000D01*
X83105500Y-103374000D01*
X83111500Y-103373000D01*
X83117500Y-103372000D01*
X83124500Y-103371000D01*
X83130500Y-103370000D01*
X83137500Y-103370000D01*
X83337500Y-103370000D01*
X83344500Y-103370000D01*
X83350500Y-103371000D01*
G36*
X83350500Y-103371000D02*
G01*
X83357500Y-103372000D01*
X83363500Y-103373000D01*
X83369500Y-103374000D01*
X83376500Y-103376000D01*
X83382500Y-103378000D01*
X83388500Y-103381000D01*
X83394500Y-103384000D01*
X83400500Y-103387000D01*
X83405500Y-103390000D01*
X83410500Y-103394000D01*
X83416500Y-103398000D01*
X83421500Y-103402000D01*
X83425500Y-103407000D01*
X83430500Y-103411000D01*
X83434500Y-103416000D01*
X83438500Y-103422000D01*
X83442500Y-103427000D01*
X83445500Y-103432000D01*
X83448500Y-103438000D01*
X83451500Y-103444000D01*
X83454500Y-103450000D01*
X83456500Y-103456000D01*
X83458500Y-103463000D01*
X83459500Y-103469000D01*
X83460500Y-103475000D01*
X83461500Y-103482000D01*
X83462500Y-103488000D01*
X83462500Y-103495000D01*
X83462500Y-103935000D01*
X83462500Y-103942000D01*
X83461500Y-103948000D01*
X83460500Y-103955000D01*
X83459500Y-103961000D01*
X83458500Y-103967000D01*
X83456500Y-103974000D01*
X83454500Y-103980000D01*
X83451500Y-103986000D01*
X83448500Y-103992000D01*
X83445500Y-103998000D01*
X83442500Y-104003000D01*
X83438500Y-104008000D01*
X83434500Y-104014000D01*
X83430500Y-104019000D01*
X83425500Y-104023000D01*
X83421500Y-104028000D01*
X83416500Y-104032000D01*
X83410500Y-104036000D01*
X83405500Y-104040000D01*
X83399500Y-104043000D01*
X83394500Y-104046000D01*
X83388500Y-104049000D01*
X83382500Y-104052000D01*
X83376500Y-104054000D01*
X83369500Y-104056000D01*
X83363500Y-104057000D01*
X83357500Y-104058000D01*
X83350500Y-104059000D01*
X83344500Y-104060000D01*
X83337500Y-104060000D01*
X83137500Y-104060000D01*
X83130500Y-104060000D01*
X83124500Y-104059000D01*
X83117500Y-104058000D01*
X83111500Y-104057000D01*
X83105500Y-104056000D01*
X83098500Y-104054000D01*
X83092500Y-104052000D01*
X83086500Y-104049000D01*
X83080500Y-104046000D01*
X83074500Y-104043000D01*
X83069500Y-104040000D01*
X83064500Y-104036000D01*
X83058500Y-104032000D01*
X83053500Y-104028000D01*
X83049500Y-104023000D01*
X83044500Y-104019000D01*
X83040500Y-104014000D01*
X83036500Y-104008000D01*
X83032500Y-104003000D01*
X83029500Y-103998000D01*
X83026500Y-103992000D01*
X83023500Y-103986000D01*
X83020500Y-103980000D01*
X83018500Y-103974000D01*
X83016500Y-103967000D01*
X83015500Y-103961000D01*
X83014500Y-103955000D01*
X83013500Y-103948000D01*
X83012500Y-103942000D01*
X83012500Y-103935000D01*
X83012500Y-103495000D01*
X83012500Y-103488000D01*
X83013500Y-103482000D01*
X83014500Y-103475000D01*
X83015500Y-103469000D01*
X83016500Y-103463000D01*
X83018500Y-103456000D01*
X83020500Y-103450000D01*
X83023500Y-103444000D01*
X83026500Y-103438000D01*
X83029500Y-103432000D01*
X83032500Y-103427000D01*
X83036500Y-103422000D01*
X83040500Y-103416000D01*
X83044500Y-103411000D01*
X83049500Y-103407000D01*
X83053500Y-103402000D01*
X83058500Y-103398000D01*
X83064500Y-103394000D01*
X83069500Y-103390000D01*
X83074500Y-103387000D01*
X83080500Y-103384000D01*
X83086500Y-103381000D01*
X83092500Y-103378000D01*
X83098500Y-103376000D01*
X83105500Y-103374000D01*
X83111500Y-103373000D01*
X83117500Y-103372000D01*
X83124500Y-103371000D01*
X83130500Y-103370000D01*
X83137500Y-103370000D01*
X83337500Y-103370000D01*
X83344500Y-103370000D01*
X83350500Y-103371000D01*
G37*
X83850500Y-101541000D02*
X83857500Y-101542000D01*
X83863500Y-101543000D01*
X83869500Y-101544000D01*
X83876500Y-101546000D01*
X83882500Y-101548000D01*
X83888500Y-101551000D01*
X83894500Y-101554000D01*
X83900500Y-101557000D01*
X83905500Y-101560000D01*
X83910500Y-101564000D01*
X83916500Y-101568000D01*
X83921500Y-101572000D01*
X83925500Y-101577000D01*
X83930500Y-101581000D01*
X83934500Y-101586000D01*
X83938500Y-101592000D01*
X83942500Y-101597000D01*
X83945500Y-101602000D01*
X83948500Y-101608000D01*
X83951500Y-101614000D01*
X83954500Y-101620000D01*
X83956500Y-101626000D01*
X83958500Y-101633000D01*
X83959500Y-101639000D01*
X83960500Y-101645000D01*
X83961500Y-101652000D01*
X83962500Y-101658000D01*
X83962500Y-101665000D01*
X83962500Y-102105000D01*
X83962500Y-102112000D01*
X83961500Y-102118000D01*
X83960500Y-102125000D01*
X83959500Y-102131000D01*
X83958500Y-102137000D01*
X83956500Y-102144000D01*
X83954500Y-102150000D01*
X83951500Y-102156000D01*
X83948500Y-102162000D01*
X83945500Y-102168000D01*
X83942500Y-102173000D01*
X83938500Y-102178000D01*
X83934500Y-102184000D01*
X83930500Y-102189000D01*
X83925500Y-102193000D01*
X83921500Y-102198000D01*
X83916500Y-102202000D01*
X83910500Y-102206000D01*
X83905500Y-102210000D01*
X83899500Y-102213000D01*
X83894500Y-102216000D01*
X83888500Y-102219000D01*
X83882500Y-102222000D01*
X83876500Y-102224000D01*
X83869500Y-102226000D01*
X83863500Y-102227000D01*
X83857500Y-102228000D01*
X83850500Y-102229000D01*
X83844500Y-102230000D01*
X83837500Y-102230000D01*
X83637500Y-102230000D01*
X83630500Y-102230000D01*
X83624500Y-102229000D01*
X83617500Y-102228000D01*
X83611500Y-102227000D01*
X83605500Y-102226000D01*
X83598500Y-102224000D01*
X83592500Y-102222000D01*
X83586500Y-102219000D01*
X83580500Y-102216000D01*
X83575500Y-102213000D01*
X83569500Y-102210000D01*
X83564500Y-102206000D01*
X83558500Y-102202000D01*
X83553500Y-102198000D01*
X83549500Y-102193000D01*
X83544500Y-102189000D01*
X83540500Y-102184000D01*
X83536500Y-102178000D01*
X83532500Y-102173000D01*
X83529500Y-102168000D01*
X83526500Y-102162000D01*
X83523500Y-102156000D01*
X83520500Y-102150000D01*
X83518500Y-102144000D01*
X83516500Y-102137000D01*
X83515500Y-102131000D01*
X83514500Y-102125000D01*
X83513500Y-102118000D01*
X83512500Y-102112000D01*
X83512500Y-102105000D01*
X83512500Y-101665000D01*
X83512500Y-101658000D01*
X83513500Y-101652000D01*
X83514500Y-101645000D01*
X83515500Y-101639000D01*
X83516500Y-101633000D01*
X83518500Y-101626000D01*
X83520500Y-101620000D01*
X83523500Y-101614000D01*
X83526500Y-101608000D01*
X83529500Y-101602000D01*
X83532500Y-101597000D01*
X83536500Y-101592000D01*
X83540500Y-101586000D01*
X83544500Y-101581000D01*
X83549500Y-101577000D01*
X83553500Y-101572000D01*
X83558500Y-101568000D01*
X83564500Y-101564000D01*
X83569500Y-101560000D01*
X83575500Y-101557000D01*
X83580500Y-101554000D01*
X83586500Y-101551000D01*
X83592500Y-101548000D01*
X83598500Y-101546000D01*
X83605500Y-101544000D01*
X83611500Y-101543000D01*
X83617500Y-101542000D01*
X83624500Y-101541000D01*
X83630500Y-101540000D01*
X83637500Y-101540000D01*
X83837500Y-101540000D01*
X83844500Y-101540000D01*
X83850500Y-101541000D01*
G36*
X83850500Y-101541000D02*
G01*
X83857500Y-101542000D01*
X83863500Y-101543000D01*
X83869500Y-101544000D01*
X83876500Y-101546000D01*
X83882500Y-101548000D01*
X83888500Y-101551000D01*
X83894500Y-101554000D01*
X83900500Y-101557000D01*
X83905500Y-101560000D01*
X83910500Y-101564000D01*
X83916500Y-101568000D01*
X83921500Y-101572000D01*
X83925500Y-101577000D01*
X83930500Y-101581000D01*
X83934500Y-101586000D01*
X83938500Y-101592000D01*
X83942500Y-101597000D01*
X83945500Y-101602000D01*
X83948500Y-101608000D01*
X83951500Y-101614000D01*
X83954500Y-101620000D01*
X83956500Y-101626000D01*
X83958500Y-101633000D01*
X83959500Y-101639000D01*
X83960500Y-101645000D01*
X83961500Y-101652000D01*
X83962500Y-101658000D01*
X83962500Y-101665000D01*
X83962500Y-102105000D01*
X83962500Y-102112000D01*
X83961500Y-102118000D01*
X83960500Y-102125000D01*
X83959500Y-102131000D01*
X83958500Y-102137000D01*
X83956500Y-102144000D01*
X83954500Y-102150000D01*
X83951500Y-102156000D01*
X83948500Y-102162000D01*
X83945500Y-102168000D01*
X83942500Y-102173000D01*
X83938500Y-102178000D01*
X83934500Y-102184000D01*
X83930500Y-102189000D01*
X83925500Y-102193000D01*
X83921500Y-102198000D01*
X83916500Y-102202000D01*
X83910500Y-102206000D01*
X83905500Y-102210000D01*
X83899500Y-102213000D01*
X83894500Y-102216000D01*
X83888500Y-102219000D01*
X83882500Y-102222000D01*
X83876500Y-102224000D01*
X83869500Y-102226000D01*
X83863500Y-102227000D01*
X83857500Y-102228000D01*
X83850500Y-102229000D01*
X83844500Y-102230000D01*
X83837500Y-102230000D01*
X83637500Y-102230000D01*
X83630500Y-102230000D01*
X83624500Y-102229000D01*
X83617500Y-102228000D01*
X83611500Y-102227000D01*
X83605500Y-102226000D01*
X83598500Y-102224000D01*
X83592500Y-102222000D01*
X83586500Y-102219000D01*
X83580500Y-102216000D01*
X83575500Y-102213000D01*
X83569500Y-102210000D01*
X83564500Y-102206000D01*
X83558500Y-102202000D01*
X83553500Y-102198000D01*
X83549500Y-102193000D01*
X83544500Y-102189000D01*
X83540500Y-102184000D01*
X83536500Y-102178000D01*
X83532500Y-102173000D01*
X83529500Y-102168000D01*
X83526500Y-102162000D01*
X83523500Y-102156000D01*
X83520500Y-102150000D01*
X83518500Y-102144000D01*
X83516500Y-102137000D01*
X83515500Y-102131000D01*
X83514500Y-102125000D01*
X83513500Y-102118000D01*
X83512500Y-102112000D01*
X83512500Y-102105000D01*
X83512500Y-101665000D01*
X83512500Y-101658000D01*
X83513500Y-101652000D01*
X83514500Y-101645000D01*
X83515500Y-101639000D01*
X83516500Y-101633000D01*
X83518500Y-101626000D01*
X83520500Y-101620000D01*
X83523500Y-101614000D01*
X83526500Y-101608000D01*
X83529500Y-101602000D01*
X83532500Y-101597000D01*
X83536500Y-101592000D01*
X83540500Y-101586000D01*
X83544500Y-101581000D01*
X83549500Y-101577000D01*
X83553500Y-101572000D01*
X83558500Y-101568000D01*
X83564500Y-101564000D01*
X83569500Y-101560000D01*
X83575500Y-101557000D01*
X83580500Y-101554000D01*
X83586500Y-101551000D01*
X83592500Y-101548000D01*
X83598500Y-101546000D01*
X83605500Y-101544000D01*
X83611500Y-101543000D01*
X83617500Y-101542000D01*
X83624500Y-101541000D01*
X83630500Y-101540000D01*
X83637500Y-101540000D01*
X83837500Y-101540000D01*
X83844500Y-101540000D01*
X83850500Y-101541000D01*
G37*
X83850500Y-103371000D02*
X83857500Y-103372000D01*
X83863500Y-103373000D01*
X83869500Y-103374000D01*
X83876500Y-103376000D01*
X83882500Y-103378000D01*
X83888500Y-103381000D01*
X83894500Y-103384000D01*
X83900500Y-103387000D01*
X83905500Y-103390000D01*
X83910500Y-103394000D01*
X83916500Y-103398000D01*
X83921500Y-103402000D01*
X83925500Y-103407000D01*
X83930500Y-103411000D01*
X83934500Y-103416000D01*
X83938500Y-103422000D01*
X83942500Y-103427000D01*
X83945500Y-103432000D01*
X83948500Y-103438000D01*
X83951500Y-103444000D01*
X83954500Y-103450000D01*
X83956500Y-103456000D01*
X83958500Y-103463000D01*
X83959500Y-103469000D01*
X83960500Y-103475000D01*
X83961500Y-103482000D01*
X83962500Y-103488000D01*
X83962500Y-103495000D01*
X83962500Y-103935000D01*
X83962500Y-103942000D01*
X83961500Y-103948000D01*
X83960500Y-103955000D01*
X83959500Y-103961000D01*
X83958500Y-103967000D01*
X83956500Y-103974000D01*
X83954500Y-103980000D01*
X83951500Y-103986000D01*
X83948500Y-103992000D01*
X83945500Y-103998000D01*
X83942500Y-104003000D01*
X83938500Y-104008000D01*
X83934500Y-104014000D01*
X83930500Y-104019000D01*
X83925500Y-104023000D01*
X83921500Y-104028000D01*
X83916500Y-104032000D01*
X83910500Y-104036000D01*
X83905500Y-104040000D01*
X83899500Y-104043000D01*
X83894500Y-104046000D01*
X83888500Y-104049000D01*
X83882500Y-104052000D01*
X83876500Y-104054000D01*
X83869500Y-104056000D01*
X83863500Y-104057000D01*
X83857500Y-104058000D01*
X83850500Y-104059000D01*
X83844500Y-104060000D01*
X83837500Y-104060000D01*
X83637500Y-104060000D01*
X83630500Y-104060000D01*
X83624500Y-104059000D01*
X83617500Y-104058000D01*
X83611500Y-104057000D01*
X83605500Y-104056000D01*
X83598500Y-104054000D01*
X83592500Y-104052000D01*
X83586500Y-104049000D01*
X83580500Y-104046000D01*
X83575500Y-104043000D01*
X83569500Y-104040000D01*
X83564500Y-104036000D01*
X83558500Y-104032000D01*
X83553500Y-104028000D01*
X83549500Y-104023000D01*
X83544500Y-104019000D01*
X83540500Y-104014000D01*
X83536500Y-104008000D01*
X83532500Y-104003000D01*
X83529500Y-103998000D01*
X83526500Y-103992000D01*
X83523500Y-103986000D01*
X83520500Y-103980000D01*
X83518500Y-103974000D01*
X83516500Y-103967000D01*
X83515500Y-103961000D01*
X83514500Y-103955000D01*
X83513500Y-103948000D01*
X83512500Y-103942000D01*
X83512500Y-103935000D01*
X83512500Y-103495000D01*
X83512500Y-103488000D01*
X83513500Y-103482000D01*
X83514500Y-103475000D01*
X83515500Y-103469000D01*
X83516500Y-103463000D01*
X83518500Y-103456000D01*
X83520500Y-103450000D01*
X83523500Y-103444000D01*
X83526500Y-103438000D01*
X83529500Y-103432000D01*
X83532500Y-103427000D01*
X83536500Y-103422000D01*
X83540500Y-103416000D01*
X83544500Y-103411000D01*
X83549500Y-103407000D01*
X83553500Y-103402000D01*
X83558500Y-103398000D01*
X83564500Y-103394000D01*
X83569500Y-103390000D01*
X83575500Y-103387000D01*
X83580500Y-103384000D01*
X83586500Y-103381000D01*
X83592500Y-103378000D01*
X83598500Y-103376000D01*
X83605500Y-103374000D01*
X83611500Y-103373000D01*
X83617500Y-103372000D01*
X83624500Y-103371000D01*
X83630500Y-103370000D01*
X83637500Y-103370000D01*
X83837500Y-103370000D01*
X83844500Y-103370000D01*
X83850500Y-103371000D01*
G36*
X83850500Y-103371000D02*
G01*
X83857500Y-103372000D01*
X83863500Y-103373000D01*
X83869500Y-103374000D01*
X83876500Y-103376000D01*
X83882500Y-103378000D01*
X83888500Y-103381000D01*
X83894500Y-103384000D01*
X83900500Y-103387000D01*
X83905500Y-103390000D01*
X83910500Y-103394000D01*
X83916500Y-103398000D01*
X83921500Y-103402000D01*
X83925500Y-103407000D01*
X83930500Y-103411000D01*
X83934500Y-103416000D01*
X83938500Y-103422000D01*
X83942500Y-103427000D01*
X83945500Y-103432000D01*
X83948500Y-103438000D01*
X83951500Y-103444000D01*
X83954500Y-103450000D01*
X83956500Y-103456000D01*
X83958500Y-103463000D01*
X83959500Y-103469000D01*
X83960500Y-103475000D01*
X83961500Y-103482000D01*
X83962500Y-103488000D01*
X83962500Y-103495000D01*
X83962500Y-103935000D01*
X83962500Y-103942000D01*
X83961500Y-103948000D01*
X83960500Y-103955000D01*
X83959500Y-103961000D01*
X83958500Y-103967000D01*
X83956500Y-103974000D01*
X83954500Y-103980000D01*
X83951500Y-103986000D01*
X83948500Y-103992000D01*
X83945500Y-103998000D01*
X83942500Y-104003000D01*
X83938500Y-104008000D01*
X83934500Y-104014000D01*
X83930500Y-104019000D01*
X83925500Y-104023000D01*
X83921500Y-104028000D01*
X83916500Y-104032000D01*
X83910500Y-104036000D01*
X83905500Y-104040000D01*
X83899500Y-104043000D01*
X83894500Y-104046000D01*
X83888500Y-104049000D01*
X83882500Y-104052000D01*
X83876500Y-104054000D01*
X83869500Y-104056000D01*
X83863500Y-104057000D01*
X83857500Y-104058000D01*
X83850500Y-104059000D01*
X83844500Y-104060000D01*
X83837500Y-104060000D01*
X83637500Y-104060000D01*
X83630500Y-104060000D01*
X83624500Y-104059000D01*
X83617500Y-104058000D01*
X83611500Y-104057000D01*
X83605500Y-104056000D01*
X83598500Y-104054000D01*
X83592500Y-104052000D01*
X83586500Y-104049000D01*
X83580500Y-104046000D01*
X83575500Y-104043000D01*
X83569500Y-104040000D01*
X83564500Y-104036000D01*
X83558500Y-104032000D01*
X83553500Y-104028000D01*
X83549500Y-104023000D01*
X83544500Y-104019000D01*
X83540500Y-104014000D01*
X83536500Y-104008000D01*
X83532500Y-104003000D01*
X83529500Y-103998000D01*
X83526500Y-103992000D01*
X83523500Y-103986000D01*
X83520500Y-103980000D01*
X83518500Y-103974000D01*
X83516500Y-103967000D01*
X83515500Y-103961000D01*
X83514500Y-103955000D01*
X83513500Y-103948000D01*
X83512500Y-103942000D01*
X83512500Y-103935000D01*
X83512500Y-103495000D01*
X83512500Y-103488000D01*
X83513500Y-103482000D01*
X83514500Y-103475000D01*
X83515500Y-103469000D01*
X83516500Y-103463000D01*
X83518500Y-103456000D01*
X83520500Y-103450000D01*
X83523500Y-103444000D01*
X83526500Y-103438000D01*
X83529500Y-103432000D01*
X83532500Y-103427000D01*
X83536500Y-103422000D01*
X83540500Y-103416000D01*
X83544500Y-103411000D01*
X83549500Y-103407000D01*
X83553500Y-103402000D01*
X83558500Y-103398000D01*
X83564500Y-103394000D01*
X83569500Y-103390000D01*
X83575500Y-103387000D01*
X83580500Y-103384000D01*
X83586500Y-103381000D01*
X83592500Y-103378000D01*
X83598500Y-103376000D01*
X83605500Y-103374000D01*
X83611500Y-103373000D01*
X83617500Y-103372000D01*
X83624500Y-103371000D01*
X83630500Y-103370000D01*
X83637500Y-103370000D01*
X83837500Y-103370000D01*
X83844500Y-103370000D01*
X83850500Y-103371000D01*
G37*
X84635500Y-101826000D02*
X84642500Y-101827000D01*
X84648500Y-101828000D01*
X84654500Y-101829000D01*
X84661500Y-101831000D01*
X84667500Y-101833000D01*
X84673500Y-101836000D01*
X84679500Y-101839000D01*
X84685500Y-101842000D01*
X84690500Y-101845000D01*
X84695500Y-101849000D01*
X84701500Y-101853000D01*
X84706500Y-101857000D01*
X84710500Y-101862000D01*
X84715500Y-101866000D01*
X84719500Y-101871000D01*
X84723500Y-101877000D01*
X84727500Y-101882000D01*
X84730500Y-101888000D01*
X84733500Y-101893000D01*
X84736500Y-101899000D01*
X84739500Y-101905000D01*
X84741500Y-101911000D01*
X84743500Y-101918000D01*
X84744500Y-101924000D01*
X84745500Y-101930000D01*
X84746500Y-101937000D01*
X84747500Y-101943000D01*
X84747500Y-101950000D01*
X84747500Y-102150000D01*
X84747500Y-102157000D01*
X84746500Y-102163000D01*
X84745500Y-102170000D01*
X84744500Y-102176000D01*
X84743500Y-102182000D01*
X84741500Y-102189000D01*
X84739500Y-102195000D01*
X84736500Y-102201000D01*
X84733500Y-102207000D01*
X84730500Y-102212000D01*
X84727500Y-102218000D01*
X84723500Y-102223000D01*
X84719500Y-102229000D01*
X84715500Y-102234000D01*
X84710500Y-102238000D01*
X84706500Y-102243000D01*
X84701500Y-102247000D01*
X84695500Y-102251000D01*
X84690500Y-102255000D01*
X84685500Y-102258000D01*
X84679500Y-102261000D01*
X84673500Y-102264000D01*
X84667500Y-102267000D01*
X84661500Y-102269000D01*
X84654500Y-102271000D01*
X84648500Y-102272000D01*
X84642500Y-102273000D01*
X84635500Y-102274000D01*
X84629500Y-102275000D01*
X84622500Y-102275000D01*
X84182500Y-102275000D01*
X84175500Y-102275000D01*
X84169500Y-102274000D01*
X84162500Y-102273000D01*
X84156500Y-102272000D01*
X84150500Y-102271000D01*
X84143500Y-102269000D01*
X84137500Y-102267000D01*
X84131500Y-102264000D01*
X84125500Y-102261000D01*
X84119500Y-102258000D01*
X84114500Y-102255000D01*
X84109500Y-102251000D01*
X84103500Y-102247000D01*
X84098500Y-102243000D01*
X84094500Y-102238000D01*
X84089500Y-102234000D01*
X84085500Y-102229000D01*
X84081500Y-102223000D01*
X84077500Y-102218000D01*
X84074500Y-102212000D01*
X84071500Y-102207000D01*
X84068500Y-102201000D01*
X84065500Y-102195000D01*
X84063500Y-102189000D01*
X84061500Y-102182000D01*
X84060500Y-102176000D01*
X84059500Y-102170000D01*
X84058500Y-102163000D01*
X84057500Y-102157000D01*
X84057500Y-102150000D01*
X84057500Y-101950000D01*
X84057500Y-101943000D01*
X84058500Y-101937000D01*
X84059500Y-101930000D01*
X84060500Y-101924000D01*
X84061500Y-101918000D01*
X84063500Y-101911000D01*
X84065500Y-101905000D01*
X84068500Y-101899000D01*
X84071500Y-101893000D01*
X84074500Y-101888000D01*
X84077500Y-101882000D01*
X84081500Y-101877000D01*
X84085500Y-101871000D01*
X84089500Y-101866000D01*
X84094500Y-101862000D01*
X84098500Y-101857000D01*
X84103500Y-101853000D01*
X84109500Y-101849000D01*
X84114500Y-101845000D01*
X84119500Y-101842000D01*
X84125500Y-101839000D01*
X84131500Y-101836000D01*
X84137500Y-101833000D01*
X84143500Y-101831000D01*
X84150500Y-101829000D01*
X84156500Y-101828000D01*
X84162500Y-101827000D01*
X84169500Y-101826000D01*
X84175500Y-101825000D01*
X84182500Y-101825000D01*
X84622500Y-101825000D01*
X84629500Y-101825000D01*
X84635500Y-101826000D01*
G36*
X84635500Y-101826000D02*
G01*
X84642500Y-101827000D01*
X84648500Y-101828000D01*
X84654500Y-101829000D01*
X84661500Y-101831000D01*
X84667500Y-101833000D01*
X84673500Y-101836000D01*
X84679500Y-101839000D01*
X84685500Y-101842000D01*
X84690500Y-101845000D01*
X84695500Y-101849000D01*
X84701500Y-101853000D01*
X84706500Y-101857000D01*
X84710500Y-101862000D01*
X84715500Y-101866000D01*
X84719500Y-101871000D01*
X84723500Y-101877000D01*
X84727500Y-101882000D01*
X84730500Y-101888000D01*
X84733500Y-101893000D01*
X84736500Y-101899000D01*
X84739500Y-101905000D01*
X84741500Y-101911000D01*
X84743500Y-101918000D01*
X84744500Y-101924000D01*
X84745500Y-101930000D01*
X84746500Y-101937000D01*
X84747500Y-101943000D01*
X84747500Y-101950000D01*
X84747500Y-102150000D01*
X84747500Y-102157000D01*
X84746500Y-102163000D01*
X84745500Y-102170000D01*
X84744500Y-102176000D01*
X84743500Y-102182000D01*
X84741500Y-102189000D01*
X84739500Y-102195000D01*
X84736500Y-102201000D01*
X84733500Y-102207000D01*
X84730500Y-102212000D01*
X84727500Y-102218000D01*
X84723500Y-102223000D01*
X84719500Y-102229000D01*
X84715500Y-102234000D01*
X84710500Y-102238000D01*
X84706500Y-102243000D01*
X84701500Y-102247000D01*
X84695500Y-102251000D01*
X84690500Y-102255000D01*
X84685500Y-102258000D01*
X84679500Y-102261000D01*
X84673500Y-102264000D01*
X84667500Y-102267000D01*
X84661500Y-102269000D01*
X84654500Y-102271000D01*
X84648500Y-102272000D01*
X84642500Y-102273000D01*
X84635500Y-102274000D01*
X84629500Y-102275000D01*
X84622500Y-102275000D01*
X84182500Y-102275000D01*
X84175500Y-102275000D01*
X84169500Y-102274000D01*
X84162500Y-102273000D01*
X84156500Y-102272000D01*
X84150500Y-102271000D01*
X84143500Y-102269000D01*
X84137500Y-102267000D01*
X84131500Y-102264000D01*
X84125500Y-102261000D01*
X84119500Y-102258000D01*
X84114500Y-102255000D01*
X84109500Y-102251000D01*
X84103500Y-102247000D01*
X84098500Y-102243000D01*
X84094500Y-102238000D01*
X84089500Y-102234000D01*
X84085500Y-102229000D01*
X84081500Y-102223000D01*
X84077500Y-102218000D01*
X84074500Y-102212000D01*
X84071500Y-102207000D01*
X84068500Y-102201000D01*
X84065500Y-102195000D01*
X84063500Y-102189000D01*
X84061500Y-102182000D01*
X84060500Y-102176000D01*
X84059500Y-102170000D01*
X84058500Y-102163000D01*
X84057500Y-102157000D01*
X84057500Y-102150000D01*
X84057500Y-101950000D01*
X84057500Y-101943000D01*
X84058500Y-101937000D01*
X84059500Y-101930000D01*
X84060500Y-101924000D01*
X84061500Y-101918000D01*
X84063500Y-101911000D01*
X84065500Y-101905000D01*
X84068500Y-101899000D01*
X84071500Y-101893000D01*
X84074500Y-101888000D01*
X84077500Y-101882000D01*
X84081500Y-101877000D01*
X84085500Y-101871000D01*
X84089500Y-101866000D01*
X84094500Y-101862000D01*
X84098500Y-101857000D01*
X84103500Y-101853000D01*
X84109500Y-101849000D01*
X84114500Y-101845000D01*
X84119500Y-101842000D01*
X84125500Y-101839000D01*
X84131500Y-101836000D01*
X84137500Y-101833000D01*
X84143500Y-101831000D01*
X84150500Y-101829000D01*
X84156500Y-101828000D01*
X84162500Y-101827000D01*
X84169500Y-101826000D01*
X84175500Y-101825000D01*
X84182500Y-101825000D01*
X84622500Y-101825000D01*
X84629500Y-101825000D01*
X84635500Y-101826000D01*
G37*
X84635500Y-102326000D02*
X84642500Y-102327000D01*
X84648500Y-102328000D01*
X84654500Y-102329000D01*
X84661500Y-102331000D01*
X84667500Y-102333000D01*
X84673500Y-102336000D01*
X84679500Y-102339000D01*
X84685500Y-102342000D01*
X84690500Y-102345000D01*
X84695500Y-102349000D01*
X84701500Y-102353000D01*
X84706500Y-102357000D01*
X84710500Y-102362000D01*
X84715500Y-102366000D01*
X84719500Y-102371000D01*
X84723500Y-102377000D01*
X84727500Y-102382000D01*
X84730500Y-102388000D01*
X84733500Y-102393000D01*
X84736500Y-102399000D01*
X84739500Y-102405000D01*
X84741500Y-102411000D01*
X84743500Y-102418000D01*
X84744500Y-102424000D01*
X84745500Y-102430000D01*
X84746500Y-102437000D01*
X84747500Y-102443000D01*
X84747500Y-102450000D01*
X84747500Y-102650000D01*
X84747500Y-102657000D01*
X84746500Y-102663000D01*
X84745500Y-102670000D01*
X84744500Y-102676000D01*
X84743500Y-102682000D01*
X84741500Y-102689000D01*
X84739500Y-102695000D01*
X84736500Y-102701000D01*
X84733500Y-102707000D01*
X84730500Y-102712000D01*
X84727500Y-102718000D01*
X84723500Y-102723000D01*
X84719500Y-102729000D01*
X84715500Y-102734000D01*
X84710500Y-102738000D01*
X84706500Y-102743000D01*
X84701500Y-102747000D01*
X84695500Y-102751000D01*
X84690500Y-102755000D01*
X84685500Y-102758000D01*
X84679500Y-102761000D01*
X84673500Y-102764000D01*
X84667500Y-102767000D01*
X84661500Y-102769000D01*
X84654500Y-102771000D01*
X84648500Y-102772000D01*
X84642500Y-102773000D01*
X84635500Y-102774000D01*
X84629500Y-102775000D01*
X84622500Y-102775000D01*
X84182500Y-102775000D01*
X84175500Y-102775000D01*
X84169500Y-102774000D01*
X84162500Y-102773000D01*
X84156500Y-102772000D01*
X84150500Y-102771000D01*
X84143500Y-102769000D01*
X84137500Y-102767000D01*
X84131500Y-102764000D01*
X84125500Y-102761000D01*
X84119500Y-102758000D01*
X84114500Y-102755000D01*
X84109500Y-102751000D01*
X84103500Y-102747000D01*
X84098500Y-102743000D01*
X84094500Y-102738000D01*
X84089500Y-102734000D01*
X84085500Y-102729000D01*
X84081500Y-102723000D01*
X84077500Y-102718000D01*
X84074500Y-102712000D01*
X84071500Y-102707000D01*
X84068500Y-102701000D01*
X84065500Y-102695000D01*
X84063500Y-102689000D01*
X84061500Y-102682000D01*
X84060500Y-102676000D01*
X84059500Y-102670000D01*
X84058500Y-102663000D01*
X84057500Y-102657000D01*
X84057500Y-102650000D01*
X84057500Y-102450000D01*
X84057500Y-102443000D01*
X84058500Y-102437000D01*
X84059500Y-102430000D01*
X84060500Y-102424000D01*
X84061500Y-102418000D01*
X84063500Y-102411000D01*
X84065500Y-102405000D01*
X84068500Y-102399000D01*
X84071500Y-102393000D01*
X84074500Y-102388000D01*
X84077500Y-102382000D01*
X84081500Y-102377000D01*
X84085500Y-102371000D01*
X84089500Y-102366000D01*
X84094500Y-102362000D01*
X84098500Y-102357000D01*
X84103500Y-102353000D01*
X84109500Y-102349000D01*
X84114500Y-102345000D01*
X84119500Y-102342000D01*
X84125500Y-102339000D01*
X84131500Y-102336000D01*
X84137500Y-102333000D01*
X84143500Y-102331000D01*
X84150500Y-102329000D01*
X84156500Y-102328000D01*
X84162500Y-102327000D01*
X84169500Y-102326000D01*
X84175500Y-102325000D01*
X84182500Y-102325000D01*
X84622500Y-102325000D01*
X84629500Y-102325000D01*
X84635500Y-102326000D01*
G36*
X84635500Y-102326000D02*
G01*
X84642500Y-102327000D01*
X84648500Y-102328000D01*
X84654500Y-102329000D01*
X84661500Y-102331000D01*
X84667500Y-102333000D01*
X84673500Y-102336000D01*
X84679500Y-102339000D01*
X84685500Y-102342000D01*
X84690500Y-102345000D01*
X84695500Y-102349000D01*
X84701500Y-102353000D01*
X84706500Y-102357000D01*
X84710500Y-102362000D01*
X84715500Y-102366000D01*
X84719500Y-102371000D01*
X84723500Y-102377000D01*
X84727500Y-102382000D01*
X84730500Y-102388000D01*
X84733500Y-102393000D01*
X84736500Y-102399000D01*
X84739500Y-102405000D01*
X84741500Y-102411000D01*
X84743500Y-102418000D01*
X84744500Y-102424000D01*
X84745500Y-102430000D01*
X84746500Y-102437000D01*
X84747500Y-102443000D01*
X84747500Y-102450000D01*
X84747500Y-102650000D01*
X84747500Y-102657000D01*
X84746500Y-102663000D01*
X84745500Y-102670000D01*
X84744500Y-102676000D01*
X84743500Y-102682000D01*
X84741500Y-102689000D01*
X84739500Y-102695000D01*
X84736500Y-102701000D01*
X84733500Y-102707000D01*
X84730500Y-102712000D01*
X84727500Y-102718000D01*
X84723500Y-102723000D01*
X84719500Y-102729000D01*
X84715500Y-102734000D01*
X84710500Y-102738000D01*
X84706500Y-102743000D01*
X84701500Y-102747000D01*
X84695500Y-102751000D01*
X84690500Y-102755000D01*
X84685500Y-102758000D01*
X84679500Y-102761000D01*
X84673500Y-102764000D01*
X84667500Y-102767000D01*
X84661500Y-102769000D01*
X84654500Y-102771000D01*
X84648500Y-102772000D01*
X84642500Y-102773000D01*
X84635500Y-102774000D01*
X84629500Y-102775000D01*
X84622500Y-102775000D01*
X84182500Y-102775000D01*
X84175500Y-102775000D01*
X84169500Y-102774000D01*
X84162500Y-102773000D01*
X84156500Y-102772000D01*
X84150500Y-102771000D01*
X84143500Y-102769000D01*
X84137500Y-102767000D01*
X84131500Y-102764000D01*
X84125500Y-102761000D01*
X84119500Y-102758000D01*
X84114500Y-102755000D01*
X84109500Y-102751000D01*
X84103500Y-102747000D01*
X84098500Y-102743000D01*
X84094500Y-102738000D01*
X84089500Y-102734000D01*
X84085500Y-102729000D01*
X84081500Y-102723000D01*
X84077500Y-102718000D01*
X84074500Y-102712000D01*
X84071500Y-102707000D01*
X84068500Y-102701000D01*
X84065500Y-102695000D01*
X84063500Y-102689000D01*
X84061500Y-102682000D01*
X84060500Y-102676000D01*
X84059500Y-102670000D01*
X84058500Y-102663000D01*
X84057500Y-102657000D01*
X84057500Y-102650000D01*
X84057500Y-102450000D01*
X84057500Y-102443000D01*
X84058500Y-102437000D01*
X84059500Y-102430000D01*
X84060500Y-102424000D01*
X84061500Y-102418000D01*
X84063500Y-102411000D01*
X84065500Y-102405000D01*
X84068500Y-102399000D01*
X84071500Y-102393000D01*
X84074500Y-102388000D01*
X84077500Y-102382000D01*
X84081500Y-102377000D01*
X84085500Y-102371000D01*
X84089500Y-102366000D01*
X84094500Y-102362000D01*
X84098500Y-102357000D01*
X84103500Y-102353000D01*
X84109500Y-102349000D01*
X84114500Y-102345000D01*
X84119500Y-102342000D01*
X84125500Y-102339000D01*
X84131500Y-102336000D01*
X84137500Y-102333000D01*
X84143500Y-102331000D01*
X84150500Y-102329000D01*
X84156500Y-102328000D01*
X84162500Y-102327000D01*
X84169500Y-102326000D01*
X84175500Y-102325000D01*
X84182500Y-102325000D01*
X84622500Y-102325000D01*
X84629500Y-102325000D01*
X84635500Y-102326000D01*
G37*
X84635500Y-102826000D02*
X84642500Y-102827000D01*
X84648500Y-102828000D01*
X84654500Y-102829000D01*
X84661500Y-102831000D01*
X84667500Y-102833000D01*
X84673500Y-102836000D01*
X84679500Y-102839000D01*
X84685500Y-102842000D01*
X84690500Y-102845000D01*
X84695500Y-102849000D01*
X84701500Y-102853000D01*
X84706500Y-102857000D01*
X84710500Y-102862000D01*
X84715500Y-102866000D01*
X84719500Y-102871000D01*
X84723500Y-102877000D01*
X84727500Y-102882000D01*
X84730500Y-102888000D01*
X84733500Y-102893000D01*
X84736500Y-102899000D01*
X84739500Y-102905000D01*
X84741500Y-102911000D01*
X84743500Y-102918000D01*
X84744500Y-102924000D01*
X84745500Y-102930000D01*
X84746500Y-102937000D01*
X84747500Y-102943000D01*
X84747500Y-102950000D01*
X84747500Y-103150000D01*
X84747500Y-103157000D01*
X84746500Y-103163000D01*
X84745500Y-103170000D01*
X84744500Y-103176000D01*
X84743500Y-103182000D01*
X84741500Y-103189000D01*
X84739500Y-103195000D01*
X84736500Y-103201000D01*
X84733500Y-103207000D01*
X84730500Y-103212000D01*
X84727500Y-103218000D01*
X84723500Y-103223000D01*
X84719500Y-103229000D01*
X84715500Y-103234000D01*
X84710500Y-103238000D01*
X84706500Y-103243000D01*
X84701500Y-103247000D01*
X84695500Y-103251000D01*
X84690500Y-103255000D01*
X84685500Y-103258000D01*
X84679500Y-103261000D01*
X84673500Y-103264000D01*
X84667500Y-103267000D01*
X84661500Y-103269000D01*
X84654500Y-103271000D01*
X84648500Y-103272000D01*
X84642500Y-103273000D01*
X84635500Y-103274000D01*
X84629500Y-103275000D01*
X84622500Y-103275000D01*
X84182500Y-103275000D01*
X84175500Y-103275000D01*
X84169500Y-103274000D01*
X84162500Y-103273000D01*
X84156500Y-103272000D01*
X84150500Y-103271000D01*
X84143500Y-103269000D01*
X84137500Y-103267000D01*
X84131500Y-103264000D01*
X84125500Y-103261000D01*
X84119500Y-103258000D01*
X84114500Y-103255000D01*
X84109500Y-103251000D01*
X84103500Y-103247000D01*
X84098500Y-103243000D01*
X84094500Y-103238000D01*
X84089500Y-103234000D01*
X84085500Y-103229000D01*
X84081500Y-103223000D01*
X84077500Y-103218000D01*
X84074500Y-103212000D01*
X84071500Y-103207000D01*
X84068500Y-103201000D01*
X84065500Y-103195000D01*
X84063500Y-103189000D01*
X84061500Y-103182000D01*
X84060500Y-103176000D01*
X84059500Y-103170000D01*
X84058500Y-103163000D01*
X84057500Y-103157000D01*
X84057500Y-103150000D01*
X84057500Y-102950000D01*
X84057500Y-102943000D01*
X84058500Y-102937000D01*
X84059500Y-102930000D01*
X84060500Y-102924000D01*
X84061500Y-102918000D01*
X84063500Y-102911000D01*
X84065500Y-102905000D01*
X84068500Y-102899000D01*
X84071500Y-102893000D01*
X84074500Y-102888000D01*
X84077500Y-102882000D01*
X84081500Y-102877000D01*
X84085500Y-102871000D01*
X84089500Y-102866000D01*
X84094500Y-102862000D01*
X84098500Y-102857000D01*
X84103500Y-102853000D01*
X84109500Y-102849000D01*
X84114500Y-102845000D01*
X84119500Y-102842000D01*
X84125500Y-102839000D01*
X84131500Y-102836000D01*
X84137500Y-102833000D01*
X84143500Y-102831000D01*
X84150500Y-102829000D01*
X84156500Y-102828000D01*
X84162500Y-102827000D01*
X84169500Y-102826000D01*
X84175500Y-102825000D01*
X84182500Y-102825000D01*
X84622500Y-102825000D01*
X84629500Y-102825000D01*
X84635500Y-102826000D01*
G36*
X84635500Y-102826000D02*
G01*
X84642500Y-102827000D01*
X84648500Y-102828000D01*
X84654500Y-102829000D01*
X84661500Y-102831000D01*
X84667500Y-102833000D01*
X84673500Y-102836000D01*
X84679500Y-102839000D01*
X84685500Y-102842000D01*
X84690500Y-102845000D01*
X84695500Y-102849000D01*
X84701500Y-102853000D01*
X84706500Y-102857000D01*
X84710500Y-102862000D01*
X84715500Y-102866000D01*
X84719500Y-102871000D01*
X84723500Y-102877000D01*
X84727500Y-102882000D01*
X84730500Y-102888000D01*
X84733500Y-102893000D01*
X84736500Y-102899000D01*
X84739500Y-102905000D01*
X84741500Y-102911000D01*
X84743500Y-102918000D01*
X84744500Y-102924000D01*
X84745500Y-102930000D01*
X84746500Y-102937000D01*
X84747500Y-102943000D01*
X84747500Y-102950000D01*
X84747500Y-103150000D01*
X84747500Y-103157000D01*
X84746500Y-103163000D01*
X84745500Y-103170000D01*
X84744500Y-103176000D01*
X84743500Y-103182000D01*
X84741500Y-103189000D01*
X84739500Y-103195000D01*
X84736500Y-103201000D01*
X84733500Y-103207000D01*
X84730500Y-103212000D01*
X84727500Y-103218000D01*
X84723500Y-103223000D01*
X84719500Y-103229000D01*
X84715500Y-103234000D01*
X84710500Y-103238000D01*
X84706500Y-103243000D01*
X84701500Y-103247000D01*
X84695500Y-103251000D01*
X84690500Y-103255000D01*
X84685500Y-103258000D01*
X84679500Y-103261000D01*
X84673500Y-103264000D01*
X84667500Y-103267000D01*
X84661500Y-103269000D01*
X84654500Y-103271000D01*
X84648500Y-103272000D01*
X84642500Y-103273000D01*
X84635500Y-103274000D01*
X84629500Y-103275000D01*
X84622500Y-103275000D01*
X84182500Y-103275000D01*
X84175500Y-103275000D01*
X84169500Y-103274000D01*
X84162500Y-103273000D01*
X84156500Y-103272000D01*
X84150500Y-103271000D01*
X84143500Y-103269000D01*
X84137500Y-103267000D01*
X84131500Y-103264000D01*
X84125500Y-103261000D01*
X84119500Y-103258000D01*
X84114500Y-103255000D01*
X84109500Y-103251000D01*
X84103500Y-103247000D01*
X84098500Y-103243000D01*
X84094500Y-103238000D01*
X84089500Y-103234000D01*
X84085500Y-103229000D01*
X84081500Y-103223000D01*
X84077500Y-103218000D01*
X84074500Y-103212000D01*
X84071500Y-103207000D01*
X84068500Y-103201000D01*
X84065500Y-103195000D01*
X84063500Y-103189000D01*
X84061500Y-103182000D01*
X84060500Y-103176000D01*
X84059500Y-103170000D01*
X84058500Y-103163000D01*
X84057500Y-103157000D01*
X84057500Y-103150000D01*
X84057500Y-102950000D01*
X84057500Y-102943000D01*
X84058500Y-102937000D01*
X84059500Y-102930000D01*
X84060500Y-102924000D01*
X84061500Y-102918000D01*
X84063500Y-102911000D01*
X84065500Y-102905000D01*
X84068500Y-102899000D01*
X84071500Y-102893000D01*
X84074500Y-102888000D01*
X84077500Y-102882000D01*
X84081500Y-102877000D01*
X84085500Y-102871000D01*
X84089500Y-102866000D01*
X84094500Y-102862000D01*
X84098500Y-102857000D01*
X84103500Y-102853000D01*
X84109500Y-102849000D01*
X84114500Y-102845000D01*
X84119500Y-102842000D01*
X84125500Y-102839000D01*
X84131500Y-102836000D01*
X84137500Y-102833000D01*
X84143500Y-102831000D01*
X84150500Y-102829000D01*
X84156500Y-102828000D01*
X84162500Y-102827000D01*
X84169500Y-102826000D01*
X84175500Y-102825000D01*
X84182500Y-102825000D01*
X84622500Y-102825000D01*
X84629500Y-102825000D01*
X84635500Y-102826000D01*
G37*
X84635500Y-103326000D02*
X84642500Y-103327000D01*
X84648500Y-103328000D01*
X84654500Y-103329000D01*
X84661500Y-103331000D01*
X84667500Y-103333000D01*
X84673500Y-103336000D01*
X84679500Y-103339000D01*
X84685500Y-103342000D01*
X84690500Y-103345000D01*
X84695500Y-103349000D01*
X84701500Y-103353000D01*
X84706500Y-103357000D01*
X84710500Y-103362000D01*
X84715500Y-103366000D01*
X84719500Y-103371000D01*
X84723500Y-103377000D01*
X84727500Y-103382000D01*
X84730500Y-103388000D01*
X84733500Y-103393000D01*
X84736500Y-103399000D01*
X84739500Y-103405000D01*
X84741500Y-103411000D01*
X84743500Y-103418000D01*
X84744500Y-103424000D01*
X84745500Y-103430000D01*
X84746500Y-103437000D01*
X84747500Y-103443000D01*
X84747500Y-103450000D01*
X84747500Y-103650000D01*
X84747500Y-103657000D01*
X84746500Y-103663000D01*
X84745500Y-103670000D01*
X84744500Y-103676000D01*
X84743500Y-103682000D01*
X84741500Y-103689000D01*
X84739500Y-103695000D01*
X84736500Y-103701000D01*
X84733500Y-103707000D01*
X84730500Y-103712000D01*
X84727500Y-103718000D01*
X84723500Y-103723000D01*
X84719500Y-103729000D01*
X84715500Y-103734000D01*
X84710500Y-103738000D01*
X84706500Y-103743000D01*
X84701500Y-103747000D01*
X84695500Y-103751000D01*
X84690500Y-103755000D01*
X84685500Y-103758000D01*
X84679500Y-103761000D01*
X84673500Y-103764000D01*
X84667500Y-103767000D01*
X84661500Y-103769000D01*
X84654500Y-103771000D01*
X84648500Y-103772000D01*
X84642500Y-103773000D01*
X84635500Y-103774000D01*
X84629500Y-103775000D01*
X84622500Y-103775000D01*
X84182500Y-103775000D01*
X84175500Y-103775000D01*
X84169500Y-103774000D01*
X84162500Y-103773000D01*
X84156500Y-103772000D01*
X84150500Y-103771000D01*
X84143500Y-103769000D01*
X84137500Y-103767000D01*
X84131500Y-103764000D01*
X84125500Y-103761000D01*
X84119500Y-103758000D01*
X84114500Y-103755000D01*
X84109500Y-103751000D01*
X84103500Y-103747000D01*
X84098500Y-103743000D01*
X84094500Y-103738000D01*
X84089500Y-103734000D01*
X84085500Y-103729000D01*
X84081500Y-103723000D01*
X84077500Y-103718000D01*
X84074500Y-103712000D01*
X84071500Y-103707000D01*
X84068500Y-103701000D01*
X84065500Y-103695000D01*
X84063500Y-103689000D01*
X84061500Y-103682000D01*
X84060500Y-103676000D01*
X84059500Y-103670000D01*
X84058500Y-103663000D01*
X84057500Y-103657000D01*
X84057500Y-103650000D01*
X84057500Y-103450000D01*
X84057500Y-103443000D01*
X84058500Y-103437000D01*
X84059500Y-103430000D01*
X84060500Y-103424000D01*
X84061500Y-103418000D01*
X84063500Y-103411000D01*
X84065500Y-103405000D01*
X84068500Y-103399000D01*
X84071500Y-103393000D01*
X84074500Y-103388000D01*
X84077500Y-103382000D01*
X84081500Y-103377000D01*
X84085500Y-103371000D01*
X84089500Y-103366000D01*
X84094500Y-103362000D01*
X84098500Y-103357000D01*
X84103500Y-103353000D01*
X84109500Y-103349000D01*
X84114500Y-103345000D01*
X84119500Y-103342000D01*
X84125500Y-103339000D01*
X84131500Y-103336000D01*
X84137500Y-103333000D01*
X84143500Y-103331000D01*
X84150500Y-103329000D01*
X84156500Y-103328000D01*
X84162500Y-103327000D01*
X84169500Y-103326000D01*
X84175500Y-103325000D01*
X84182500Y-103325000D01*
X84622500Y-103325000D01*
X84629500Y-103325000D01*
X84635500Y-103326000D01*
G36*
X84635500Y-103326000D02*
G01*
X84642500Y-103327000D01*
X84648500Y-103328000D01*
X84654500Y-103329000D01*
X84661500Y-103331000D01*
X84667500Y-103333000D01*
X84673500Y-103336000D01*
X84679500Y-103339000D01*
X84685500Y-103342000D01*
X84690500Y-103345000D01*
X84695500Y-103349000D01*
X84701500Y-103353000D01*
X84706500Y-103357000D01*
X84710500Y-103362000D01*
X84715500Y-103366000D01*
X84719500Y-103371000D01*
X84723500Y-103377000D01*
X84727500Y-103382000D01*
X84730500Y-103388000D01*
X84733500Y-103393000D01*
X84736500Y-103399000D01*
X84739500Y-103405000D01*
X84741500Y-103411000D01*
X84743500Y-103418000D01*
X84744500Y-103424000D01*
X84745500Y-103430000D01*
X84746500Y-103437000D01*
X84747500Y-103443000D01*
X84747500Y-103450000D01*
X84747500Y-103650000D01*
X84747500Y-103657000D01*
X84746500Y-103663000D01*
X84745500Y-103670000D01*
X84744500Y-103676000D01*
X84743500Y-103682000D01*
X84741500Y-103689000D01*
X84739500Y-103695000D01*
X84736500Y-103701000D01*
X84733500Y-103707000D01*
X84730500Y-103712000D01*
X84727500Y-103718000D01*
X84723500Y-103723000D01*
X84719500Y-103729000D01*
X84715500Y-103734000D01*
X84710500Y-103738000D01*
X84706500Y-103743000D01*
X84701500Y-103747000D01*
X84695500Y-103751000D01*
X84690500Y-103755000D01*
X84685500Y-103758000D01*
X84679500Y-103761000D01*
X84673500Y-103764000D01*
X84667500Y-103767000D01*
X84661500Y-103769000D01*
X84654500Y-103771000D01*
X84648500Y-103772000D01*
X84642500Y-103773000D01*
X84635500Y-103774000D01*
X84629500Y-103775000D01*
X84622500Y-103775000D01*
X84182500Y-103775000D01*
X84175500Y-103775000D01*
X84169500Y-103774000D01*
X84162500Y-103773000D01*
X84156500Y-103772000D01*
X84150500Y-103771000D01*
X84143500Y-103769000D01*
X84137500Y-103767000D01*
X84131500Y-103764000D01*
X84125500Y-103761000D01*
X84119500Y-103758000D01*
X84114500Y-103755000D01*
X84109500Y-103751000D01*
X84103500Y-103747000D01*
X84098500Y-103743000D01*
X84094500Y-103738000D01*
X84089500Y-103734000D01*
X84085500Y-103729000D01*
X84081500Y-103723000D01*
X84077500Y-103718000D01*
X84074500Y-103712000D01*
X84071500Y-103707000D01*
X84068500Y-103701000D01*
X84065500Y-103695000D01*
X84063500Y-103689000D01*
X84061500Y-103682000D01*
X84060500Y-103676000D01*
X84059500Y-103670000D01*
X84058500Y-103663000D01*
X84057500Y-103657000D01*
X84057500Y-103650000D01*
X84057500Y-103450000D01*
X84057500Y-103443000D01*
X84058500Y-103437000D01*
X84059500Y-103430000D01*
X84060500Y-103424000D01*
X84061500Y-103418000D01*
X84063500Y-103411000D01*
X84065500Y-103405000D01*
X84068500Y-103399000D01*
X84071500Y-103393000D01*
X84074500Y-103388000D01*
X84077500Y-103382000D01*
X84081500Y-103377000D01*
X84085500Y-103371000D01*
X84089500Y-103366000D01*
X84094500Y-103362000D01*
X84098500Y-103357000D01*
X84103500Y-103353000D01*
X84109500Y-103349000D01*
X84114500Y-103345000D01*
X84119500Y-103342000D01*
X84125500Y-103339000D01*
X84131500Y-103336000D01*
X84137500Y-103333000D01*
X84143500Y-103331000D01*
X84150500Y-103329000D01*
X84156500Y-103328000D01*
X84162500Y-103327000D01*
X84169500Y-103326000D01*
X84175500Y-103325000D01*
X84182500Y-103325000D01*
X84622500Y-103325000D01*
X84629500Y-103325000D01*
X84635500Y-103326000D01*
G37*
%TD*%
D11*
%TO.C,R6*%
X78900000Y-109040000D03*
X78900000Y-110060000D03*
%TD*%
D12*
%TO.C,S8*%
X83100000Y-91500000D03*
%TD*%
%TO.C,S9*%
X84700000Y-91550000D03*
%TD*%
D13*
%TO.C,TP1*%
X85650000Y-100300000D03*
%TD*%
D14*
%TO.C,S2*%
X94650000Y-98600000D03*
%TD*%
D15*
%TO.C,R9*%
X89240000Y-108100000D03*
X90260000Y-108100000D03*
%TD*%
D16*
%TO.C,J2*%
X73000000Y-97550000D03*
X73000000Y-98550000D03*
X73000000Y-99550000D03*
X73000000Y-100550000D03*
X73000000Y-101550000D03*
X73000000Y-102550000D03*
X73000000Y-103550000D03*
X73000000Y-104550000D03*
D17*
X69125000Y-96250000D03*
X69125000Y-105850000D03*
%TD*%
D11*
%TO.C,R3*%
X88250000Y-96940000D03*
X88250000Y-97960000D03*
%TD*%
D18*
%TO.C,D3*%
X85975000Y-96300000D03*
X84400000Y-96300000D03*
%TD*%
D19*
%TO.C,J1*%
X78650000Y-111800000D03*
X79300000Y-111800000D03*
X79950000Y-111800000D03*
X80600000Y-111800000D03*
X81250000Y-111800000D03*
D20*
X76450000Y-114500000D03*
D21*
X76925000Y-114500000D03*
D22*
X77450000Y-111800000D03*
D23*
X78950000Y-114500000D03*
X80950000Y-114500000D03*
D22*
X82450000Y-111800000D03*
D21*
X82975000Y-114500000D03*
D20*
X83450000Y-114500000D03*
%TD*%
D24*
%TO.C,D2*%
X90300000Y-97300000D03*
X89330000Y-97300000D03*
%TD*%
D25*
%TO.C,C18*%
X90200000Y-107050000D03*
X89240000Y-107050000D03*
%TD*%
D14*
%TO.C,S5*%
X96950000Y-96800000D03*
%TD*%
D12*
%TO.C,S12*%
X83100000Y-93550000D03*
%TD*%
%TO.C,S6*%
X79900000Y-93550000D03*
%TD*%
D26*
%TO.C,R10*%
X90300000Y-98300000D03*
X89280000Y-98300000D03*
%TD*%
D27*
%TO.C,C9*%
X76237500Y-102945000D03*
X76237500Y-101985000D03*
%TD*%
D28*
%TO.C,D1*%
X75037500Y-108637500D03*
X76937500Y-108637500D03*
X75987500Y-106762500D03*
%TD*%
D12*
%TO.C,S11*%
X81500000Y-93550000D03*
%TD*%
D26*
%TO.C,R11*%
X85987500Y-97650000D03*
X84967500Y-97650000D03*
%TD*%
D14*
%TO.C,S3*%
X96950000Y-98600000D03*
%TD*%
D27*
%TO.C,C8*%
X80487500Y-100645000D03*
X80487500Y-99685000D03*
%TD*%
D12*
%TO.C,S13*%
X78200000Y-91450000D03*
%TD*%
D29*
%TO.C,C25*%
X87150000Y-97970000D03*
X87150000Y-98930000D03*
%TD*%
D11*
%TO.C,R5*%
X80000000Y-109090000D03*
X80000000Y-110110000D03*
%TD*%
D30*
%TO.C,S1*%
X88500000Y-94637500D03*
X88500000Y-91237500D03*
%TD*%
D29*
%TO.C,C15*%
X83637500Y-99685000D03*
X83637500Y-100645000D03*
%TD*%
%TO.C,C12*%
X82800000Y-96290000D03*
X82800000Y-97250000D03*
%TD*%
D31*
%TO.C,U4*%
X78760000Y-96300000D03*
X78760000Y-97240000D03*
X78760000Y-98180000D03*
X81250000Y-98180000D03*
X81250000Y-96300000D03*
%TD*%
D14*
%TO.C,S4*%
X94800000Y-96800000D03*
%TD*%
D32*
%TO.C,R8*%
X88190000Y-108060000D03*
X88190000Y-107040000D03*
%TD*%
D27*
%TO.C,C10*%
X81537500Y-100645000D03*
X81537500Y-99685000D03*
%TD*%
D31*
%TO.C,U3*%
X77592500Y-102025000D03*
X77592500Y-102965000D03*
X77592500Y-103905000D03*
X80082500Y-103905000D03*
X80082500Y-102025000D03*
%TD*%
D12*
%TO.C,S10*%
X79900000Y-91550000D03*
%TD*%
D33*
%TO.C,J3*%
X92875000Y-107050000D03*
X92875000Y-106050000D03*
X92875000Y-105050000D03*
X92875000Y-104050000D03*
X92875000Y-103050000D03*
X92875000Y-102050000D03*
D34*
X96750000Y-108350000D03*
X96750000Y-100750000D03*
%TD*%
D12*
%TO.C,S7*%
X81500000Y-91500000D03*
%TD*%
D27*
%TO.C,C14*%
X82587500Y-100645000D03*
X82587500Y-99685000D03*
%TD*%
%TO.C,C7*%
X77305000Y-97340000D03*
X77305000Y-96380000D03*
%TD*%
M02*
